<mxfile host="Electron" agent="Mozilla/5.0 (Windows NT 10.0; Win64; x64) AppleWebKit/537.36 (KHTML, like Gecko) draw.io/24.7.17 Chrome/128.0.6613.36 Electron/32.0.1 Safari/537.36" version="24.7.17" pages="2">
  <diagram id="GvuQ_aFb-PjebUONWcIL" name="Attempt 1">
    <mxGraphModel dx="1000" dy="683" grid="1" gridSize="10" guides="1" tooltips="1" connect="1" arrows="1" fold="1" page="1" pageScale="1" pageWidth="850" pageHeight="1100" math="0" shadow="0">
      <root>
        <mxCell id="0" />
        <mxCell id="1" parent="0" />
        <mxCell id="6H7zfrlUpkptx7yJUmZI-1" value="" style="endArrow=classic;html=1;rounded=0;" edge="1" parent="1">
          <mxGeometry width="50" height="50" relative="1" as="geometry">
            <mxPoint x="118.97000000000003" y="450" as="sourcePoint" />
            <mxPoint x="528.97" y="450" as="targetPoint" />
          </mxGeometry>
        </mxCell>
        <mxCell id="6H7zfrlUpkptx7yJUmZI-2" value="" style="endArrow=classic;html=1;rounded=0;" edge="1" parent="1">
          <mxGeometry width="50" height="50" relative="1" as="geometry">
            <mxPoint x="118.97000000000003" y="450" as="sourcePoint" />
            <mxPoint x="118.97000000000003" y="60" as="targetPoint" />
          </mxGeometry>
        </mxCell>
        <mxCell id="6H7zfrlUpkptx7yJUmZI-3" value="" style="shape=image;verticalLabelPosition=bottom;labelBackgroundColor=default;verticalAlign=top;aspect=fixed;imageAspect=0;image=data:image/png,iVBORw0KGgoAAAANSUhEUgAAACsAAAAqCAYAAAAqAaJlAAAAAXNSR0IArs4c6QAAAARnQU1BAACxjwv8YQUAAAAJcEhZcwAADsMAAA7DAcdvqGQAAALBSURBVFhH7ZlNrmlBEMfL24DYgAFjMxsg8bEDYgcswMAOTI0MjbABA5GYECMRghlWQCzhvvN3q+8rrU/r6912I/FLKuocdfr8+6u6ROQjgF6EP/z5ErzF+uIt1hdOYmu1GkUiEaOtViuO+mQ6nRrjlJ1OJ458AKQuF5rNJlLclyWTyY/9fs/fXjOZTK5iYaVSKTTeFWexQL681+vx3VuOx+NVbKPR4G/+D2exGBUpAILCkLNg69R3cRYrpzadTvPdW5bLpRehwDkbzGYz9ojy+Tx712DzZDKZix8IpXK5fPF/Cmexi8WCPaJUKsXePyC0WCzS+Xz2IvQCj/BdYrHY1/TquxrrF0sD3/301EucxMrNBdGSZwkFTmIhQoktFAp897MTzxIKnNbser1mjyibzV4++/0+BUJpPp9Tu932s0Z1WLQVjCZCwywQy5F+cfqlgDPdRnD00m634yt/3F0GKEwk6BssOKX4DlGwdm/ifHBX7Ha7ZY8oWA7sEdXr9cuIKrrdLnsewTKwgWoJYTCc+RKZJWB6/jUxGAwuhQ32gczdyCpo31Zz3BWLUlA1iPpAgoblC/XO6MgCB5tSCUO7qh2IDsMqFo2pxmGmXksB6JgNFWvKHnKWMPomrGLxkGogrMfydLO96B5yYMJmyLrBNpsNe+GVViKRoGq1yldErVaLvceJRqPsXWMVOx6P2SOKx+Ps3VKpVNgjGg6HdDgc+Mqd0WjEHlEul2NPg0f4Bn169c2lIzdiMNJ81w0sAfW87SeQUSwelikLhmvTBgPyZcq+cwSrd9kyATCKlelIml4eKsJqB1mhhYFZQCyEhg2GwpoNfIMpdxUKfk2syquuQsGviH1EKHi6WPxUx9qHmWoJVTeYeLpYjCZGFaJ1IB6dQHYw8VSxepUWZg8dtz9Np9Nh7zHef4D44i3WFy8klugvwr2cakJYr/AAAAAASUVORK5CYII=;" vertex="1" parent="1">
          <mxGeometry x="108.73000000000002" y="30" width="20.48" height="20" as="geometry" />
        </mxCell>
        <mxCell id="6H7zfrlUpkptx7yJUmZI-4" value="" style="shape=image;verticalLabelPosition=bottom;labelBackgroundColor=default;verticalAlign=top;aspect=fixed;imageAspect=0;image=data:image/png,iVBORw0KGgoAAAANSUhEUgAAACoAAAAvCAYAAACVDljoAAAAAXNSR0IArs4c6QAAAARnQU1BAACxjwv8YQUAAAAJcEhZcwAADsMAAA7DAcdvqGQAAAJ4SURBVGhD7ZlNzjFBEMfLewNxAw4gEYmVjUQcgStwAYlY2nACrKywsCURS2JlQWLLCXwcwTv/Ue3pMd0zPnomz5PML6moLm38p6erukTsZkF/gH/8+uuJhJomEmqaSKhptELH4zHFYjGl9Xo9nvWDap6w2WzGs74ABV/HcrnEYeAwxFQcDodbKpVyzM1ms9r57+IpFJRKpccXV6tVjqqBMDEXnzudTvzO9/gKlVdpOp1y1I28+n439Am+QsWXw3QrhLi4oSBEgpf3KB6rDrE9ghIJPIV2u92HUJ0IxIMWCTyFlsvlh9DRaMTRH8ISCTyFyom03W45eidMkUArFHVRiIQJkDhhiwRaoShFQiSSBSC5RK3EtggT7RG63+/ZI5rP5/ZRmM/nabPZcDRkWLAL+UTSGbZHWGhXFKsosB45bsh+lZlMJuyFwF2vE2Q43hImIxIJhqoQFkqhcqEXiSR4rgaq+uoFqka73b7F4/G3Oivlo9/tduwRFQoF9u4kk0myxPOIaDAYsOcPetxcLkf1ep2u1ytHX4QFO5DbNVXHJPcAML+kksuabO+sqEsoHo18MV3HJJ9ajUaDo25EPcbjxrXkm/xKqHwhr44Je1PMw37T3RCQj99Phbr26Hq9Zo/IWjX23BSLRbIE2j7222KxsH0V6XSavc9xCe33++wRZTIZ9twkEgmqVCo8Imo2m+wFg0Nop9MhKzF4dBd9PB555OZyubBH9udqtRqdz2eOGIa3gKP3fLbnFg8gOVRzYV4YS6agMZZMv5VIqGkioSpWqxW1Wi0eEQ2HQ0cD5AknVaC88mvhuZ18Jvr7xjSRUNNEQk0TCTUL0X+nHhgvd5WxxQAAAABJRU5ErkJggg==;" vertex="1" parent="1">
          <mxGeometry x="540" y="440" width="17.87" height="20" as="geometry" />
        </mxCell>
        <mxCell id="6H7zfrlUpkptx7yJUmZI-5" value="(0, 0)" style="text;html=1;align=center;verticalAlign=middle;resizable=0;points=[];autosize=1;strokeColor=none;fillColor=none;" vertex="1" parent="1">
          <mxGeometry x="88.97000000000003" y="450" width="50" height="30" as="geometry" />
        </mxCell>
        <mxCell id="6H7zfrlUpkptx7yJUmZI-6" value="" style="shape=image;verticalLabelPosition=bottom;labelBackgroundColor=default;verticalAlign=top;aspect=fixed;imageAspect=0;image=data:image/png,iVBORw0KGgoAAAANSUhEUgAAAIwAAAAyCAYAAACOADM7AAAAAXNSR0IArs4c6QAAAARnQU1BAACxjwv8YQUAAAAJcEhZcwAADsMAAA7DAcdvqGQAAAkWSURBVHhe7Z05ixRPFMBr/19APGIDj8BABE8QEw1UzARFBUNBNBQ80FjRL+AFgokHrIGJigoKXqioKCgKHoiIkecn2H//aurtvqmp6q7u6dnt2e0fFFvTR033q3fV6x52ZCzDtLQk8p/729KSRKswLaVoFaalFEOrMI8ePTKbN2+2babw5csXc/XqVbN//3573yMjI+Nt0aJFdjvHDBSS3mHi8+fPY/v27SNRt23Tpk1uz/RH7pl26tSpsZ8/f9rtr1+/Hlu5cqXdPnv27LGHDx/a7YNgaBQG4SAkLTTaTFSYo0ePui0TYEiyf+HChW5r/QyFwpw9e9ZaDo3+jRs3xoUzExVGPIsPsig6pl+GIoeZNWuWycKQ+fjxo9m7d6/ZsmWL2zOzyObLtrlz57otcd6/f+96NWPVpka0a9QN71AnMm5TPQxhQd+/NPKNQSF5DG1QVPIwskIJsWDBAmsFWehwWzqsXr3a9WYGnz59MlnyaTJDcVs6LFu2zPXqhTl58eKF7WdGZP+GYN7evHnjPlWgozdpEBex6B07diTFSIaXRsJaJzJu03MYnVcM8lr1KinPi7EP7xdKnFNI9jBo5eLFi60HoRaQEkc1a9eudb2Zy4YNG1yvXqi/iHc5ffp0rhdj37Nnz8ydO3fMqlWrzK9fv9yeRJzi5IJWornUP1KhFsDw0urO2mXcpnsYLQNWd3WjSw1XrlxxW4thPvA0RR7Jp1BhRFlweWVg+Ss3UvbcFGTsJisMspPrpNVtNCiIjF0l5Mv1MT+p15arMKKFDFq2ekieIzdTxjOlImM3WWG00dRdTNPK0o98xUOlyjFXYaQEX2VS9LKyjKtMRcZussKI/Gh1Go0uXPY7Lk6BCMJYKHgRUYXROUjZCfdrMXyuGxm7yQozCKORFIEx61JCVkyMx7hFcxVVGCZCbrZs7NUWwEX4MJ7s91vqck+Ob6rC+PcYSix1oU23vJxPzondt3iMMjmNdg5FShhUGD1AlQkRjaWRy4RAk8VSpPE5JNgQcs4gEuo6KDIaYHK1YUqLeSPJN/BcMSOWY8rmnPr7Y2NDsA5z+fJl1zNmxYoVrpfOy5cvXc+Y5cuXu1431HPmzJnjPhmTTby5f/9+YSWUiiZ1B4H6w7lz5wb/HkhJ3r5963rxKje1LOQgZIplMkUzO3fudFsmoF5y8uRJ28+MzcybN6/rfRhphw8ftseUJVNc1zPm2rVrrhfAKU4X2vKrxF45lxbTdG2BWFmeVoMeM69V8YiDQHuOWHjQXhavkedd9YorpZX1MDoq5HntHoXR4ajKF/vnh9CJW9USddPRMgjJEAPR+UiRwQwaCWXSYtfTM6OpJ8YoKtjhsVAWWl0rh6aBQeTJkP2ygmqKwaQ6ip4c5tWrV67XoewzI/IQYePGja7X4dixY2bXrl02d+G4UKyeDjx9+tT1OrmZliHP4davX29+//5tMoMxx48fd3uaxZMnT1yvmx6F+fv3r+tVQx6CwdKlS22yhpB4SfnEiRNWgDz8GtRj/iagXx/gAR/cvHnTvlqAwUDTDebfv3+u5+E8zTg6WQvszoUkTp8barFl9nRCF+xCjXDcNAib+hpji4dKL1DF+PDhg+sZkwkNbbMty2vcVmMfq09n8KgsewX6yCDLW9wWY/78+dPfS0wDIDX1qFVhHj9+7Hrd+Qvv4QpVhUWdhfoLoU1qDrh4wl2TINwKGI3UWQjBmdXaPug8pwzcr/5N0qT9HslRq8Logp2fo/QjLBSM3AdhXbx40Voslos1kxPoQt5Uowt2XLNGv0ClFwepcJ/cL0qYhRArh4MHD5ozZ87Y7+rHa/kKFy3YZl/ahX7CGtidiz7PX5bp5XosPoYgtkrNxh9TL19TnrROBjoH9At2/tK1DCK/kOzkVRJyp7JlEMG/Nv/ahZ6r9uswJLIpFAmjqrDkejILclu6YTv7EVYT0PfoKzgU7Q+hjYYKuY+umletbfnzE/oe6AlJ/ru3P378cL183r1753q9rhjWrVvneh14JpTC+fPn7V+/piNs377d/iVEpY45KPyQsGTJEtebQIfmWK3D5+7duzb3gzVr1ti/Gv07LUJ2Fb5//+56HULfAz0Kw8Rm2uw+dStCHjomS+3BRwvr1q1brtdZWYR+/sBnWXHwY7YQWsGLJoBaiCTNff/cIoDOzUh4QysPnceMjo66XgdylFASf/36ddeLr2ZEtrdv37Z/y/Lt2zfX6y02aoJJry4o6YHy0AW7WFFu69atrmdsooaikGwxedyo/2s9/Xn+/PmuF+fr16+uF2b37t3jCsj3UXGtc3WhFTDkZUEbDTLDKyIHlAWZPHjwwO2dQGSLEqZQ5Z7u3bvnesbs2bPH9QK40NSFTiZjuYOGPEeOp8Vis47FurEtdI7Op/LGlGNCCaFGjtOtzmc55FEybixpBK5TX4O0WOIu+/PuTz9tTs2NNHpe8vLWoIfRNQO0GwvIQxfswM9XBNwcoUusj9CX3aj9zXTsnCJSC05AAZHvlO8FXQroB2Qk3gvyfod16dIlk61s3CdjfzdOYU/Xq8oSC9kp4BklR+Ja9Ds6PTjF6UFnzVP1VDnFw4AcU+RhfDhnGB5VpNxfqqxCyLl4mTzvAtHCHRYvVlg1824y4jXJY2Y6shI9cuRIvnfJiCoMHDhwwIYPEsSpWLJqNxtbrekEr8zrpBcuXLChadu2bW5Lc+E64fnz5/ZvCJ3wh5bzMViVEUpJQQ4dOuS25uA8TRQSYFxVP1XEquiwGEsi9TGp1V5CLMeXdd1TBaFI7jGGHMNcpcJ8Mq9l5jap5CpKM9nxXq+AYt8tk08rir/sZzWBgLinYUGvgGLXLSu0Mr9VQqbMaxlZJCkMMCgXVeaC6oCbQhAxy5FnXykJLyWCqUrg+wHZi8KEvCiGIPtTvSZyQx5FRuaTrDCAxfNFTM5khScdcvzJ5hpQpDKCGlYk5GC0PrLKSTEaFITj8FpV5rCUwghMzmSGJwk7KIcoBjeOhYQUaTrC5Mr9YrQy2XgctrEvRQGYt36Mq5LCTAWipAhHlKffmx82UAi8ieQroihsq+ItqtD+N5OWUuTWYVpafFqFaSlFqzAtJTDmf3CYtXUX0lVgAAAAAElFTkSuQmCC;" vertex="1" parent="1">
          <mxGeometry x="138.97000000000003" y="418.99" width="40" height="14.29" as="geometry" />
        </mxCell>
        <mxCell id="6H7zfrlUpkptx7yJUmZI-7" value="" style="shape=waypoint;sketch=0;size=6;pointerEvents=1;points=[];fillColor=none;resizable=0;rotatable=0;perimeter=centerPerimeter;snapToPoint=1;strokeWidth=0.25;" vertex="1" parent="1">
          <mxGeometry x="148.97000000000003" y="400" width="20" height="20" as="geometry" />
        </mxCell>
        <mxCell id="6H7zfrlUpkptx7yJUmZI-8" value="" style="shape=waypoint;sketch=0;size=6;pointerEvents=1;points=[];fillColor=none;resizable=0;rotatable=0;perimeter=centerPerimeter;snapToPoint=1;strokeWidth=0.25;" vertex="1" parent="1">
          <mxGeometry x="108.97000000000003" y="440" width="20" height="20" as="geometry" />
        </mxCell>
        <mxCell id="6H7zfrlUpkptx7yJUmZI-9" value="" style="shape=image;verticalLabelPosition=bottom;labelBackgroundColor=default;verticalAlign=top;aspect=fixed;imageAspect=0;image=data:image/png,iVBORw0KGgoAAAANSUhEUgAAADMAAAA7CAYAAADW8rJHAAAAAXNSR0IArs4c6QAAAARnQU1BAACxjwv8YQUAAAAJcEhZcwAADsMAAA7DAcdvqGQAAAP0SURBVGhD7ZpPSjsxFMdff3sF8QbqQkFwU9wILly0vYB4AEHRCwi9gReo3kAPUBe6qKAo+A8UBVe60aWiN+hvvjPvtWlMMpn5tZ38pB8IfZNMp/lmkvdeoqV2BP0S/vDnr2AkJlRGYkIlKDGvr6+0vb1NpVKJazIC11w0Hx8f7Xq9jhDRKXkoXMzu7m57YmKiR8h/J+bg4KA9PT0dd3xra6svb6awDKBWq8Wf0ZuhhYWF2FbXSp5uFSYGi31qaoqvEv5VTKo3E++iFxnZvOhC+kGqmEajQS8vL1StVrkmYWVlha2AwDTz4ejoKF6YUs7Pz7mlf6jPz4N30Hx7e2MrYW5ujq1w8Bbz8PDAFlG5XKbJyUm+CgdvMTc3N2wRVSoVtsLCS8zn5yfd3t7yFdHS0hJbYeEl5vn5ma2E2dlZtsLCS8zl5SVbRFEKMpAY0Q+8xLRaLbbM6wXR3BRYUWZmZviuweMl5vr6mi2i5eVltrrgTSGwRtkv13TZ2NhgKxtYp5nheGPl/v6+J5jh2oZkwShI65EZp4G9DALw2tpaz+8gk84amFPFoENqB22oGUIUh5yiAToq9/sUH2GpYjBC8kCMngn8kGywcD9GuwhSxWCURcz+/j7XdkEd2nyn1SBxisEIixAU9VWjTea5z7QaBk4xeqYMIq/Vs28vclrpOF3z09MTWwmIGwiaOzs79PX1FddFooJJOp1i1GCJvXokPi7R9OJaopOTE7YCIH4/FtAsRV0vulvNO80wZTFN1fiE9QenkueZVjF6sNQfrrZhbWUF38G6Q5GBgjjxnvjMKsgqRlwuCkZOp1qtdtpx5pUFdFociPrGAQRIG34jC1YxacESHk3aMYpZkIGwfU89ENTFurCKUecxOq6ju23fKYG34nouUNekLeswYRSDjsnDUExrwuceE+r0dX1H7sGU88Xomq+urthKMO0sEVuiacJXRM1mk60EHB4eHh7yVZfT01O2iMbHx9myg3jmux0wirm4uGArCYq2neXq6ipbFHccmzQUnHbu7e3R2dkZt3b5/v5my4166Khv220Yxdzd3bFFtLi4yNZP1tfXOxsyjCCyAxRs5qLpFJ+G6uTadHliFHN8fMyW+xgWUw3TRqYbhEVeMD7J2dzcjOt01FOevsNrZ2ioXtLldtU45uuenbnZIMhzwDE2NsaWm6GL8UVdW/LHqDSGLkZdg+/v72z9RNaW6v7TGLqY+fl5togeHx/Z6gXuXch0rs1rZ6hIImlKYIF6IoT0x5dCxKgpjclTicfLmo0XIgZIVo63JDmabNZQj8+sFCYGQISc8EjBdd4jq9F/AobKSEyojMSEykhMqPwiMUR/ARwIXRbQlJAcAAAAAElFTkSuQmCC;" vertex="1" parent="1">
          <mxGeometry x="148.97000000000003" y="458.93" width="18.21" height="21.07" as="geometry" />
        </mxCell>
        <mxCell id="6H7zfrlUpkptx7yJUmZI-10" value="" style="endArrow=none;html=1;rounded=0;" edge="1" parent="1">
          <mxGeometry width="50" height="50" relative="1" as="geometry">
            <mxPoint x="158.71000000000004" y="455" as="sourcePoint" />
            <mxPoint x="158.71000000000004" y="445" as="targetPoint" />
          </mxGeometry>
        </mxCell>
        <mxCell id="6H7zfrlUpkptx7yJUmZI-11" value="" style="endArrow=none;html=1;rounded=0;" edge="1" parent="1">
          <mxGeometry width="50" height="50" relative="1" as="geometry">
            <mxPoint x="113.84000000000003" y="409.71" as="sourcePoint" />
            <mxPoint x="124.10000000000002" y="409.71" as="targetPoint" />
          </mxGeometry>
        </mxCell>
        <mxCell id="6H7zfrlUpkptx7yJUmZI-12" value="" style="shape=image;verticalLabelPosition=bottom;labelBackgroundColor=default;verticalAlign=top;aspect=fixed;imageAspect=0;image=data:image/png,iVBORw0KGgoAAAANSUhEUgAAACsAAAA3CAYAAACVSbMgAAAAAXNSR0IArs4c6QAAAARnQU1BAACxjwv8YQUAAAAJcEhZcwAADsMAAA7DAcdvqGQAAAPwSURBVGhD7Zk7TvNAEMcn3w0CR6BKRcGjgJ4APY+eiitwA27ADaBIQRGaRAKJlwSiAIEEBVBR8jhCPv83M2Z2vbt2UOwQiZ808rDe2H/vzs6OTa2XQGPCPz6OBX9iy+JPbFlUmg0+Pj7o6uqKHh4e6Pj4mJ6fn+nl5YXPEs3OztLa2hptbW3R5OQktyogtiqazSYGxlgirHd2dmba39/fe/v7+716vW7O4Zg8hDmnGYnYqakpI9AFguVhNjY2uPWbkYiFqBAiFuby63awWq3GnlHLXp/xTl2vr6/m6Xx2fn7Ovcrh4OCAvX5myIAw8KGDXaxMsOCw8OReR0dHfOabqAKkF/kxFkeZbG9vp/eC7yMqVvIebGdnh1uHz97eXnqf2KAExSIpywVgvmkZBjrcMJO+/CsExUKcFhu7yE8ZRCgIisW06wsNm0GFgqBYvY+HAv6n3N7epuuhqFAQFCtCYbHtcVAgTISGaoQQXrGohrRYXwWkU41rsYeTGYNgjLAPWdzIEhqvWJ1K8PQhdFyLYVpDInSchrILRhoVF/pICSl4xUpnmK9UE/TNYRi12LTqHaqIFRKrL+pOhQajKP12d3e51Y8bWkUsV6y7GfimFKMnMYvYcy9aFhmxejOAEBc8jIxo3rQPm4xYvWjcfRoPImknb9rLICPWF4cQqVNOVdPuknmtQZGdRzL1/lflkrHeFNw3ATwHLFlk3NIH7/6jwBJ7eXnJHlEy7ewRTU9PW39fXFywNzgYkM3NTZqYmEhfl/C3fqUJgjAQ9GbgFtuIXzmHuP4Jcg38XrZwxL8s2ryCyRIrP4K5+7ub1AdNWZIScQ/3t/rasSyTii2yGejzob3dB8TJQIRejyQL+R5GSGP2+vqavT6IU5fkguwNFrfdbpe+vr6Mv7KyYo4u+CAH0K/VahnfJRV7f3/PXuCdPWFpaYk9ok6nw14+h4eH7BE1Gg32bBYWFtgjOjk5Yc8mFatvPjc3x57N4uIie0Q3Nzfmg4hwd3dHy8vL5rOmi752kfychCR7DogFxAhcsVClpWMPJvGH/miH5cV6jLx+ptVd6bHtVKcwbdiOJR1p3IGIkdfPtLoC8sCIyghjFcdeY9yBiJHXr/RPnojrpJjnv4wK9rLousTXr5Lvs3kiBOmXzBp9fn4aX2PVBqNEZ5H5+Xn2bCoRq4sgne40j4+P7BHNzMywZ1OJWH3zp6cn9mze3t7Ys/O5phKx6+vr7BG12232bE5PT80Ri3F1ddX4GbDAqkDKT6Q8t1DRRVSsQKpMLARKZYWj7HQ4SnssX4PKxArYmkUcDCONoju2awq/7v9gMX5Nni3Cn9iyGCOxRP8BIrpql01i34IAAAAASUVORK5CYII=;" vertex="1" parent="1">
          <mxGeometry x="93.33000000000004" y="400" width="15.64" height="20" as="geometry" />
        </mxCell>
        <mxCell id="6H7zfrlUpkptx7yJUmZI-13" value="0.01" style="text;html=1;align=center;verticalAlign=middle;resizable=0;points=[];autosize=1;strokeColor=none;fillColor=none;" vertex="1" parent="1">
          <mxGeometry x="213.97000000000003" y="480" width="50" height="30" as="geometry" />
        </mxCell>
        <mxCell id="6H7zfrlUpkptx7yJUmZI-14" value="0" style="text;html=1;align=center;verticalAlign=middle;resizable=0;points=[];autosize=1;strokeColor=none;fillColor=none;" vertex="1" parent="1">
          <mxGeometry x="58.97000000000003" y="395" width="30" height="30" as="geometry" />
        </mxCell>
        <mxCell id="6H7zfrlUpkptx7yJUmZI-15" value="0" style="text;html=1;align=center;verticalAlign=middle;resizable=0;points=[];autosize=1;strokeColor=none;fillColor=none;" vertex="1" parent="1">
          <mxGeometry x="143.97000000000003" y="480" width="30" height="30" as="geometry" />
        </mxCell>
        <mxCell id="6H7zfrlUpkptx7yJUmZI-16" value="" style="shape=image;verticalLabelPosition=bottom;labelBackgroundColor=default;verticalAlign=top;aspect=fixed;imageAspect=0;image=data:image/png,iVBORw0KGgoAAAANSUhEUgAAACMAAAAsCAYAAADvjwGMAAAAAXNSR0IArs4c6QAAAARnQU1BAACxjwv8YQUAAAAJcEhZcwAADsMAAA7DAcdvqGQAAAKuSURBVFhH7Zi9ampBEMfH+wCC+AZqYyX4VYik8wOLdBL1BUx8BHsLfQBRsFc7GwUVbERIIZIUgiBaWmmhL2DOjLO5557s6onJyU3hD5aZ3T0ff3dn5izajhrwS/jD9ldwE6PiJkbFj4rp9Xrg8XigUqnwiAFMbasZj8fHRCKBJYQa9mVYujLr9RoKhQLc399DIBAAh8PBM3IsFbPZbEjAcrmEUqkE4XCYZxTwCkmp1WrvSyvaarXi2c8jtuqqbcrn86C9HNxuN/XxV7pcLvKt4OI24csxA5B4PE7WKkzFTL/fJ+v3+8laxUUxr6+v7AFEIhH2rOGimOfnZ/YAotEoe9ZgemWCwSBZK7koZjAYkDUGb71eB5vN9k/Dcm+Gw+HAngFOcSnb7fa9vjSbTR79i77EPz098aicbrd71EoDXfvw8CCtV2fF4APEy4w3o1DxcCyOKsT9qlYul/nKC2LwQrwBX6oHhWgxROOqanoNZ2NmNBqR1ccLBnQymSR/Op1+b4axKCk4jQ1XCFcDLa4Gxgf2vxulGFx+IcbYzsXIV1Bu03w+Zw9AWwUUDVr2UL/RaJA1i9hasb1KTpo+gumH0xioAv2Rwsw2YQbilop79JkjQ7kyGJxIKBQii8RiMfYAhsMhex/Z7XZ0zhVV22z1lorB4yKeY5C7uzuyCB4nxNmm0+mQRbAat1ot7p2YzWb0g6rVKqTTaR49j1TMYrFgD8Dr9bJ3QqR5u90m0Sji8fER7HY7jSNOp5PGP3sQk4qZTCZktTQGn89HviCXy7EHtErZbBa0TwWkUikevR6pGPFxlB2gscgVi0XyUSwKyWQy1P8yHMiWIj4rV2fT/+AmRsWPitnv9+wp4NixjJeXF/qk4Ku0UkB9FZaJ0R9JZQ3njdz+7VRxE6PiJkYOwBsegMAbNKMU4wAAAABJRU5ErkJggg==;" vertex="1" parent="1">
          <mxGeometry x="230.03000000000003" y="458.22" width="17.89" height="22.48" as="geometry" />
        </mxCell>
        <mxCell id="6H7zfrlUpkptx7yJUmZI-17" value="" style="endArrow=none;html=1;rounded=0;" edge="1" parent="1">
          <mxGeometry width="50" height="50" relative="1" as="geometry">
            <mxPoint x="239.62000000000012" y="455" as="sourcePoint" />
            <mxPoint x="239.62000000000012" y="445" as="targetPoint" />
          </mxGeometry>
        </mxCell>
        <mxCell id="6H7zfrlUpkptx7yJUmZI-18" value="" style="endArrow=none;html=1;rounded=0;" edge="1" parent="1">
          <mxGeometry width="50" height="50" relative="1" as="geometry">
            <mxPoint x="113.84000000000003" y="330" as="sourcePoint" />
            <mxPoint x="124.10000000000002" y="330" as="targetPoint" />
          </mxGeometry>
        </mxCell>
        <mxCell id="6H7zfrlUpkptx7yJUmZI-19" value="" style="shape=image;verticalLabelPosition=bottom;labelBackgroundColor=default;verticalAlign=top;aspect=fixed;imageAspect=0;image=data:image/png,iVBORw0KGgoAAAANSUhEUgAAACIAAAAqCAYAAADWFImvAAAAAXNSR0IArs4c6QAAAARnQU1BAACxjwv8YQUAAAAJcEhZcwAADsMAAA7DAcdvqGQAAAKGSURBVFhH7Zi/rgFBFMbH7RWiU6IVieARUGqEXiLhEbwBevEGRE9BodCJCFHzBEQ8gbvfuTPX7JhlsHvdYn/J5Jw9u2u+PWf+ReBiwf4BX9x+HF+Iii9ExTMh4/GYNRoNlslkWCAQoBaPxyl2PB75UxKYvm7TarWwJFxCodBlPp9TbLfbXfL5PMXT6TTFZDwVIkQIIAZx3T1PhNzDSYh2jFQqld+6itq6gTw2IpEI9zhc0A1QjNto5XKZR99DlKzZbPLIlbulEUJ6vR6PvI74MKePMsqIWs9nWa/XNIMwWw6HA4/acRSCLAgh72AiAjj2ghRCBOb+q5iKAI5CYrEYCdENLBPQMX7DRATQCpEXntFoxKM/iEzJTdcRnoMQ9R6ukWXMIBmtEHQuOoEoFVlEv9/n0Svy+07NSAjKgYfxRSpiNsn7iIrYU+419V2tEPFD6pyXB58uU++gFSJUywsZ0g0R9XrdaPA9y40QdSHDl6NzVZjb3AgR+4GuoTRecbP7rlYrstY4gEhmlYFZJaHYcDgka8pms2GFQoHaQ370XME4QFheyMTagUFqglxONHWq6rBlZL/fs9PpRH4ikSALisUi2eVySc84gfNGu92mbAJhTbAJWSwW3GMsm81yz+5Pp1PuMToII/0yKC0Ed7tdViqVePQxNiHb7ZYsxkQ0GiUfwLcWN/I7nQ5ZiBgMBiwYDNI1CIfDFJPfNcUmZDKZkM3lcmRlarUaWav+dHxEh7PZ7KVOdfwKQX2RUpBKpcjKVKtVZq245CM7EJFMJunaFfig9QSxJj09az6JL0TlT4Scz2fu3YGPFdfBBoktAV3ggPVow3RdyKPTGe7r8P9VVPGF2GHsGxnuoQizXwTMAAAAAElFTkSuQmCC;" vertex="1" parent="1">
          <mxGeometry x="93.33000000000004" y="320" width="16.19" height="20" as="geometry" />
        </mxCell>
        <mxCell id="6H7zfrlUpkptx7yJUmZI-20" value="0.0125" style="text;html=1;align=center;verticalAlign=middle;resizable=0;points=[];autosize=1;strokeColor=none;fillColor=none;" vertex="1" parent="1">
          <mxGeometry x="33.97000000000003" y="315" width="60" height="30" as="geometry" />
        </mxCell>
        <mxCell id="6H7zfrlUpkptx7yJUmZI-21" value="" style="shape=waypoint;sketch=0;size=6;pointerEvents=1;points=[];fillColor=none;resizable=0;rotatable=0;perimeter=centerPerimeter;snapToPoint=1;strokeWidth=0.25;" vertex="1" parent="1">
          <mxGeometry x="228.97000000000003" y="400" width="20" height="20" as="geometry" />
        </mxCell>
        <mxCell id="6H7zfrlUpkptx7yJUmZI-22" value="" style="shape=waypoint;sketch=0;size=6;pointerEvents=1;points=[];fillColor=none;resizable=0;rotatable=0;perimeter=centerPerimeter;snapToPoint=1;strokeWidth=0.25;" vertex="1" parent="1">
          <mxGeometry x="148.97000000000003" y="320" width="20" height="20" as="geometry" />
        </mxCell>
        <mxCell id="6H7zfrlUpkptx7yJUmZI-23" value="" style="endArrow=classicThin;html=1;rounded=0;entryX=0.994;entryY=0.828;entryDx=0;entryDy=0;entryPerimeter=0;endFill=1;" edge="1" parent="1" source="6H7zfrlUpkptx7yJUmZI-21" target="6H7zfrlUpkptx7yJUmZI-22">
          <mxGeometry width="50" height="50" relative="1" as="geometry">
            <mxPoint x="198.97000000000003" y="450" as="sourcePoint" />
            <mxPoint x="248.97000000000003" y="400" as="targetPoint" />
          </mxGeometry>
        </mxCell>
        <mxCell id="6H7zfrlUpkptx7yJUmZI-24" value="" style="shape=image;verticalLabelPosition=bottom;labelBackgroundColor=default;verticalAlign=top;aspect=fixed;imageAspect=0;image=data:image/png,iVBORw0KGgoAAAANSUhEUgAAAGkAAAAlCAYAAABBGMctAAAAAXNSR0IArs4c6QAAAARnQU1BAACxjwv8YQUAAAAJcEhZcwAADsMAAA7DAcdvqGQAAAZCSURBVGhD7Zu5Sy0/FMfjrxcVOwsLl0JEFFEUl0ZwKQUVFywFcSkFQVsRFGxdwNYNLN0tBBXBDbSyEMVCrBT/hPvmm3vOfblzM+vNPOcHfiAkN8nEkzk5JzmZ93ISFuKXWPMf5b/EmF8lGeDg4EDMzs6Krq4ukZOTk0oDAwPi8vKSemUB3F0c2draShQUFCQuLi6oJp5APrxGyAqZwefnZ2J1dVXWI2U7h9gpaX9/P1FaWmpsglHDSmIFqdTV1cm2sbExqgmHb3cHsx0fHxf19fVUYxaMD3cxPDwsysrKqDb+tLS0YKFL12anr69P5q+vrzJXQR3mCTepa1fxVBIGgACtra3i5OREjIyMUMtf7L4YKagvnpubE21tbeL5+VkcHR1RbbSYkNuNt7c3mefn58tcJS8vT/T394uVlRVheQ6xuLgovr6+qNVG0qD0PDw8SF+LbjMzM9LXOsFmzylbeJyo3Z1puRm8K353bnN4eXlJWMqS/eAede/YUSpVQTp/q4Mn2tnZSTXh4bGiVhIwKTeDfQhj+t2PuL9OUVolqatgYWGBat3BiuDJ+n3GDR4raiWZlhtgUWM8WEgQsEjwnH2xaJWkmp9fWDAknNCyhceKWkmm5ebxnFyXG1gwbBw4wjMZSlJ9dBChsWfxc0GF08FjRa0kk3JnoyCG5YGyeIwMJbEVIVYJAgQL85wTGAspaiWZkpv38GwUBFT3y9aUpiQMzh2g0SDwc/aNUrVMNWFSbnC/qJXEfycbufHeTCiI4YWDHKTFSaenp1QSorm5mUreqLFFdXU1lZIg2LPcAP1KYr2QjH4/gSm5JyYmZL6+vi4KCwtlmdne3pbxVxA6Ojpkfnd3J+PUNCWdn59TSYiGhgYqeXN1dUUlIRobG6mkx7JQsby8TL8ygVBra2v0S4jNzU3PiDwsJuSGond2dsT397eoqanJCI4HBweFZWXU2x+qgdzc3Fg2pcBHQKQg8D6me45dAdqwsTrh5F7UZOqIzJiQWx3DKQWNv9R3gTmnSccN7Av9wpOxC4NNEGOhPeq9JQxxlVs9G0A27d2d3a+6AVcEUwe4e2PgBqyJyrazszPp4+NEnOW2v3/ft+BOSJ9JNDU1ycnjshAXsrg4vL6+jsUhwc7/Sm6yMAl+IgXxoXznpEvw13El7nKzLI7uLgi3t7cyh4vA2EjWwLIOnzbiikm5YYH4NsQnOnzaeXx8pFYDWMKlwE8kv9G3usGpwWA2n46xaWMlB7HmoJiUmy2ST4B4DgcOJK+A3Qn11iHDknglWZ1k7sXT0xOV0oNBNeY4PDykkjv44IUvv9gPEHdEiSm5Eajio52lqNSXWRw0EE/h4NHT0yPrgvLx8UGl5KEmTUklJSVUSp5+vFCDwcrKSiolJ26tJFn2ch1QDtxFeXm5dEFQUtSYkBssLS3JfGhoSOZMe3u7zLHYw7i99/d3KglRXFxs2ZMCTNaql8nPDThMkfvbUYM8mC+DetUNwD0gJmH3IoM365kg7s5NDh0m5FZdJsp2MCe0hQnA1Zt5yJBmSbwCwN7eHpWc4WMsu0mV7u5uKgmxu7ubcmdYobm5udSSdA+wIFPxiHof54QJuVWXqYsruY7/nUMQ2N3jUCO9GykvBa8kbHxuYFWhH5LuxhyrC2NwHx7TazPN1pK8NnxTcuPvcLsOfo9B5gFU+fhTRcYRfHJyUubY+LAxOqGupKqqKir9BSsJGyjvMZbQ8lY36gCxoqKCSnr+ldy1tbVUCgZfLlsLQ/T29sqydhnwKvB7FDdJGEvila8ep6PGy5J4XwkyD+w/PKb6+VwbzM7Pz0tN4nSCk1ecgbXD6iHv1NQU1f489/f3MlfvBb3A3gcsxYrR0VFZBlolYbPC5SImPj097er2fhIcbzExyAl51RAiaoqKiqjkHq7gH0H6AfM4Pj6Wh4WNjQ2qJciitGATY1cS5igZhiDuDvKhn+4I/C/AdgBZdeEKvzf1GK8D7ZgD+uLYrpuLq5KAOgiEUn1lFITZk34KltW+F0JpXnOAMrBvsTJRdlpsnkpisFFCGGg7KvA3OAiE8Cb+HVyU4KWyvLx4sahRB/ndrAhtWPRQjls/4FtJUcKW6pbiChSFxcsWgRy/nawiDL//Zzb2CPEHlmxFY2DrSvUAAAAASUVORK5CYII=;" vertex="1" parent="1">
          <mxGeometry x="222.97000000000003" y="420.5" width="32.01" height="11.28" as="geometry" />
        </mxCell>
        <mxCell id="6H7zfrlUpkptx7yJUmZI-25" value="" style="shape=image;verticalLabelPosition=bottom;labelBackgroundColor=default;verticalAlign=top;aspect=fixed;imageAspect=0;image=data:image/png,iVBORw0KGgoAAAANSUhEUgAAAGoAAAAlCAYAAACqL3wuAAAAAXNSR0IArs4c6QAAAARnQU1BAACxjwv8YQUAAAAJcEhZcwAADsMAAA7DAcdvqGQAAAZ/SURBVGhD7Vu5SjRNFC3/XHB7Aw0UEUVUBBdQcAkFAxcMTfQBFHwDBVOXwNQFTN1BwS1QA0VBAxUjI8VH8OtTf53xTltd0zPd047ggaJvV3dX3/3e6tGiTw/qDwWP/8zxDzni/f1dra+vq8nJSdXc3KyKior0KCsr03PPz8/mzohARBUa3t7ePmdnZxHpZqZwQT6bmpo+T05O9NzT09PnxMSEni8tLdXyREXBaQKCQzgI+ZsMBeNIwDiUYW1tzczmjoLRBISprKzUA975WwzlQl9fn5YBxoyKUJqAt8zMzGgl+j0HIENyMA2EAbwPa9Pz8CzXySckv/l4H2TCmktLS2bmC3BGpMewenJyJmsF0hGMFZRvpXKjCpyUoQDKhwGHiwuUIahGwXg05NDQkDUAJAI1gcWZgiBApoWAuARO0lDyXXGkKEDqzlWf/IFwfX1trnyHVRPyRQjPMIAh4xI4SUNBkXwX3hsH2PHZUp4N5MFlLKsmWHOyiQwp8NbWlpnNDUkaikrFsKWobMH1wjo4ISPLxsc3TcAL+ECYdEegfsUlcJKGYubAMSpyNRJBXlCz/EjTBBQMA+FmKD4b8CUokFGRlKEgL9+Tq3IJZpQo6yATkR9/Gk7TBKMJI5toAvicn1GpdDlchTMpQ8n3+Iu+7AY54MQ2cJ2oxgZkJyiRpolc04AU2FZAZf3CyCRQUoaSxrA5DvjkdQy/MQFEJZQLndlSPtbIptYHlZDUR1l8PLy6utJ0b2+vPobF+fm5oZRqbW01lB0eI2phYcGcfcfNzY1aXV01Z0otLy/rD5/5wOHhoT56kaLq6+s1bQOue0ZSw8PDZuYLKysryss+WncVFRWpj7Ici4uLqqSkxNydGW1tbYZS6uDgwFAejMEidW0IUz7rh6x7No8kbKnGPxBpcYJ82TyeUY17XGmaa7hGNtuVoLqZ0qxUVLYKCRIYdQ4pAdfjVnJUQPmU169I8AqewXu2tToOkC+pz5ShMMkbbLk2CBCEz0mBKSzyt8sjfwoyg0gnYkMFfWSjhzjBXgGDsBoqG/gFhuEYnUEFthAgGwUAzsQUnqnZyTdstoj8C+/x8bGhlOro6FBeBKnp6Wl9Drq8vFzThYb9/X1DKV30Gxoa1MbGhj53NRY/hciGury81EcvemB+PTyP0HNSGWEwNzenqqqqUh0Tuix0gXEDXSQ6NQBdKHj2Il93d8DR0ZE+FhQQVkAuqS+oQ5Eb57BNBFMRO0PWOIy4a5z8AiA7UVf3mglYB7yGldeF0Kkv7B9k3N/fGyo9Xci91M7OjqGCgT8OwX7DM1Zqr9Le3q73Wx8fH2pwcFDPxYW7uztDKVVTU2Mopbq6ugyl1Pb2tqHcwH3IAiMjI5rXOPD4+GioL6QM1d3dbSilXl9fDeWG3OjW1tYa6n+jMY2ESX/z8/P6ODo6qo9ET0+PPiJNxZkCudEFghzs7OzMUHacnp6q/v5+NTY2pg0VJ5iWWUI0TGSldW8yHbjgSpcyjaATJDAvU5lMn7YOka2qa9PI58FPGLjuR/rCNWwrCPCFeyV/OAdPnOOaUVMfdMW1ZDlJRVRLS4uhlLq9vTWUGxcXF/roMa2PEgMDA4ZSanNzUxdw/J0bIqy4uNhcSU+ftg6Rcy8vL/rowt7enqGCISNTZhGCqRdejahBGUDkgH/J3+7urpqamoq9q314eDCUUp2dnYbyYAymQe+V3hQEubO3/SQCT6N3ctgaA3ggr9vAyHRFC58PWkNCNjq2T2WSH44w+0HeGzWi2FRhyHemNRPj4+P6GKYmyEioq6sz1BfgaWgGsJcCPIXrD5fZ7lEaGxsNlRnYImSClKu6utpQX0ATg5YdNRYDNKIn7sgJAhorAPpKe6cxmIaMApkf84lMEYVoxbWgiJKRHba25gPkIUpEyT7Bv8437UT58TAXZDIUDIRrQc0EUwXS00+CMkQxFEoO1kC698OqHdYqV12IC7LLsTkGDeX6QTJMDck3KEOuhuL3UWQ0myxWQ+FGGiuJFEhPshV3pmKbEWGopFJ0JoBHjFwMRYeDrEFfYez5xoM0FkIxnx5Lb/IrnZ96kojsqACfGNkYCjplDXYZCQg0FOBfCHQ+DCadgikOEYQ5vDeJWpkrwJus63C2MPziGWYSOGKmZ5yGIrAIjISF86U0GAtCMtXhiPN8OEYckE1Q0HB9TYETQr6wEfj3r6G/BJF/j/pDElDqH5Qcw+WBMTvzAAAAAElFTkSuQmCC;" vertex="1" parent="1">
          <mxGeometry x="141.98000000000002" y="309.14" width="33.99" height="12.86" as="geometry" />
        </mxCell>
        <mxCell id="6H7zfrlUpkptx7yJUmZI-26" value="" style="shape=waypoint;sketch=0;size=6;pointerEvents=1;points=[];fillColor=none;resizable=0;rotatable=0;perimeter=centerPerimeter;snapToPoint=1;strokeWidth=0.25;" vertex="1" parent="1">
          <mxGeometry x="228.97000000000003" y="320" width="20" height="20" as="geometry" />
        </mxCell>
        <mxCell id="6H7zfrlUpkptx7yJUmZI-27" value="" style="shape=image;verticalLabelPosition=bottom;labelBackgroundColor=default;verticalAlign=top;aspect=fixed;imageAspect=0;image=data:image/png,iVBORw0KGgoAAAANSUhEUgAAAFMAAAAiCAYAAAAjzOVkAAAAAXNSR0IArs4c6QAAAARnQU1BAACxjwv8YQUAAAAJcEhZcwAADsMAAA7DAcdvqGQAAAQ3SURBVGhD7Zo9LzVBFMfnPt9AlBIRlBKJeGmQaFBpKXVCVHTUCkTrpVNI6FQSIiFBgYiQUBJRe/sG99n/P3PW3rm7e2df7G6xv2Ry1uzOzNkzZ86cnatSdVAlqfBPy5IUKI2ZIqUxU6Q0ZorkYszX11c1NzenxsfHdU0+fH5+qoODA+pRqVRYOjs71dramn4iItjNs+Lj46O6urpabWpqQgZRHRsb03fyAbpAj9nZWf4N/SYnJ1m3v7/PuiiEeiZmDrOE2YI3JQF9DQwM8Pru7o6yCPT29qrNzU1eNzc3q/n5eV6/v79TCvDgvr4+ykC0Ues4OjqiBzmD8drLw8MDZ0+KrYdh5oUo7RoRVx8/Li8v2Qe81gTe2tHRwYIxTXyNiUboUNzfDxgGnQYN3IikL22SVB8BOsGJXl5edE0tGAcOhmdMg9YZU2YGsaMRGBjPok1U0jYmSKIPgPOgvbkSTWTiTKPXGVNmN2hmvOA5FO/ytQXt0jZmEn3EkLYbj5/T1RjTZnkL0hlcPg5om6Yxk+gT1ZACxkI7We41u/nGxgblzMwMZRjPz8+U2OGKQFx9dnZ21NbWlnIMqaampnStHYuLi5Tog9CkDljW+BNxwAa/fAwzhPaol778lpysAIQUm3BiQxx9cB/15oYFL7dZNabNXGPKC9ouPVHSNIYkwrhv7nayQfiVuJuGEEcfmQC/YmsHeZ4To+vcQW3iZZAXiydAkTibQFzy1EccBBmAGzPf3t4o29raKMO4vb2lHB0dpQRXV1dqZGREOZOhjo+P+TWRFUXQ5+np6fegI8rn4sXFBWVPTw/bLS8vq4mJCbW3t6dWVlZ4L0sKo4/2Vtddbb4eJCXwFnOJZUme+njt5npme3u7vgoHBxZyUOHEIRZHcfX9/a0eHx9ZnyVF0sc1psTK+/t7yiBubm4onbSGcQhF8rPr62vKMBDLcH4Y+8zQoCj6dHV1/RqztbWV8ufnhzIIBFrgDfbDw8OUh4eHlH7IgfDQ0JA6OTnRtcnJWx9p29LS8mvM/v5+ykYdn52dUXZ3d1OCRm0x+3hZvKSTQujacNBGTr/DyEofPySMIKxwfB1HiQTysFMT3EcxE2BvW+R9CMzeRFzyPPmGbrTRyXMoYcgzf62PH9vb22wruXmNpvIVFJS4h70gXkZOnKB40ISkacws9fFDJgx9gDotRAHzsywtbJWXWV9aWtI1f0NcY0o7TJTgxkxhd3eXEsE5L5DurK+v8/eZhYUFXVscoN/09DRjpfx+BOqMOTg4yOMoBO+8DHp6esoNIuvPUhtgSKRSX19f6vz8vCY/rzMmQJ7mxBj3FznsflmC8THjRTMk7IFfWPFBAEN6Mwiil7sv2PEQSxBH04ih6A8xEMPi+Et21LyIog82MGw43vNSk8z+pTAsX8xIhRr+Qp/y/zNTxDdmlsRBqf/BPN7cDLCtcAAAAABJRU5ErkJggg==;" vertex="1" parent="1">
          <mxGeometry x="198.97000000000003" y="330.65999999999997" width="35" height="14.34" as="geometry" />
        </mxCell>
        <mxCell id="6H7zfrlUpkptx7yJUmZI-28" value="" style="shape=image;verticalLabelPosition=bottom;labelBackgroundColor=default;verticalAlign=top;aspect=fixed;imageAspect=0;image=data:image/png,iVBORw0KGgoAAAANSUhEUgAAAB0AAAAmCAYAAAA4LpBhAAAAAXNSR0IArs4c6QAAAARnQU1BAACxjwv8YQUAAAAJcEhZcwAADsMAAA7DAcdvqGQAAAInSURBVFhH7ZcxsgFBEIZn3w1wAyQiCQKBQMINOIEqV3ADTuAGTkAVAVUIEBEICUWcYd/+/bq3dmdnl/d2vMhX1dWzM2P/nZ7umeK4Huqf+WL/r3xE34p10cfjoUajkcpms9xjANlri8lk4hYKBVQDWRzWVtput9V6vVaLxUJVKhXujYHFfY7Ho/+lsFarxSPJ3O93brn0G8OrfSIrLZfLynuB8sJEz81mk/wzcrkct55jDC9eUCwWqV2v18nbJHZP5/M5+VKpRN4mRtHtdkseCfGbsL2KUfR8PpOvVqvkbWMUXa1W5BuNBnlwOp2o4B3HIUMbB4EO5h0OB2pLxCJwFofIZDKU8pfLhXt+GA6H1I9xlFYQGTMZxoJERCGEiXhxEIigDzUYrMm/EBHFUQbRTqfDPa672WxIcDAYcE86IqL9ft8PCVYNIQhOp1OekZ6IqFcm/l6I6aFOS0gUeyVCaMMgiGc9cdIQKpn9fk8e5y4OBVi326W+3W5H3sT1eqU7FHUtJYX2bDbjGRosTkjaY18FSayk20ZuFcwFyAW5V/WyA6GVLpdL8rhphFqtRl7O4ji8hPOjks/nVa/Xo/btdiMfgsUJPML0/ZPkQgbjy7EylFESEjXTPF8UgyKqg4+QcEHwWflIAuJjTUQVUgJBiEHUtJ/AqmhQMKnErIm+KgisieKsfkUQWBEdj8fGTEUG69casCKKFUrm62YS/fw/fSsf0Tei1DdPPQKzBk9mmQAAAABJRU5ErkJggg==;" vertex="1" parent="1">
          <mxGeometry x="263.90999999999997" y="458.21999999999997" width="18.73" height="24.54" as="geometry" />
        </mxCell>
        <mxCell id="6H7zfrlUpkptx7yJUmZI-29" value="" style="endArrow=none;html=1;rounded=0;" edge="1" parent="1">
          <mxGeometry width="50" height="50" relative="1" as="geometry">
            <mxPoint x="272.94000000000017" y="455" as="sourcePoint" />
            <mxPoint x="272.94000000000017" y="445" as="targetPoint" />
          </mxGeometry>
        </mxCell>
        <mxCell id="6H7zfrlUpkptx7yJUmZI-30" value="0.013" style="text;html=1;align=center;verticalAlign=middle;resizable=0;points=[];autosize=1;strokeColor=none;fillColor=none;" vertex="1" parent="1">
          <mxGeometry x="247.91999999999996" y="480" width="50" height="30" as="geometry" />
        </mxCell>
        <mxCell id="6H7zfrlUpkptx7yJUmZI-31" value="" style="shape=image;verticalLabelPosition=bottom;labelBackgroundColor=default;verticalAlign=top;aspect=fixed;imageAspect=0;image=data:image/png,iVBORw0KGgoAAAANSUhEUgAAAB8AAAAlCAYAAAC6TzLyAAAAAXNSR0IArs4c6QAAAARnQU1BAACxjwv8YQUAAAAJcEhZcwAADsMAAA7DAcdvqGQAAAIoSURBVFhH7ZfNjcIwEIWd7QDRAdABHLlwAQlxhxagAA50QAdQAQfOSNw48HOGAqACemDzJn67sRPnZ7GUw/JJluPx4jcZj8fZ4BWiKuJL95XwEa8Eb+K3203NZjPVarVUEATSJpOJ2J0g232ApWq12ut6vcr4eDyKrdlsyjgNr+K73U6PIgaDgdhdJMKOUDFsaKfTSc9kE66lhsOhHhUk8sFktVqJx47pQjDsi8VCW5Kkrs4fImx/AfuO/e90OtqSTmq2Xy4X6dvttvRlQHb3ej0VJpra7/fa6kA7YcBEsRMoj/gbP59PbXWTKo4FIH6/37UlH4jhWBUVBglxeA9h+3xOp1Oxsy2XSz0TMR6PxWlbGFFEDqWREGemQ8yGwvYcHXa1wuJ8QzgRB3a82Waz0Zb3SYgj3BBnmUQYIQw7bb4wxJFgDBVAtkMU+1k0icpgiEOM4vFmb4EvjCJzPp+lD0sinFJhRsv4cDhI753IhwicUZiYVNwGJFoWiBiPGv8eeZK3VYY4fogWLy5MQNdx4T0QLy6oAbDZR9LmJ+y8OkOvVaPRkGfQ7/elZ713gTper9fleT6fS/94PKR38SPOxSlGRqOR9NvtVvr1ei13Pul2u5IfFC5FFIDfy8QumwB3Muawl3jO20uGPe9iMvbcB0hWCGd9RBCv4hTOSzTiTbysMPAizlutjDB4WxzJh1pgf+/Bnlec3haPf+mmtSw+/59Xwn8VV+obkRQydG6FP6IAAAAASUVORK5CYII=;" vertex="1" parent="1">
          <mxGeometry x="93.33000000000004" y="280" width="16.76" height="20" as="geometry" />
        </mxCell>
        <mxCell id="6H7zfrlUpkptx7yJUmZI-32" value="" style="endArrow=none;html=1;rounded=0;" edge="1" parent="1">
          <mxGeometry width="50" height="50" relative="1" as="geometry">
            <mxPoint x="113.84000000000003" y="289.67" as="sourcePoint" />
            <mxPoint x="124.10000000000002" y="289.67" as="targetPoint" />
          </mxGeometry>
        </mxCell>
        <mxCell id="6H7zfrlUpkptx7yJUmZI-33" value="0.017" style="text;html=1;align=center;verticalAlign=middle;resizable=0;points=[];autosize=1;strokeColor=none;fillColor=none;" vertex="1" parent="1">
          <mxGeometry x="43.33000000000004" y="275" width="50" height="30" as="geometry" />
        </mxCell>
        <mxCell id="6H7zfrlUpkptx7yJUmZI-34" value="" style="shape=waypoint;sketch=0;size=6;pointerEvents=1;points=[];fillColor=none;resizable=0;rotatable=0;perimeter=centerPerimeter;snapToPoint=1;strokeWidth=0.25;" vertex="1" parent="1">
          <mxGeometry x="262.70000000000005" y="400" width="20" height="20" as="geometry" />
        </mxCell>
        <mxCell id="6H7zfrlUpkptx7yJUmZI-35" value="" style="shape=waypoint;sketch=0;size=6;pointerEvents=1;points=[];fillColor=none;resizable=0;rotatable=0;perimeter=centerPerimeter;snapToPoint=1;strokeWidth=0.25;" vertex="1" parent="1">
          <mxGeometry x="148.97000000000003" y="280" width="20" height="20" as="geometry" />
        </mxCell>
        <mxCell id="6H7zfrlUpkptx7yJUmZI-36" value="" style="endArrow=classicThin;html=1;rounded=0;endFill=1;" edge="1" parent="1" source="6H7zfrlUpkptx7yJUmZI-34" target="6H7zfrlUpkptx7yJUmZI-26">
          <mxGeometry width="50" height="50" relative="1" as="geometry">
            <mxPoint x="248.97000000000003" y="420" as="sourcePoint" />
            <mxPoint x="168.97000000000003" y="340" as="targetPoint" />
          </mxGeometry>
        </mxCell>
        <mxCell id="6H7zfrlUpkptx7yJUmZI-37" value="" style="endArrow=classicThin;html=1;rounded=0;endFill=1;entryX=0.967;entryY=0.953;entryDx=0;entryDy=0;entryPerimeter=0;exitX=0.94;exitY=0.9;exitDx=0;exitDy=0;exitPerimeter=0;" edge="1" parent="1" source="6H7zfrlUpkptx7yJUmZI-26" target="6H7zfrlUpkptx7yJUmZI-35">
          <mxGeometry width="50" height="50" relative="1" as="geometry">
            <mxPoint x="289.97" y="420" as="sourcePoint" />
            <mxPoint x="188.97000000000003" y="290" as="targetPoint" />
          </mxGeometry>
        </mxCell>
        <mxCell id="6H7zfrlUpkptx7yJUmZI-38" value="" style="shape=image;verticalLabelPosition=bottom;labelBackgroundColor=default;verticalAlign=top;aspect=fixed;imageAspect=0;image=data:image/png,iVBORw0KGgoAAAANSUhEUgAAAB0AAAAaCAYAAABLlle3AAAAAXNSR0IArs4c6QAAAARnQU1BAACxjwv8YQUAAAAJcEhZcwAADsMAAA7DAcdvqGQAAAFWSURBVEhL7ZbhrURAEMfX64AW6IBEB+iAFiiBCqjgOqCBS3z3lUQBogJquHf/ebuJC3vsy7n3PtwvmczaHf47zEC73WFv5ov7t/IRPZVd0aIomGVZTNM0FgQBm+eZr/yQZRmtIeYwqF4ZeZ7f4jimMTzCL5cLHQMxB/N9n8/u81R0SdM0DxeHuK7rNJ+mKW3wKIdFAUQh1Pc9ja/XK19RQ0kUWQrhsiz5rDpK1WvbNnnP81gURTT+DUqiXdeRNwyD/DPGcWRJklDFr+AZ74JKdRyHbi+8jGmaqKjwCBC7VdWHMq2qiqyua2aaJmvbdtWvAHOu69IYMVK4+ArsEMUCQ5ioVNGbsspFpgLEbWUqFb1nRCfBlj0oNhGGIR1jTdajyqI4Ac9l64LL1pEJAmXRVyAT/Z9fmTM4TRQtBoZhoBfFA/w2vwxRZFuGLxL4/A2eyh+IMvYNKj0UnRCViWUAAAAASUVORK5CYII=;" vertex="1" parent="1">
          <mxGeometry x="242.82000000000005" y="405" width="11.15" height="10" as="geometry" />
        </mxCell>
        <mxCell id="6H7zfrlUpkptx7yJUmZI-39" value="" style="shape=image;verticalLabelPosition=bottom;labelBackgroundColor=default;verticalAlign=top;aspect=fixed;imageAspect=0;image=data:image/png,iVBORw0KGgoAAAANSUhEUgAAABkAAAAbCAYAAACJISRoAAAAAXNSR0IArs4c6QAAAARnQU1BAACxjwv8YQUAAAAJcEhZcwAADsMAAA7DAcdvqGQAAAGeSURBVEhL7ZZNjoJAEIWLuQF6BD2C7gyJG+QGnkHC2oU3kAMQbyBrE72AcUHcQOIWF6z1DD28mi7DOMDI+DMbv6TTTVXTj6qu7mCoHHoyH7p/Km+RRvyPyGazoX6/T4ZhULfbpSRJtOeLMAyp1Wqx/3g8ausvoISF7Xarer2eOp1OarlcorTVeDzWXnWxSbuV2pnFxeI45vFisVDr9VqNRiO230KtCBbCwoiw0+mo2WymPc2oFZnP5yximqaaTCba2pxaEaQFIogC+/RXakv4cDjoEVG73daj75zPZ644x3G44qQqfd/XM3K02A9QSUgTosC0qkgkpZJOzENFwoY1QGkkOBuu69JqtSLbttkWRRH3ZeRlT0EQ8BgRe57H4yzLuL+IIDwsDIHhcEj5l9FgMCDLsti/2+24v2Y6ndJ+v9dPFXA8OQgXj2jFM5CmKdtk81EMxQNaBt5HqvEuuIjImYDYdf4l71X+IvKx+BihtoSbIgKy4cLDRKoEwENEcJ9VCYC7ReTixL4VwX0nBXS3iBy8siYi71+iRrxAhOgTOYqcyAT/lTYAAAAASUVORK5CYII=;" vertex="1" parent="1">
          <mxGeometry x="144.18" y="325" width="11" height="11.88" as="geometry" />
        </mxCell>
        <mxCell id="6H7zfrlUpkptx7yJUmZI-40" value="" style="shape=image;verticalLabelPosition=bottom;labelBackgroundColor=default;verticalAlign=top;aspect=fixed;imageAspect=0;image=data:image/png,iVBORw0KGgoAAAANSUhEUgAAABgAAAAcCAYAAAB75n/uAAAAAXNSR0IArs4c6QAAAARnQU1BAACxjwv8YQUAAAAJcEhZcwAADsMAAA7DAcdvqGQAAAGMSURBVEhL7ZbRjYJAEIaHe/cBS0BLoAJfpARaQDuwAxswdqANQAM2gA/GJzrAGvb41h2CcJwG9ZJL/JIR2B/m350diJ6pkDfy5Y5v42Nwl781OB6PEsexeJ4n4/FY9vu9U66gT6dTq7e1XmhTKMvSTCYTk+e5KYqC1jW+7zvV2HGuGScOh4NTfqc2aDOfz+tEap4kSW3+KL17MJvN7PF0OslyuZRq9rLZbCQIArJb7SGuPl2YOTJlCcPQrmIIvQYkxICg/kPpLdH5fHZnIqPRyJ11ybJMFotF3V0EnUjHWZzRDdoxlIZb0jR1Shd0GoDNBy0tY9AxoDQkXq/XZrfb2ZtXq5VTu/w0Ae1AsL+44qjJCdCW1OtHIAerxwSsgc6UQGx2DMaMUzaCB5u6whgrYTK8L3qPNaAcJOHhdsfwEKZ9OmjdCSZEvhuDV0HS7XZrjbSsLzVQKBEmrOypzzW9HkWRXC4XN3KlKqk7q3Cmg9DaNzeVMX2H4CkDkrKhJMOIaG/y52/LXf67gcg3NM1BmLKLoO8AAAAASUVORK5CYII=;" vertex="1" parent="1">
          <mxGeometry x="246.91999999999996" y="324.17" width="10" height="11.66" as="geometry" />
        </mxCell>
        <mxCell id="6H7zfrlUpkptx7yJUmZI-41" value="" style="shape=image;verticalLabelPosition=bottom;labelBackgroundColor=default;verticalAlign=top;aspect=fixed;imageAspect=0;image=data:image/png,iVBORw0KGgoAAAANSUhEUgAAABkAAAAbCAYAAACJISRoAAAAAXNSR0IArs4c6QAAAARnQU1BAACxjwv8YQUAAAAJcEhZcwAADsMAAA7DAcdvqGQAAAFUSURBVEhL7ZbRjYMwDIbDbQArwAYwA7ABrMAK7QQwARswARPwjAR70Bm4+3zJCWhBQMXLqZ8UJdjBf+Laba3xB3UxX3q+lI/IIT4ih5iJFEWhPM9TlmWpOI7V4/HQnl/u97v42HMImhHyPB+zLJM1M66yLOUZjI0RRZG27uNPZErTNLNgiNm2Lfbb7SYHOsJLEUCEwF3Xybqua+05zqoItzBCVVVp6zlWq8v3fZnDMFRpmsr6LKsibdvK7DiOzHvgMFTfE/pGM6ikIAgkXcx7oDjY/yrkk4X88zkMwzC6risvsd6C4mCvKfMlYuFDJjiDTaaSzEtblcUBuC03obRXRcyJGdMeMKJJksgzvmWP0DemnzZFcJCiZQCYlvLSzw1NamFT5AwERmCayqkIt+cbAk6LmIBb422RV6yl65Lfk77v9Uqjxd7G9BchGSZV8F/+3Cn1DXMVVCkDHeIlAAAAAElFTkSuQmCC;" vertex="1" parent="1">
          <mxGeometry x="143.97000000000003" y="284" width="11.11" height="12" as="geometry" />
        </mxCell>
        <mxCell id="6H7zfrlUpkptx7yJUmZI-42" value="" style="shape=image;verticalLabelPosition=bottom;labelBackgroundColor=default;verticalAlign=top;aspect=fixed;imageAspect=0;image=data:image/png,iVBORw0KGgoAAAANSUhEUgAAABgAAAAZCAYAAAArK+5dAAAAAXNSR0IArs4c6QAAAARnQU1BAACxjwv8YQUAAAAJcEhZcwAADsMAAA7DAcdvqGQAAAGtSURBVEhL7ZYxbsIwFIZfujPAEYCFFSEOwEIm1uQAWRBjpAhxAy6AuAFcAAllhawoDBEsrEzkDK7/hx1FSd1SUipV6idZL/Yz/mO/3xGWkNALeVPxZfwLfMnvChyPR3JdlyzLokajQev1WmXuIN9utzlfzBmBTcHtdhOtVkvEcSwulwusK+r1usoKHkcf42i73U5lPicTKDIcDrOFtPh4PM7EH8VYg8FgwDFJEppMJiTfnhaLBTWbTazOuYe465TBmyONY+n1eryLZzAKYEEIoOH8vwOOEUcMjEd0Op3UE1GtVlNPZWzbZlflm6yXyhruAew4Go1IHg33z+czx2coCaRpSp7n0XQ6Jd/3eSyKIo4m5vM5Fz7fttst51hgv9/zBcLi2DIIgoD6/T4/h2HI8SmkmlitVllB4Zq8Y+B/jKPQaChePo8+5uh5+D3ui57DAnKLnMTkomM2m012gz/KYyG4RrNcLrO5gAV+GsdxWATCRptWodvtcrxer9U+1zAHfA9z5DkcDhw7nY7cRwX05yRfVF2D2WzG/UoCOGMsrh2Ehu8WTKP5639biN4BTnclw4UihhkAAAAASUVORK5CYII=;" vertex="1" parent="1">
          <mxGeometry x="279.71000000000004" y="405" width="10" height="10.42" as="geometry" />
        </mxCell>
        <mxCell id="6H7zfrlUpkptx7yJUmZI-43" value="" style="shape=image;verticalLabelPosition=bottom;labelBackgroundColor=default;verticalAlign=top;aspect=fixed;imageAspect=0;image=data:image/png,iVBORw0KGgoAAAANSUhEUgAAAFQAAAAfCAYAAAB59OpuAAAAAXNSR0IArs4c6QAAAARnQU1BAACxjwv8YQUAAAAJcEhZcwAADsMAAA7DAcdvqGQAAAQtSURBVGhD7Zo9TjM9EICd7wb8lBQIKCiQaICeCi6AoKQEDkABNQWcAE4AF+C3AAkaQAghQQviACCOkHef0U4+x7F3N95NNkUeyfLGP7vj8Xg8NjSaCWZIZfyX5kMqYqjQiqlNob+/v+bo6MiMjo6mJfVxcXFhNjY2RJZGoyH5zs6OyNg1+NB+c3p62pyensZ3S6qTh4cHkWFhYaH58/MjZYeHh1K2vb0tv7sh10LVkmZmZszX11daGs/q6qq5v783Nzc3JhlEWlo/V1dXZmxsTJ53d3cld8d7dnZmFhcXJQ+SKtbL+fl5c2RkRGaPZxfqeIWmIqgVwMrKSuF+RYiRJwT9kc9FVxfp7e0tLf2f4FfpyEvzzH59fT348TyqViiUkUfRJe8zIsAoMDIm0FWqdzTqVxAuD/04ebf0QqFl5AE1pL29vbTED0rFSlHq5+dnWhpQqG4YdsMQqpTQbGbRC4WWkafoqlR8htcxmm5fSluS7RuL0guFxsrT7bgVlj79dOl3jMZtkAVtaItFx1C1QmPl0X4xYZI7EW2jYYlTiV8owvHxsVcQdRmaWBouDEJ3ZV99DDHyqC9kcm0oL6IHV2dtClVtuy8PoTsq/WzUt/jqdNPwpdiNRImRRychlIqgbcXS0zJBB1vU9HXmeZHCzOI2qLPL+0Fd8tgbYdtJ6fv7W/LJyUnJs+AUkZi7SUzdzM/Pt8o4CXHieHp6apX3g0GQ5+Pjo/1yxD1qZfH8/Cz50tKSHE9PTk7kKLm2ttZ2jOsXgyJP9G3T+/u75NfX12Z8fNxsbW2Zv78/k5i/lPebQZGnTaFTU1PpUz5cbkDiN/DDLcEfHx8l7zeDIk+bQtV3vr6+Sh6CJfXy8iLPs7Ozkm9ubkp+d3cnuQ9cCjdX3Nhw70jimfvIMsTKA/Td399v3YWWkWdubi7ZmiyKhk0ahrBzKhqPkULwXuo1dKGP7sw8xxIrDxBq0Y/2RAREOPSxY9U89DsdYVNRITS8ci9PVDkhYVCoe+mg7wr1UXmyBhgrjyggqbdjU5RKWZ5RKfoODew7fCg7I2SZ/e3treTLy8uSK8mAJL+8vGwtJZa4wm57cHCQ/qqOWHnYwGBiYkJyIBpAB1qXh/po/oQiiFotdNlnBffUk9yZZ3Z1WWMdnEKyoD0zS+AdIvQtm1h5tM5Fy4u4IWS3v+1d27pUyvi1PBgswqDQ0Hd0OWUpvAx5Cs2aRKCedrRXvAr1NawSW5lZx0F8Yl6bMqjikMcmVG5DHYbnGoRXoVBk6cdQVJkISbterhI2SMboWqIqNETWGMK9Ejjs04nOeeZflF5bXTeo0di+FWVR5kYMCn2wTJJvDJkKBT5AWMILylqLXpW5k8P7SXXgWprGoT5lYWC0t8Msl1yFVgmCI6wv1aVQjARrVDnKrsbhf99VijH/AC/cis37UWgWAAAAAElFTkSuQmCC;" vertex="1" parent="1">
          <mxGeometry x="262.39" y="420" width="34.63" height="12.78" as="geometry" />
        </mxCell>
        <mxCell id="6H7zfrlUpkptx7yJUmZI-44" value="" style="shape=image;verticalLabelPosition=bottom;labelBackgroundColor=default;verticalAlign=top;aspect=fixed;imageAspect=0;image=data:image/png,iVBORw0KGgoAAAANSUhEUgAAAFMAAAAhCAYAAAClWJfKAAAAAXNSR0IArs4c6QAAAARnQU1BAACxjwv8YQUAAAAJcEhZcwAADsMAAA7DAcdvqGQAAASwSURBVGhD7ZrLLjxNFMDL9wIiPIBgh7DAQpBYuMQLEA9AsJRY2FuQ2JNYu+yRsJG4hUiERGJFRLByeYT59+/oM19Pqe7p7mkzFvNLKqe7qqb69KlTp05XpibnYapkwn++rJIBVWNmSEWMeXp6akZHR83KyopfUxkeHx9Fh+7ublNTUyOF6/39fb9HQoiZ5eLh4SE3MzNDjJayvLzst1SGkZER0WNra0vu0a+5uVnquE5KpGd+fHzIzLW0tMgslgLeODw8bAYGBsze3p5fW3kWFxfNxMSEXDc1NZmpqSm5fnt7Ewnb29vischIfKP+wHvhXF1dXa6rq0uug6ytreW9ixLXw97f30WenJwk+l0x0urjgt8yBjoGwXvxWsrNzY1fW4jTmPyQAVmSYTCgKm8/uBhZGxNK0UdhstWBXNBOG31cBv1hTH3R8fFxvyYcVT4pv2FMSKsPBA0VFS/ph3e6+v14ctwArAYJm8UofsOYpehTzONswhyuYAMiwHpGNN7ylmAcxfn5uUg2lb9AWn3YZEnTeO+joyPT0dHht4TT19dnPOObnZ0dc3t769daeebq6qrI6elpkVFcX1+LbG9vF1lp0uozNzeXyJDK/Py8yPX1dZGC76GyrLnF1eNAP/oHw4FuXFrI42xYUl46Iu0sE+6zII0+mgWwbIMQfoqFIJe98sbUB7sMYKM7J/HVRhNhYpBtKOrDSimk1UcnwFXixHPtq3E2v8yfn59FFouVcH9/L5K4EYSYe3BwIInw1dWVqa+v91u+4flhpRTS6vP5+enUhbKwsOD3CsebKJGvr68i88Z8enoS2djYKDKK4+NjkYODgyKB2DE7O2s8DzdLS0t+bXmotD53d3ci88ZM8rl4eHgosrW1VXYzdsONjQ0J4vppVk7+ij4Fu3kcSCXY/aC/v990dnbKUvLiVaLdMCv+kj55Y8aJlXB5eSmS+ERs8XZCuVfvKDd/SZ+8MTVWar4WxtnZmUhOUYAEFi/4+voqSGBdEMc4geLcEJnFeWZafWgjpqo+FEJCsXdw0dbW9n3hzaYQNzXSVIP+ip5RRqUTdk6n96V+UqbVh3ZSI01r9BPRlV6FQX+KjpE3piahlCjsASDORKC4fQpF7ke9K3HHEMXGhLT60G4fLerExIHn0TeYtBfETM3Two7tOeAFb4CC4D40NCSSwM+GQD+WHdfAPcvOTrv4jqZe88SkpNUHvHc3Y2Nj/l1yLi4uRAazhYLdXL83d3d3RdroYUJPT49IhWTY8wZ5qYaGBrO5uSmpiSbJ+rve3l6RSm1trciXlxeRSUmrjwsMrgl+HBgPJicnRQrfDvo/xAyqg9+4paJL1vUNTL0rtvHdTpu9FH8DlizLlbATB42vdhj5YcywjqWgRrMNE1av8SjqpD8rgoaMc+hCHxyO39gO54y2GsCzehmMxXi2B6oxbY/luez2v00aQ+qmyW9tQrcuDKAPsl82KZop2CfTqlglUA+La0gcjP4UlyEh1JjAQ/AeBig1huoZJkqBen85PNAFE8tE2oYkvNnOg2NhdNU9jEhjZglKY1BeACMyQZUypMbksJJ2JVb/BZchiU+NqoRTNWZmGPMP++BdnqkmtDAAAAAASUVORK5CYII=;" vertex="1" parent="1">
          <mxGeometry x="142.44999999999993" y="266.85999999999996" width="33.05" height="13.14" as="geometry" />
        </mxCell>
        <mxCell id="6H7zfrlUpkptx7yJUmZI-45" value="" style="shape=waypoint;sketch=0;size=6;pointerEvents=1;points=[];fillColor=none;resizable=0;rotatable=0;perimeter=centerPerimeter;snapToPoint=1;strokeWidth=0.25;" vertex="1" parent="1">
          <mxGeometry x="228.97000000000003" y="280" width="20" height="20" as="geometry" />
        </mxCell>
        <mxCell id="6H7zfrlUpkptx7yJUmZI-46" value="" style="shape=waypoint;sketch=0;size=6;pointerEvents=1;points=[];fillColor=none;resizable=0;rotatable=0;perimeter=centerPerimeter;snapToPoint=1;strokeWidth=0.25;" vertex="1" parent="1">
          <mxGeometry x="262.69999999999993" y="320" width="20" height="20" as="geometry" />
        </mxCell>
        <mxCell id="6H7zfrlUpkptx7yJUmZI-47" value="" style="endArrow=classicThin;html=1;rounded=0;entryX=0.683;entryY=0.737;entryDx=0;entryDy=0;entryPerimeter=0;endFill=1;exitX=0.954;exitY=0.2;exitDx=0;exitDy=0;exitPerimeter=0;" edge="1" parent="1" source="6H7zfrlUpkptx7yJUmZI-46" target="6H7zfrlUpkptx7yJUmZI-45">
          <mxGeometry width="50" height="50" relative="1" as="geometry">
            <mxPoint x="318.97" y="300" as="sourcePoint" />
            <mxPoint x="168.97000000000003" y="340" as="targetPoint" />
          </mxGeometry>
        </mxCell>
        <mxCell id="6H7zfrlUpkptx7yJUmZI-48" value="" style="shape=image;verticalLabelPosition=bottom;labelBackgroundColor=default;verticalAlign=top;aspect=fixed;imageAspect=0;image=data:image/png,iVBORw0KGgoAAAANSUhEUgAAABoAAAAfCAYAAAD5h919AAAAAXNSR0IArs4c6QAAAARnQU1BAACxjwv8YQUAAAAJcEhZcwAADsMAAA7DAcdvqGQAAAILSURBVEhL3ZYxsgFBEIZnHzHFEZARCiUigVhJhVxA4AYcQDkBLoAqiYBASAlEbiATCPfN37rXmp2nsPOC976qqZ7t2Z1/pqd7d73r9eqrmHiep5LJpEokEuyJ4vka7v8qX2ydMJ1OVTab5SsD7Cgu6/Xaz+fziAw1G7F3NJ/P1Xg8VsvlUvV6PfZaYEEn9Pv913c0GAwoi9AKhQJ74xMR6na7ajQaUb9cLpN1gfWM0uk02Wq1StYFVqHD4UC2WCySdYFVCBkEKpUKWSdwUgScz2fKnFqtxh7f3+12fiaTCepEnyGP3DmdTvQMxmezGXvvRIRQfLhZ1wR7bsgknU6HPXdkAWZDugsRIamFyWTCntuOzAffJSIkK0cogIQtLPwJESGIYGKcFc4CfVvM3+VBSEJktp+QxUgU0HSRWxf2kN7b7ZasPgvMrvQEdL3ZbMiaHI9H1W63VS6Xo/t1uMlfr9fVfr+nvvAgtFqtyJZKJbKtVovsYrEga0N/HtRwOKQ+BBuNBvUvlwvZANoXI98UhARITSEcr4L0lzMOEwghy2yT4hp+nB9qrNls8sgjGIcIFou+SSCE9MWEZqFKemMME5krBeFkwD1PhVyAHSMCWJjUoeBUCCC1sTPzLWJ9e78K0h5/PmFSqRT3DFjwI+S9iJABhAvJ4jx04UyDIBqEbMnwN/9Un/HfhJT6BomYfiiD2kxeAAAAAElFTkSuQmCC;" vertex="1" parent="1">
          <mxGeometry x="308.97" y="459.7" width="17.61" height="21" as="geometry" />
        </mxCell>
        <mxCell id="6H7zfrlUpkptx7yJUmZI-49" value="" style="endArrow=none;html=1;rounded=0;" edge="1" parent="1">
          <mxGeometry width="50" height="50" relative="1" as="geometry">
            <mxPoint x="318.45000000000016" y="455" as="sourcePoint" />
            <mxPoint x="318.45000000000016" y="445" as="targetPoint" />
          </mxGeometry>
        </mxCell>
        <mxCell id="6H7zfrlUpkptx7yJUmZI-50" value="0.02" style="text;html=1;align=center;verticalAlign=middle;resizable=0;points=[];autosize=1;strokeColor=none;fillColor=none;" vertex="1" parent="1">
          <mxGeometry x="292.78" y="480" width="50" height="30" as="geometry" />
        </mxCell>
        <mxCell id="6H7zfrlUpkptx7yJUmZI-51" value="" style="shape=image;verticalLabelPosition=bottom;labelBackgroundColor=default;verticalAlign=top;aspect=fixed;imageAspect=0;image=data:image/png,iVBORw0KGgoAAAANSUhEUgAAABsAAAAiCAYAAACuoaIwAAAAAXNSR0IArs4c6QAAAARnQU1BAACxjwv8YQUAAAAJcEhZcwAADsMAAA7DAcdvqGQAAAHzSURBVEhL7ZfBjcIwEEWd7QBRAgVwgQY4AB1AC7RAB1ABVEAFSNyRkLjBiRNUALSQ5Q2eyHGcEDZZpJX2SZax4+GPxzMORPED8yG+bP8R/sVq4W+J3W43s1wuTbfbNVEUSRsOh+Z4PNoVDqR+FWazGaUTLxYLGW+327jRaMStVkvGLrWITSYTO3rCGAcOh4OdeVJZLISK+WRmWKRttVrZ2fKcz2cJo79byIhdr1eJdygMr8C20+lI47NPMIyI4d27IIJtSAiCO2NXg8HAzpSDsOFgUTQyYuv1WsTIsrJMp9OXQpARwxAx6kXR7KL54VXn6F1Go1HqOyAjRvgwduOOkQr53msyhdpLMRb51Y+XHP672emTEtMduDXC57xUfpfURbzb7aRvt9tykXK53u93s9lsTLPZlGeVsKIC4WLKbUVZSSTYuZ4bZ8q4VJ2xGCPQkBbVG8/cpOHmxwanQyRiGLCQ81HU4zxPEfPvzyIHkzM7nU7S9/t96eHhofT7/V56H85yPB7bkTGXy0X6Xq8nfQYrmhSuW5xasISF3bHGrx3gGTskElwKeSRieSFTJ3ju3xKgZ6tr9I0dIpUgVcBJ/YmQt7vaxBQSDMEQlX5dzefzJCmUwuK3oj8Cc00e0IT6lTCSDPqWoJEgRTfO/1+mGjDmG23pyqRTHstDAAAAAElFTkSuQmCC;" vertex="1" parent="1">
          <mxGeometry x="93.97000000000003" y="240" width="17.18" height="21.64" as="geometry" />
        </mxCell>
        <mxCell id="6H7zfrlUpkptx7yJUmZI-52" value="" style="endArrow=none;html=1;rounded=0;" edge="1" parent="1">
          <mxGeometry width="50" height="50" relative="1" as="geometry">
            <mxPoint x="113.84000000000003" y="250.51" as="sourcePoint" />
            <mxPoint x="124.10000000000002" y="250.51" as="targetPoint" />
          </mxGeometry>
        </mxCell>
        <mxCell id="6H7zfrlUpkptx7yJUmZI-53" value="0.025" style="text;html=1;align=center;verticalAlign=middle;resizable=0;points=[];autosize=1;strokeColor=none;fillColor=none;" vertex="1" parent="1">
          <mxGeometry x="43.97000000000003" y="235.82" width="50" height="30" as="geometry" />
        </mxCell>
        <mxCell id="6H7zfrlUpkptx7yJUmZI-54" value="" style="shape=waypoint;sketch=0;size=6;pointerEvents=1;points=[];fillColor=none;resizable=0;rotatable=0;perimeter=centerPerimeter;snapToPoint=1;strokeWidth=0.25;" vertex="1" parent="1">
          <mxGeometry x="148.98000000000002" y="240" width="20" height="20" as="geometry" />
        </mxCell>
        <mxCell id="6H7zfrlUpkptx7yJUmZI-55" value="" style="shape=waypoint;sketch=0;size=6;pointerEvents=1;points=[];fillColor=none;resizable=0;rotatable=0;perimeter=centerPerimeter;snapToPoint=1;strokeWidth=0.25;" vertex="1" parent="1">
          <mxGeometry x="307.78" y="398.99" width="20" height="20" as="geometry" />
        </mxCell>
        <mxCell id="6H7zfrlUpkptx7yJUmZI-56" value="" style="shape=image;verticalLabelPosition=bottom;labelBackgroundColor=default;verticalAlign=top;aspect=fixed;imageAspect=0;image=data:image/png,iVBORw0KGgoAAAANSUhEUgAAACEAAAAcCAYAAADvANYcAAAAAXNSR0IArs4c6QAAAARnQU1BAACxjwv8YQUAAAAJcEhZcwAADsMAAA7DAcdvqGQAAAHaSURBVEhL7ZfRbcIwEIYv3QBGAN55gBmADZgBRkBiAAZAYgNYABiABVgAJgAhsUCa7+qjJiRuSi3RBz4pcmI7vt/nuyMkaYa8mA/XvpS3COMtwvj/IjabjbRaLUmSRAaDgev9xh9frVau9wmoE0Usl8t0OBzqfb/fp5aki8VCn2G9XmufXbvdzo38nlIRGD6dTnqPIAzRB4fDIa3VauloNNI5jP2FSm9jFEMYhm63e/NSDCpvodlsqpDJZKIizEsxqCyCnZs39vu9641D5RTNPKFtr9eTdrut92Ucj0cZj8dSr9c1cyy7SjPIiQnCzpnKxVGEYC7eYp55jJjimfdns5n2+fwogrNnUdLThISwYyOFffLB7RNcEQF+Jli9CNWE0Bz6ufI8xATnyRnSTqdTuVwuMp/PdazT6Wi73W61Bc76fD67J5FGo6Ht9XrV1mA9yERqe4cTc8OvhPlMsDHSFS+RrhQsH4sJ5pg3OAo8lF/PeBBB4JihohcwbAKLggysotpmbH7RehCOsifAEBsglhADfnbwE5AnugjLjvyuQ9kR/WuboIaiZcvGon/UZG7Xlm8NH8sgq7x34ImYWAYRA3YkHEVZEYPoIoDUNKNcxAHPZUXu/Q/sC5FP3TV6MzXyoRAAAAAASUVORK5CYII=;" vertex="1" parent="1">
          <mxGeometry x="143.03000000000003" y="243.62" width="13.05" height="11.07" as="geometry" />
        </mxCell>
        <mxCell id="6H7zfrlUpkptx7yJUmZI-57" value="" style="shape=image;verticalLabelPosition=bottom;labelBackgroundColor=default;verticalAlign=top;aspect=fixed;imageAspect=0;image=data:image/png,iVBORw0KGgoAAAANSUhEUgAAABwAAAAfCAYAAAD0ma06AAAAAXNSR0IArs4c6QAAAARnQU1BAACxjwv8YQUAAAAJcEhZcwAADsMAAA7DAcdvqGQAAAG5SURBVEhL7ZbNbcJAEEbX6QBagDsHqAHogBqgBCQKoAAkOoAGgAJogAKAo08g6MDhjfZLNsa2kthwSHiSNfb+fTs7MwtRcsM9kTdvn8ZLsHL+oeB6vXbNZtNFUeT6/b5v/STsXy6XvvUHUIdisVgkg8HA3nu9HvWZzOdz+4bVamVterbbre/5Pl8EETmdTvaOOIvSBofDIanVaslwOLQx9P2G3FkIsCgi0Ol0PrwvQ+E2G42GiY7HYxOU92UoFMQjebnb7XxrOQrL4uah2W6361qtlr3ncTwe3Wg0cvV63TIYy/f5fPYjPF74Djyim4fjLIKxnALjiD2QwWoLyRQkVgymJCRahGKdjvF0OrV2Ml7crcSkMCNVj3k1p2xW+YQwh74wuy2GnD/njp1MJu5yubjZbEaXa7fbZjebjVngBlJs4jg2W8T1evVvN1ANb5B0RqqPY8N7SoTiD9G8NPIw9N4EddYsmpX+iGhRxqZhA/TrFgI2SmgyBcsiz9mQNs63rsfwRCoRzCMrSx/6r42fMdjv92YNk30AiiuxDKlckKSj7ohneJSiUkFElDC64tK8/nlXzl8XdO4dk7nXm89i6x4AAAAASUVORK5CYII=;" vertex="1" parent="1">
          <mxGeometry x="325.58000000000004" y="404.35" width="10" height="11.07" as="geometry" />
        </mxCell>
        <mxCell id="6H7zfrlUpkptx7yJUmZI-58" value="" style="shape=image;verticalLabelPosition=bottom;labelBackgroundColor=default;verticalAlign=top;aspect=fixed;imageAspect=0;image=data:image/png,iVBORw0KGgoAAAANSUhEUgAAAFsAAAAgCAYAAAB90wSbAAAAAXNSR0IArs4c6QAAAARnQU1BAACxjwv8YQUAAAAJcEhZcwAADsMAAA7DAcdvqGQAAAV5SURBVGhD7ZnLLjRNGMfLdwMibkAcFkJiQdjYsMDCwkKCuADhEtwBFyBiLWFpI3FIWDgsRIRYsCFiTSxcwLz9q6//nVLT3VPT0++MxftLSvX0VFc/9Ryrhqm0mI+Pj8rGxkbFmJaLkoBMe3t7lYWFhUpHR4eVjcbn+/v7eFT9tHSFKNldzG9Bxl9dXbWKh+3tbXsPeXWvXv6LJmg6Dw8Ppre317y9vZnd3d347u+ip6fHbG1tmc7OTvt5ZWXFjIyMmK+vL/P09GTv1U2s9ExeXl6shaOXx3caB8+4uLiIP0Xh9cs8O4vp6Wkrpys7HB4eViJDWO/P8/rcFSqceAkT+rgpgJY2JgQ9XyYKezWU0Sg4XFoa4TM5nu8Y4xtDZK4Qb0ZIFJ6HxtGIgiLo+bJBHs2NnI0g4+U5FErHqIxD+T6pKwxVNMj7sWpReJ72N9DcKKsoeCpzpCnQx1W4b5iqFTKAgaSOENbX1+14tkVF4Xla2bBwzV10y8ZzOFKIogURxTN+yqlaITkH4bLyjo+sGBIFWUghZSPHKTp3EUULOaGrlx9SMCkD6tl5aDGhxklDc5SNUlxolLrgkUUVDaoXrnf/2GcfHBzYPkoJtq/F5eVlfGVMf39/fPV7ODs7s/3w8LDt62F5edksLi7a5sLnzc3N+FM23d3dyb789PT0/5tW5TF8pIV6qTzHjwRFiNvc3CW4527Rim4ds9C8vncqVaoR8i7+ttFvoSnTr2eJslVxaaFbOCZxJ3PRAYCWFor6Lq0VCXsf8q3m84uju1Zqju8IvjH8FppaZDQ5Y6LsIsWEfMR439LKd43kvEZxvdPHzeVpEVcWrlEhkUQCpAmXhntgcNMOwuMtKLrodqsMdFbwo0QprtFDTgiustFF4R+ibm5u4itjxsfHbf/5+WlmZmbs9e3trRkaGrLXreDk5MT2k5OTtof9/X2ztLRkIq+3PzI1k+/vb1NY2Y+Pj7an4gIL6evrs9dHR0e2GrcKjB5Fnr0eHBw0r6+vdheBoiPPtr/gtYTY4+tOIzrM+M2v7GkQyoSxW4gIdzcdNYJbf/wWkqMZwzpUk5AzdAfi4qeRRLP1FkiNpRCBjKXKm4UEwFja9XBPCysjz0sW5gQVbO6FFGwMzzokSz2/Fbm4yoZEs+4XtbZ+vsXALZh5z+tZf0za8bYoKIu53C2pFFarMKqA+kZRFNbSjYvvgEnOVpGD5+fn+Cqd6+tr20fekhRBnZggOTGlwHui91bl9Pb29h99IxwfH9t+YmLC9jA7O2t7akseOkWPjo7aXkxNTdne3RjUgv9EgfTyo0DqmH51dWX7LO7u7myfJdD5+bntQ6Gg7ezsWOPNz8/Hd3+ytrZm2trakt1OFvzLTQwMDMRXxoyNjdme47M7xke7GN8Zurq6bP/+/m77EDTX3Nyc7X8kaIVQrbyr/OeHvC0C0X0a4UbKIDfTp8EY3sn7CP28EFVI0vLIO8zoxEsqIY8zp78Pz3pWNc0fn4V0ga5UlKtmVW7KU5AEShuj3EtjcVm/d7jKQyCeC1F2LUdQbk5TCgrQ+uiZ03+nZPJRrQlVdlqNqJpVFsQjmwFWxxtROE0F18f1yr8J76D5SNkh75dDul4N1bNGyCpYvlnIc7MWI2PkeX8ZIAPNR+mplk5QLo7KWD+qU5UNzVZ4XphKlpA9cqNIUX6EKT1mpUVwFZ0ma6ayQd6GAvJeUg8I4e5/hYqz79ksgPdn1ZCy0Zp1WBMokchKAxmRn++pBVm6ylU2ELYooFZhCsVNF8pnKJL5m5EmaoFMSlkysFJIVmQxDmMwTmtKo6ayy4bwRNEKNxqK5l6rFS2QQwWZhqxlRHYbf6IJ/9EECv/E+o96MeYPnAIoFdBnYXoAAAAASUVORK5CYII=;" vertex="1" parent="1">
          <mxGeometry x="304.19000000000005" y="421.54" width="33.39" height="11.74" as="geometry" />
        </mxCell>
        <mxCell id="6H7zfrlUpkptx7yJUmZI-59" value="" style="shape=image;verticalLabelPosition=bottom;labelBackgroundColor=default;verticalAlign=top;aspect=fixed;imageAspect=0;image=data:image/png,iVBORw0KGgoAAAANSUhEUgAAAFwAAAAjCAYAAAAZm21MAAAAAXNSR0IArs4c6QAAAARnQU1BAACxjwv8YQUAAAAJcEhZcwAADsMAAA7DAcdvqGQAAAX5SURBVGhD7Zq9Lz1NFMfH05OIf0DQkRCvjYYEkSgkCkQjUQiFRiLx0uhQKrwk1JQa4iVReIu3gkRCgYgoicIf4Nnv+c2XuXN3985de+9V+CSTs3dfZs6cOXPO2SXv00P9kTX+0/KPLPFn8CyTc4MfHR2puro6NTc3p8/knuvrazU5OSl65eXlSSsrK4tHR8TwXHB1dfXZ1taG/CFtdnZWX8k90KewsPDz8PBQfj88PHzW1tbGomdOPBze09XVpfr7+1V3d7c++7tYWFhQjY2NclxSUqKmp6fleH9/X2RUQg3++PiohoeHZTvFSXt7uzo7O1M9PT2qurpan/09eI4oupkUFBToo0S2trYk9CwvL6u3tzd9NphAgyNelZaWitHn5+f12W8wAOMbGgZ1BZ5TVFSkf8UPYrCpG5qLMcJ4eXkR2dzcLJI0NDSo0dFRNT4+LsfISaH8iyyJDA0NOcUrxDbch4ZnooAxXMZKl9fX16+46zmOPhsN9IU+0F8Q5nhra2v6bDJJHo4Qsri4qDwDqLGxMX3WH8Q2UllZqY9+B9hB3EWeIURGpa+vT3lJVG1vb+szyWAsXMdYvb29Emp80YYXNjc3ZYVQPbiAVcX9aKg6opApDwf0uKWlJX0mfbBz0Q/m6gJ2PSocNL9nEjx8ZGRE5NTUlMhUIPGR3+bhiNmXl5dyXF5eLjJdsNsvLi7Ec11zDna9t0jq/f1dra6u6rPffBl8fX1deasjiZLlUCpubm5EejtC5G/i9vZWH/1L0umCoiFdY5OBgQGRMzMzScn6y+AbGxsi06mLWZPW1NSI/E2cnJyIjBK/UWnAWCsrKwnGZvWTCng5xoWX7+3t6bMaHVq+YjHfrlzgM3ZWRkbnNbSJiQl9JRHEfcZZb6El/sUF32Lt6okVGBvGN2FFYt5jNxcwZ9yLeZnI0zAyO3OdNIzFZ+yEafbnl3CYKINaOoseBJIW+vJLmBwH99i6w3l43a+5lpgY1+9+MTirEzRX2KHfMzQovMw1u8eJ6Qz24tEZYAjb2HFiOp2J/DI9zhVuTbuEpIfYWzmbmF5qAgPDq/12XdyYBjcXNvDVPhW7u7sizVddVDoo+j3vl48/ueLg4ECkWT0h4TU1Nck3kiiVx0/4+PjQRxG/h6PUQQkJKioq5HsLJgJje96lBgcH5VquQDkHUD1BV5R4VVVVoiMcIZvGTgJunm5IMWO+3Vy2Ku5BFmdiQzyN600Tfds6sUHvMPAschMqC+oGGaWCCgopYuF0kyYXCMoAKEoF7RLRD8R9M2kxH8RhdL+JBpWINpwX7qPjsDjgXF0JTZrmRZeV5ATMGpNGSzUpJjR7YbAAruOHYTsD4Jh2iWaDZ/3u4bsC7OQK9bD7kxhuvvre3d3po2B2dnZEIgmRjo4OkUicYfCNtr6+XiRpbW0VeX5+LjIqfPtlf6ClpUUk8g6SZxD4Onp/f69/fcOYn5+fL9KFp6cnkd5iiSRfSdPzVpHHx8cigzAVNj8K4eM7wOts2KRY3ZifdkFxcbHI5+dnkSZIyvxDQqoP/Fww8y9JMBgnfnp6KtIVzAUOhoonnQ90nGdnZ6fIL7SnO2+7sBcehBicZwzEtkL4MQl6NtWnYT6HPoNAzOZ99van3pwf5otjxmob9IWxEJqQ4IPu84N64Fn7uYSZQwE/ZU0Yq/0Mg4HYByQUtmMyrqHZMI+kMrgd+03oNH79Y+LoG9dgCMyDSdWG96FhHlisdAwels8SNKOXIUlkCk7Ehgb3U9L03J8m1XTAWPwI5fp2imdwv593g6SZc3XCtu5PoOFsuOX9xuW1oK+OmYYeH7a7AAzMiiao5k+euUcmjU6F7O1MT7IVxX3wFlcPywSwQyp7mMYOWxhfgwMOgtUNWq0osF94rQmUhWFtoDwcIBvGxqL7GZUO6GdI6IXz0B3xPpWtAg0OEI8wGDqKCygI5dCYnBkyUm3ZTMPQYToDdMI5OIQfmAOu4RkXpwg1eKbAQrKE5GTi3EVRgQ7Qi5UWdYPXx7XD/v4hP8tE/h7+RxSU+h82uT5cZ9IpyAAAAABJRU5ErkJggg==;" vertex="1" parent="1">
          <mxGeometry x="141.12000000000006" y="227.1" width="33.92" height="12.9" as="geometry" />
        </mxCell>
        <mxCell id="6H7zfrlUpkptx7yJUmZI-60" value="" style="endArrow=classicThin;html=1;rounded=0;endFill=1;entryX=0.721;entryY=0.603;entryDx=0;entryDy=0;entryPerimeter=0;" edge="1" parent="1" source="6H7zfrlUpkptx7yJUmZI-55" target="6H7zfrlUpkptx7yJUmZI-46">
          <mxGeometry width="50" height="50" relative="1" as="geometry">
            <mxPoint x="282.97" y="420" as="sourcePoint" />
            <mxPoint x="248.97000000000003" y="340" as="targetPoint" />
          </mxGeometry>
        </mxCell>
        <mxCell id="6H7zfrlUpkptx7yJUmZI-61" value="" style="endArrow=classicThin;html=1;rounded=0;endFill=1;entryX=0.576;entryY=0.729;entryDx=0;entryDy=0;entryPerimeter=0;exitX=0.408;exitY=0.75;exitDx=0;exitDy=0;exitPerimeter=0;" edge="1" parent="1" source="6H7zfrlUpkptx7yJUmZI-45" target="6H7zfrlUpkptx7yJUmZI-54">
          <mxGeometry width="50" height="50" relative="1" as="geometry">
            <mxPoint x="327.97" y="419" as="sourcePoint" />
            <mxPoint x="282.97" y="340" as="targetPoint" />
          </mxGeometry>
        </mxCell>
        <mxCell id="6H7zfrlUpkptx7yJUmZI-62" value="" style="shape=waypoint;sketch=0;size=6;pointerEvents=1;points=[];fillColor=none;resizable=0;rotatable=0;perimeter=centerPerimeter;snapToPoint=1;strokeWidth=0.25;" vertex="1" parent="1">
          <mxGeometry x="228.97000000000003" y="240" width="20" height="20" as="geometry" />
        </mxCell>
        <mxCell id="6H7zfrlUpkptx7yJUmZI-63" value="" style="shape=waypoint;sketch=0;size=6;pointerEvents=1;points=[];fillColor=none;resizable=0;rotatable=0;perimeter=centerPerimeter;snapToPoint=1;strokeWidth=0.25;" vertex="1" parent="1">
          <mxGeometry x="262.9200000000001" y="280" width="20" height="20" as="geometry" />
        </mxCell>
        <mxCell id="6H7zfrlUpkptx7yJUmZI-64" value="" style="shape=waypoint;sketch=0;size=6;pointerEvents=1;points=[];fillColor=none;resizable=0;rotatable=0;perimeter=centerPerimeter;snapToPoint=1;strokeWidth=0.25;" vertex="1" parent="1">
          <mxGeometry x="307.78" y="320" width="20" height="20" as="geometry" />
        </mxCell>
        <mxCell id="6H7zfrlUpkptx7yJUmZI-65" value="" style="endArrow=classicThin;html=1;rounded=0;endFill=1;entryX=0.54;entryY=0.691;entryDx=0;entryDy=0;entryPerimeter=0;" edge="1" parent="1" source="6H7zfrlUpkptx7yJUmZI-64" target="6H7zfrlUpkptx7yJUmZI-63">
          <mxGeometry width="50" height="50" relative="1" as="geometry">
            <mxPoint x="327.97" y="419" as="sourcePoint" />
            <mxPoint x="282.97" y="340" as="targetPoint" />
          </mxGeometry>
        </mxCell>
        <mxCell id="6H7zfrlUpkptx7yJUmZI-66" value="" style="endArrow=classicThin;html=1;rounded=0;endFill=1;entryX=0.523;entryY=0.84;entryDx=0;entryDy=0;entryPerimeter=0;exitX=0.677;exitY=0.394;exitDx=0;exitDy=0;exitPerimeter=0;" edge="1" parent="1" source="6H7zfrlUpkptx7yJUmZI-63" target="6H7zfrlUpkptx7yJUmZI-62">
          <mxGeometry width="50" height="50" relative="1" as="geometry">
            <mxPoint x="337.97" y="429" as="sourcePoint" />
            <mxPoint x="292.97" y="350" as="targetPoint" />
          </mxGeometry>
        </mxCell>
        <mxCell id="6H7zfrlUpkptx7yJUmZI-67" value="" style="shape=image;verticalLabelPosition=bottom;labelBackgroundColor=default;verticalAlign=top;aspect=fixed;imageAspect=0;image=data:image/png,iVBORw0KGgoAAAANSUhEUgAAAB0AAAAbCAYAAACAyoQSAAAAAXNSR0IArs4c6QAAAARnQU1BAACxjwv8YQUAAAAJcEhZcwAADsMAAA7DAcdvqGQAAAFmSURBVEhL7ZbRbYMwFABNNwhsACtErMAIzMAKMAFMwAZhASbgjy8GgA1gBrfn2hUpYNokRJWakxCO7byzn5+jOPID8WTe9PupvKSH8nekRVEI13WF4ziiqird+0mWZaqf981wZeZcLhdZlqUcx1EGQSBPp5MekTJJEq6Xeuq61r2/ZyGdk6apEnRdpxbCAmjfi1XKbpDmef4wIVilwzB8pZO0PwqrFBCez2f9yQ6L5NyphTiOde8Sq5QApBXxHubMTRHa2IzGl9kh54m0aRo9soTUM+enZ74qJYgpHGQERL4GKWXu1vgaV1JzRXjmhUNQzglI+fyOkhGTCdpRFKk5tsxcSUkngu+VagKv7QgJYxQO81gQbfq2fkD2K2QHI51DIbFAxtY45Aff8zwRhqFo21b3XHO31Pd99Z6mSb0Nfd8r8Sp6xzdDhROG4jH301yzw84UCE4RIuKhvSWE17/BQ/kvUiHeASmhPg432OEDAAAAAElFTkSuQmCC;" vertex="1" parent="1">
          <mxGeometry x="235.42000000000007" y="275" width="12.5" height="11.63" as="geometry" />
        </mxCell>
        <mxCell id="6H7zfrlUpkptx7yJUmZI-68" value="" style="shape=image;verticalLabelPosition=bottom;labelBackgroundColor=default;verticalAlign=top;aspect=fixed;imageAspect=0;image=data:image/png,iVBORw0KGgoAAAANSUhEUgAAABoAAAAWCAYAAADeiIy1AAAAAXNSR0IArs4c6QAAAARnQU1BAACxjwv8YQUAAAAJcEhZcwAADsMAAA7DAcdvqGQAAAFBSURBVEhL7ZbRsYMgEEXxdaAt2IK9WIOOFWgFWoEdaANW4K8fNmAH9sDzEHASFCcxJl85MwwEWO7usjjx5IL4An+6/zg/odNshKqqEkEQCM/zRNu2evZGURRqnv5lqDpD0zSyrms5z7MMw1D6vq9XpEyShOpUres6Pfs8D0L35HmuDh3HUYkjyvgsTiG8Rqgsy7dFwCk0TdOaKlL6Lk4hQCSKIv1rC9EaZ+wWx7HedcNZ3mmaiiVlYhgGPbPPUiQ4u7alkNR8lmWqX0HNhssnEuNx3/d65RFSat8dNlSszUYIY3P5CCCE8TPwLLDdu9NVyJQz7X4jhsZD3tLRG3JFoxzWY5WqPW9II+KsHUVmomG/DWu7d3QGk3IO3eMyIVJ2FPElQkRDel3RwCVCREOhuFBfGT0+jXkCHHbEl/6cCPEPfIktshrGLiQAAAAASUVORK5CYII=;" vertex="1" parent="1">
          <mxGeometry x="277.71000000000004" y="320" width="12" height="10.15" as="geometry" />
        </mxCell>
        <mxCell id="6H7zfrlUpkptx7yJUmZI-69" value="" style="shape=image;verticalLabelPosition=bottom;labelBackgroundColor=default;verticalAlign=top;aspect=fixed;imageAspect=0;image=data:image/png,iVBORw0KGgoAAAANSUhEUgAAAE4AAAAdCAYAAAAEsFpEAAAAAXNSR0IArs4c6QAAAARnQU1BAACxjwv8YQUAAAAJcEhZcwAADsMAAA7DAcdvqGQAAARsSURBVGhD7ZrLLjVNFIbX/i6AYCoGDgOJkeMEiYHDBRDMTBkLCVfABQgDM3EIAxPHAQkiEiJcAANjInEDvn7XX6+/u3Z1dffevfc38SSV1V27uw5vr7WqurML3wHyS2b+GPtLRqou3M3NjfT09KitNuhzbm5O6uvrpVAoqF1dXTW/ZgShWg1eXl6+R0dHkRa0XF9fm1+qB/rt7u7Wsby/v3/Pzs5q3c7OjrkiPVURDoOEaBDr6OjonwoH0QiOUTc5OWlq0uMN1dfXV1leXpbW1lZTUxoNDQ1yenoq/f39UlNTY2qrTzBfaW5uNmf/09nZaY5ENjY2ZGxsTHZ3d01NDP/pVwzct66uTt05/JQAvAW3sti/++C95XrcysrKT/8tLS2mNhtLS0vO8WPuaBNRgmhx4RQON6JBX+w/PT3pNRA3C3kJB9bX17WtUkItaY4QDPkQxSVekXBQH2LgafgoNT/kKRwnDwGzwDybdJ9PiyLhuPLFuShh5wiZLOQpHEMtS1uIFKagNMT1ERGOXpSm0VIGDfIUDmGEttJCD0orGojTJNIrc4YvtxHXoJFQUYfiCmF4MQV3uX8W0BbaQYQQehPHYIcic1YY3BNuwwXmhXbDRGbOMEVjSeA6exBc6VBvhzrbtkvSoOOg59oPgP3YHsJ86CpJY4AT4LpwlESEo8ckwUGHBwehcD86ScqPecCHFI4OrvRZ824Srr4iG+Agns2Rn9vbW7WDg4NqPz4+dNM4MjKiG0dseCvNxcWF2t7eXrXPz88yNDQkweRkYWFB6/Lm7e3NHJX4ks9Bt7e3y/HxsbS1tcnExISsra1pfTU4OzuTIO9IbW2t7vYh2tbWlkxNTZkrKozxPAWnVpWTcAJmSbNKwtXtJFsKDEm7+MD4kFo4dti0Ic1QDV8f8bggR5mjeBASn5+fEiRUjFSCxrSe4esCn3Pwvjs9Pa33lsvd3Z1a9I0xYCzA96lqYGBA7u/v5eHhQYIcrJ65uLiY/E4aoqmpyRxZocqXeYgTBwfd1dWldnx8XO3+/r5aG4Ty9va2nJ+fS7ACmtryuLy8VNvR0aF2ZmZG7cnJido49vb29CUfOXh+fl7rDg8P1fp4fHxU29jYqFZRvzOk2cfB3XEN3hwI93RJqyld3ge3E77Q5+rP/mBxbm+PfHBjGw6/OFz7uIjHDQ8Pq726ulLrAp4D+vr61AKspuDg4EA/RWGFxUpbDl9fX+YoCtrH6h+I9LN6w+IcYYhoQcgmLRKbm5tqGTFxsL+i9oyAP/CJu7yHT8l+sriWXof74zbQeXgcogG/2xtf9MnEj6jweT/b8EUW4ZuOPZ6iWVAce+edB2mEc4VFnqT9MgJ8WjhnkeWJZCFJuEp/VqdXpnEKRhGKy3tjZwHR0Alc1ef2WUgSDq9r4UUnT+A9aUXDg4PnI23Ezd0bN+gMwqGRckFbzF+VEscHvScMPBBjCoMQRl1StHmFywuI5SpptgJ5wNTjKrZwafn9C0SJlPSS/4vIX0DgBKtn10fQAAAAAElFTkSuQmCC;" vertex="1" parent="1">
          <mxGeometry x="205.74" y="289.51" width="28.23" height="10.49" as="geometry" />
        </mxCell>
        <mxCell id="6H7zfrlUpkptx7yJUmZI-70" value="" style="shape=image;verticalLabelPosition=bottom;labelBackgroundColor=default;verticalAlign=top;aspect=fixed;imageAspect=0;image=data:image/png,iVBORw0KGgoAAAANSUhEUgAAAEwAAAAgCAYAAAC4oZ4KAAAAAXNSR0IArs4c6QAAAARnQU1BAACxjwv8YQUAAAAJcEhZcwAADsMAAA7DAcdvqGQAAAQySURBVGhD7ZpLSjw9EMAz3w3UI6gLF6KIIqi4EHyAa9Gl4MLXDfQEegBx7UJduFXUhQtfoIjoAXTh2geewP/8ihRkepKepGccF9/8IKQ73alUKpWq9DClnzKmRTT/2bpFJC2DJdIyWCJNN9jr66tZWFgw29vbtqV5MPbm5qbp6uoypVJJytramvn4+LBvREDQbwbv7+8/GxsbJBgpW1tb9knzmJ6e/mlra/u5urqS+93dXdFldXVV7mNomoetr6+b3t5eUzacbfkbdnZ2zNjYmFwvLy+bzs5Oc3h4KPdRWMN5eXl5Ea8oC7UtjYFh/8LDfDA3PE/B67g/ODiwLZUEDUYH3Bd3xXBZmLSWkPAQjTAY28rVwadjLY6Pj736c6+GJJS4eA1GB58gFwQhlPeenp5saxz0aYSHMS6yWNhU6KsO4YP5DQ4OSnGNVmUwVgpBbMVaYLAiyjbKYOiKrPn5edsSh86xVj+fLaoMhhuiRNYVs/Cc99z9H0ujDKZbKkVWyHNCaGbXzFqRJTmnnJ2dmbKbmo6ODtvq5+7uTuqJiQmp/4KbmxupR0ZGpI5hZmZG6tPT05pzhKWlJan39/elrvAwPZfEBPGs5YF4QBsltFU1PvoCaip4CbJcNK5SslsOndHLTRDoQJ883NBTMZpux5gg7tu6mrkQnpXBttGJZEtR6IvRXHSc7JbTeBcqeWB43pH52TZBVycG3suuDIJRNDVrFkEXx81y6i3oUa/3uugisDsqYlh5FexVPtfX11JPTU1JDXyT0Z/Y0NfXZ1t/j9vbW6nHx8el5nuQ+IROnNxj4lMqb29vxT6+VVkM8/z8bIaGhszn52d0IG0EFxcXUvf09JiTkxPT3d1t5ubm5NPnNylksMfHR6lXVlZMf3+/eXh4MAMDA0FjNeRXggz39/dSM/7s7Kz5+vqKypZ4X3t7u70rgN2mQmwMI6jrexpL8s5jPKOPZtQivxK46Alfx9QYk3ceY2ydHyUFN4ZV9IzJkqqsm51UkVCgRW72qEIfTdWpqMH1BK4ZMJsxFQ64LA7v6XEohWCWjDmH6TlKlQVVAsViwWA+r4zxFj3vueNhLNpqZUeVn4K7uBUxbHJyUurLy0upfeiz0dFRqUGv9/b2JC4RnzST+iBIk1EXFxdtSzXf39/2qprz83Oph4eHpQbN2EdHRxIzyZj1xEgFWejKr8SCmM1Bt2VopULbT1ed53mexpZmtULxq5aHhbYf+qiXMYdQWEn1MN09Gn+reqpCRQNyHsjGWNlPFhc1fF4crYcUg/ls4e2pcSovlqWiHkAJea8aNORdjSDWYCF9gz0xFsrjkqEJplDLWMBkftNYEGMwPYKwtbP65vZkxTEYnesBGRgfeQqK1Cs3FcbXGB2Ks4V/028UGgdCpVn4xqakenTrzyiJFPqW/D/TMlgSxvwDN+BETuWlGawAAAAASUVORK5CYII=;" vertex="1" parent="1">
          <mxGeometry x="282.9200000000001" y="331.85" width="28.38" height="11.95" as="geometry" />
        </mxCell>
        <mxCell id="6H7zfrlUpkptx7yJUmZI-71" value="" style="shape=image;verticalLabelPosition=bottom;labelBackgroundColor=default;verticalAlign=top;aspect=fixed;imageAspect=0;image=data:image/png,iVBORw0KGgoAAAANSUhEUgAAAEwAAAAeCAYAAACG0fjXAAAAAXNSR0IArs4c6QAAAARnQU1BAACxjwv8YQUAAAAJcEhZcwAADsMAAA7DAcdvqGQAAARESURBVGhD7Zo7SixBFIZr7gZETM00MRBFfASa+tiB7sDXDsYVKBirqSDqAhQ1EVQMREQDI9EV+MAVzO3v0KdvTXX1o2Z65ibzQVFjP6pO/fXX6erGWiPC9CjNn7juUZKeYIF0TbCvry+zs7NjlpaW4iPdg74PDg7M1NSUqdVqUojj5eUlviIAclin2d/fb/T395MrG4uLi/HR7rG9vS19Ewfc3t5KPENDQ/J3CB13GK76/f01b29vZnJyMj7afdbX183q6qr8npubMysrK+b9/T3cZbFwKaLGGvV6vaVZyAJ3/Q+H+YgEFNfZ4EDiOz4+jo+k8QrGDViWRhHOhgbpiML5EKoSTPun5A0uC8ak43OhPUxCnJ+fn/HRf6QE44aiQJaXl+UazQllqUowBsKgiOH5+Tk+Wg7ujVKDFJ8gkHdNk2CqPEsxD7VzaLBVCQYIRqyhIAL3ZomlZGnRJBiDQYiixuiU60Kp0mH0H9oWE40IZScaseiHp6qSjBpFOVmUl1oNFqoS7OzsTGJgu1AWBh8iFvg0SQQjH3GyKIn6gtW8p8UXFMcImEIg7eCbeU0TFPqw0ZipbcjFdhs+3KWfCMbMZw3WRjeBbucarCs4Aek5txQFm4XGaqcO7cfnIn1A+EpRDPqA0+sSwbTRIjRY2yW6k3dF7BT0T7w2DIzcGrLkyqAGUSMkCnGwjGBusDTkm9VOoU6y8wq/fVuAKlDBNAUFvRrd3d1JHQVnPj4+zMbGhtnd3TXX19dmbGxMznWa+/t7qemP1xpeqL+/v83FxYUZGBiQc50kSLDX11epT09PTeQys7e3J0EWiYW4vLvxXtkuT09PUq+trZnx8XHz+PhoJiYmMsWi762traYvFcTS0pcKEJ9FlMlhdgLE/izFvHu4Rp9oFPvJ2ip2n7o887Yqbg7iHtqglMG9P3HY8PCw1HnKX11dST0yMiIzykzB+fm51C6bm5tmdHTURMLFR9qD2H5+fpKvHnx1wOmXl5fyzSuLKMclsXLP9PS0tFMGdfTg4KDUiT2K9mG6iSO5Krq/cV8ffHBdnsPKuIXY3P7UwSFPaFZTXj82XGu7MXHY/Py81Dc3N1K7PDw8SL2wsCA1zMzMSE1O06+a7eapPKdobLOzs1KD/j48PJR7eRDpw8mFlcCXVlbT0dFRfDQb8l9klMSdQiyc4NsQKrqTdmdSZ51ZyHMQ17TrMM2zbnwaG+eznMZ5CnHiSt8YXdS9xKY0CeZ7d6oK2s0TTIUP/WQUCv0gmp1afGRpkXrEaeDUVVIkGAMom1faxeccG9xHPBTXial9GOs1EktyAfuXvJxSFeQcnnZl8kooJycnqZzW19cX/0rDteRmdgHezXAsXAosyUyQF9pFXYuDyuSOKqFPxsB4gFc4/vYtSdIB1+etrkzBqoAliFC+0i14CLDhJm/RLzV5qdWJ6/1vRSBB75I9jPkLBSxqDyiuk1sAAAAASUVORK5CYII=;" vertex="1" parent="1">
          <mxGeometry x="201.47000000000003" y="235.82" width="30" height="11.84" as="geometry" />
        </mxCell>
        <mxCell id="6H7zfrlUpkptx7yJUmZI-72" value="" style="shape=image;verticalLabelPosition=bottom;labelBackgroundColor=default;verticalAlign=top;aspect=fixed;imageAspect=0;image=data:image/png,iVBORw0KGgoAAAANSUhEUgAAAFAAAAAeCAYAAAC7Q5mxAAAAAXNSR0IArs4c6QAAAARnQU1BAACxjwv8YQUAAAAJcEhZcwAADsMAAA7DAcdvqGQAAAQSSURBVGhD7Zq/Lj1BFMfn/l5A0IoCjZBoJBqNQhQ0KnRaWp03UGiFXsILICgUSBQiVBo8gcQj3N9+jj3MnTuzs/9+e5Nf7ieZzDW7d+ac75xzdu5Gq51g+pTmT9r3KUlPBDw9PTVDQ0PpX83C2uvr66bVakmbmJgw5+fn6dUSkMJNcXt72x4fH6dkSGsa1mfdra2t9ufnZ/v9/b09OzsrY3wuQ2NenJ2dieEYuru72zMB2UCbk5MTseXw8DAdKUbUC3XYXbgKe3t7PRHQhwqIuApiLi0tybUYmV4wweDg4E/k2KgItKLi1iUgTqoN2FgGUthnP74zzhqke4igF7ozWbvATnHP2tpaOpKPOiOQtZmrTAoiOgHy/PycjnSCcAhMC4no9YJoY2JSNwsVuajxdQqICMwVEiGE1uHY92JaeL3Q1MgKXVAj7PqRhzoF1KdoEfJkl02Wn10rozg356kpZYyHugRkg5mHDc8LpwG+k1c8yNKkywuta7EFfMaTDoQ74zRfamOMRjjOVEHFYEMUjS5tdoqG0hE77Tl88EDhuy5dAqpzsdqgh1LXGP2+d7dSp9wWMz6ERrK7ETqvGwRaL30tZoM+rNw07hIQpbkxhhpvG4noeYypC90sIkshmoiUqtHt4vMXupTiJloM13hN31jq1wnr22c41saGWPaUQQV0g6P0y4TLy0uTGGsGBgbM0dGRWVhYMMfHx/JDvQnu7u6kTx5k5uPjw2xvb5v9/X1zc3NjZmZm5FojpEL+wJBnuANNVbdlQXRoHaEROVXSTB92diMrsqhiQ+4ITCZNP4V5eHiQPpkM1UxiuPytUeHC+MbGhrzCSp7eJkl7id7l5WWJnjIQaZAUdZmT+ciKEHXZMDo6mn76pktA3o/By8uL9D7U+Onpaek3Nzelv7i4kN4HG3NwcGCGh4fN2NiY2dnZkfHr62vpi3J1dSX95OSkzKmlI+vdXhUbnp6epB8ZGZFe6RJwdXVV+tfXV+l9PD4+Sj83Nyf94uKi9OqUy/z8vHl7e0v/6mRqair99Iu+7AxBxHx9fUn9QwxYWVmR/v7+XnqXoja44DMRyzwdfGfyLzxVGQ79EtHr/Aqx0V8l1EfOSrEXDNxPDfLBPDQO6z6oZVy3z6B6sGdOPuc5HGfZYJOlibfy6xHF54DPeNBjjC4Uch64zr2h4wZz0ELogdh9AKhtzB0TL2aDTaHfwhCLwiqoMSHDde1YBFchZoNNTIvgNutu0tdFnjlxjsjIiuAqFPELG0hzWsiecJ4ksAjO4FRVh0i3mOGsQfnIExllyGODQrpSH7Eny/dMAYEQRsA8xTYEc+hG2OQp9HVRxAbGEC6P0FEB60CLvq81JeC/sqH/rx0V6cl/JvxP9AWshDF/AXD8maXvXhOPAAAAAElFTkSuQmCC;" vertex="1" parent="1">
          <mxGeometry x="278.9100000000001" y="277.36" width="32.39" height="12.15" as="geometry" />
        </mxCell>
        <mxCell id="6H7zfrlUpkptx7yJUmZI-73" value="" style="shape=image;verticalLabelPosition=bottom;labelBackgroundColor=default;verticalAlign=top;aspect=fixed;imageAspect=0;image=data:image/png,iVBORw0KGgoAAAANSUhEUgAAAEwAAAAbCAYAAADWHGlkAAAAAXNSR0IArs4c6QAAAARnQU1BAACxjwv8YQUAAAAJcEhZcwAADsMAAA7DAcdvqGQAAARWSURBVGhD7ZjLLjVBEIDb/wbY2mFhIcQlEsRC4pLYEvYWbnsLnoAHEGsLJGwJFhZuQUR4ABbWrk9w/vkqXSdtTs+cnnPmsPElnZpb91RXV1XXTF0hwvwRzD8r/wjkRw32/PxsZmZmzPr6ur3yc/Du1dVV09LSYurq6qQtLi6at7c3+0QghGSteX19LaysrBD60tbW1uydn2NsbKxQX19fOD8/l/PNzU3RZWFhQc5D+REPW1paMu3t7SYynL3yO2xsbJjBwUE5npubM83NzWZ3d1fOg7GGK+Hp6Um8IhrUXskHXvkbHuaDueF5Cl7H+c7Ojr1SitdgdMB9cVcMF4dJa0sb3EceBiOsXB18Opbj4ODAqz/nakhSSZwSg9HBN5ALAzEozz08PNirYdAnDw/jvYzFwmaFvuoQPphfT0+PtLjRvhmMlWIgQrEcGKwSZfMyGLoy1vT0tL0Shs6xXL8kW3wzGG6IEj5XdOE+z7nxH0peBtOQyjJWmuf40J1dd1Yo7pLUKcfHxyZyU9PY2Giv+rm5uRE5PDws8je4vLwU2d/fLzKE8fFxkUdHR2XnCLOzsyK3t7dFCtZwxbokJIn7LE8+4BotKVQ1PyYl1CzgJYzlonmVFg85dEYvd4NAB/qkEU89xTdqOIYkcV/o6s7F4PExCBudSLxVCn0xmou+Jx5ymu+SWhoYnmfUOYpP6+qEwHPxlWFgFM26a1aCLo67y6m3oEe13uuii6CRV8xh0SrYo3QuLi5Ejo6OigS+yehPbujo6LBXa8fV1ZXIoaEhkXwPkp/Qico9JD9l5eXlRWTmTyNVFsM8Pj6a3t5e8/7+HpxI8+D09FRkW1ubOTw8NK2trWZqako+fWpNZoPd39+LnJ+fN52dnebu7s50dXUlGguPxAP1L0FDQ0Nlfwkcbm9vRfL+iYkJ8/HxEbRb4n28vyokMCNCcxhJXZ/TXJJWj3HP3Qh0Ny5XOCbBOO47Ncek1WPoqfOjZSExh+EBQJglwT1WM0rucs6Xf6SI1G9pHkOoaG7jLwF8fn6KzMr19bXI7u5ukZOTkyL39vZExiFkqaNOTk5MVFrYq+FoRDU1NYksmjukDtM6yv1c0JqMyjsE3eJ9HhHiLVrvue/Tmqzc7qjjZwHPdOuwooeNjIyIPDs7E+lD7w0MDIgEPd7a2hIvIz/pTurCPXIIOxkrvby8bO+U8vX1ZY9KwVOgr69PJOiOvb+/L18s7JjV5EiFsdj9+UtcxBpO8BWkLpoH4vd11bnv8zTNdfoM3uyjnIepd8YLVvRRL2MOSbVgVg/T6NGiFb71VoXcgjBPmJgq7Ya1ooavVfGbxWBJtijprXkqLZdVi3qDCwqSK5K8Kw9CDaYeS4tHk7c3xkJ5vCDeISsoiTFcNPRdeK6WxoIQg2kJgo6+uSf2ZpIYjM7VgILu953+x/KFZC1hPrpQSTt6xf/080SVQFEaC1BrT4qj74637HoUCv8B16ZoPOPuhkQAAAAASUVORK5CYII=;" vertex="1" parent="1">
          <mxGeometry x="317.58000000000004" y="310.14" width="33.39" height="11.86" as="geometry" />
        </mxCell>
        <mxCell id="6H7zfrlUpkptx7yJUmZI-74" value="" style="shape=image;verticalLabelPosition=bottom;labelBackgroundColor=default;verticalAlign=top;aspect=fixed;imageAspect=0;image=data:image/png,iVBORw0KGgoAAAANSUhEUgAAACIAAAAaCAYAAADSbo4CAAAAAXNSR0IArs4c6QAAAARnQU1BAACxjwv8YQUAAAAJcEhZcwAADsMAAA7DAcdvqGQAAAHKSURBVEhL7Za/rcIwEMYvbwFEGCEMQEGkbEBNBSuAqChhgiwQZYOwACBaEA0VAwAFNRIj5Pm7+J6ckIQnEf4U/CTLztmxP853F6xYQR/Aj+7fzldIls8WslgsqNlskmVZNBwOtTVhNpuRbdvkuq62VASyxuR4PMaDwSC+XC5xr9dDRsX7/Z7noijiZ7TJZMK2qrgRYjKfz/nQMAxZDMYQ8wxKhcArOBwearfbLOhZlAoBjuP8iXkmd4V0Oh0WAu+UgdhCTPm+ry23IK7q9TrvBw9L7IFSIYgHeXGz2WhrGgjEAViDViRERECwJII8g0IhUIuFkilFB2BDrJF4yluHwzBnxpgEv2RfrhBTBMALuKJ7FAmRH5P1qrlvqqChkKGItVot6vf73ID61bRareh0OnFBm06nbP8v5/NZj9KoOKHD4cDjlJDtdsu9chcFQcBjMBqNSHmIVAbRer2m8XisZx6j0WiQurbkgf1SEdgu72pgw1z2anAtyB7wko9erVbTozS73Y69Al4ixPM87pfLJfcA8Xa9Xqnb7SYG9ksFSGbA3XnFD3ZkIjLSrCOy9mEhcv95zQQH4jMhcxBiVtbvn+csXyFZPkQI0S9b2UfiuCSc3AAAAABJRU5ErkJggg==;" vertex="1" parent="1">
          <mxGeometry x="221.87" y="251.28" width="13.55" height="10.36" as="geometry" />
        </mxCell>
        <mxCell id="6H7zfrlUpkptx7yJUmZI-75" value="" style="shape=image;verticalLabelPosition=bottom;labelBackgroundColor=default;verticalAlign=top;aspect=fixed;imageAspect=0;image=data:image/png,iVBORw0KGgoAAAANSUhEUgAAACIAAAAZCAYAAABU+vysAAAAAXNSR0IArs4c6QAAAARnQU1BAACxjwv8YQUAAAAJcEhZcwAADsMAAA7DAcdvqGQAAAGKSURBVEhL7ZbNrYJQEIWH14G2IFsSF1CDJWgLiCuWUAEUQOhAG9CELUTWsCZSgRsrwHvmXQyi4kveNbrwSyZXhgkc50+1RkAfwI88385XSJ+vkD53hex2O9J1nTRNo+VyKb2/bDYbGo/HZFmW9CgC49vlcDg0tm03x+Oxmc/nGO2mKAq+t16v+RrmeR77VHEjpMt2u+WXxnHMYvAZYl7BoBBkBS9HhkzTZEGvYlAImEwmFzGv5KmQ2WzGQpCdIXA/CAKOHwI9iN5DbJdBIeiH0WjEQrIsk95bULI27pEQCEWDIwbWF/Jwj5RlyaMbRRFf53nOZ58wDOl0OlFVVST6SHpvcRyHDMMgIUh6ekhBV2BC8A3bCUHYs5QDxPwlDs8bzAgWGZbYdDqlxWLBBkRNKUkSquuaF5rv++xXyZWQ/X7Pp6jlpSRgtVqRyBCJCaI0Tcl1XXlHITIzSlBWmnfyMUKUlaadNBiW1iPaH06UsLsk/y0Eiw4PvmfdJYieuBcDA99/8X0+RAjRGawf52cJNnifAAAAAElFTkSuQmCC;" vertex="1" parent="1">
          <mxGeometry x="255.42000000000007" y="290.44" width="13" height="9.56" as="geometry" />
        </mxCell>
        <mxCell id="6H7zfrlUpkptx7yJUmZI-76" value="" style="shape=image;verticalLabelPosition=bottom;labelBackgroundColor=default;verticalAlign=top;aspect=fixed;imageAspect=0;image=data:image/png,iVBORw0KGgoAAAANSUhEUgAAACAAAAAaCAYAAADWm14/AAAAAXNSR0IArs4c6QAAAARnQU1BAACxjwv8YQUAAAAJcEhZcwAADsMAAA7DAcdvqGQAAAGrSURBVEhL7ZbPjYJAFMYfdoBagAmUoDXg1ZNXr1ACnownCjChA21A450GpACsQEIJ7HzPeSyy44a4EA/rLyED84aZj/dPrVJBb2Sgx7fxEfARUAlI05Tm8zlZlkWz2YzyPNeWu811XbbV5zsBZQiWy2WZZVkZxzHKkkdwuVxK27Z5bjqd8lyXVAKE2+3Gh0EQ7h3HKX3f19buMTYihKAoClIiSHmFDoeDtvQAy2iAL4YJLocX+sRYBZPJhMfNZkOj0YjvnwHvDIdD/fTI9Xql9XpdJTCuIAgeE1kLqUDSIe4wRVGkZ3+SJEm1zrAN43keJzDWAknwek49vClJdzweeSE2MAE7NkHVhGH4q4D9fq+f7mB/iBKqN3E4Yi7q8PKzjevAS23WCRBQ/7AB4oHYjMdjtQ/RdrvlcbFY8IgYS5P6K6fTiatqtVrpGUXd3fWMl3CIDblhoq0HpKE1e0p73z2hjQDkCg5Hc2vS+48RQoyGprxJu91Oz37TuwDJnfP5bO4p2hMvAddKtSCXmqBE4XqsEyS3hJcF4FDTJc0Lh5rscgmff8X/XQDRF4cxgXrIjXIoAAAAAElFTkSuQmCC;" vertex="1" parent="1">
          <mxGeometry x="328.7800000000001" y="325" width="14" height="11.38" as="geometry" />
        </mxCell>
        <mxCell id="6H7zfrlUpkptx7yJUmZI-77" value="" style="shape=image;verticalLabelPosition=bottom;labelBackgroundColor=default;verticalAlign=top;aspect=fixed;imageAspect=0;image=data:image/png,iVBORw0KGgoAAAANSUhEUgAAABsAAAAjCAYAAABl/XGVAAAAAXNSR0IArs4c6QAAAARnQU1BAACxjwv8YQUAAAAJcEhZcwAADsMAAA7DAcdvqGQAAAH4SURBVEhL7ZexrgFBFIaP+wKCR6BDopBoNAo8glah8QIk3oBCJ1EoBS+ARKOgEFEQtU7JM+zd/ziz7LJ77d2J5Cb3Syb/zNnM/M6cmd0IGSb0Ib5EP8K/mRb+ptlkMqFoNCojF3D0g7BarYx4PI7rw82LQJnNZjMajUa0WCyo1WpJ1AMxDUy73faXWafToVAoxC2RSEhUHzazRqNB/X6f+9lsllUnTzULh8OshUKBVSdPZsfjkTWZTLLq5MkMJwvk83lWrchBYS6XC5+ocrksEcPY7/dGJBKx7pFZU3ly53Q68Rw8n06nEn3GZoYLignmnZHIDbVQvV6XyB31I5wNV8GJzUzdlfF4LJFbZm6T/WIzUxlgW4DawkfzINjMYITFUTvUBn2vGvjFMlPb5WzvokqAurthHf3NZsNqToIDmVvK4/V6zerF4XCgZrMpI3css+VyyZpKpVir1SrrfD5ndeN6vVKtVnvrrW+Z7XY71lwux1osFlnVJXej2+2S+T2jdDotEQ+wlzh96JovXwwtMEYc9UQtKpWKPLmBmDpQb9dsu91CqFQqsSoGgwGZi1Emk+GPZK/Xkye37cNWD4dDisViEv0BMfUN3jKPmT5mhvirDH9thoW9mlYzJ77umS7O57P0XiCmgUA26uSiuWX3/5dJCx80I/oGh48IpdH3I6QAAAAASUVORK5CYII=;" vertex="1" parent="1">
          <mxGeometry x="470.97" y="456.66" width="18" height="23.34" as="geometry" />
        </mxCell>
        <mxCell id="6H7zfrlUpkptx7yJUmZI-78" value="" style="endArrow=none;html=1;rounded=0;" edge="1" parent="1">
          <mxGeometry width="50" height="50" relative="1" as="geometry">
            <mxPoint x="478.8100000000002" y="455" as="sourcePoint" />
            <mxPoint x="478.8100000000002" y="445" as="targetPoint" />
          </mxGeometry>
        </mxCell>
        <mxCell id="6H7zfrlUpkptx7yJUmZI-79" value="" style="endArrow=none;html=1;rounded=0;" edge="1" parent="1">
          <mxGeometry width="50" height="50" relative="1" as="geometry">
            <mxPoint x="113.95000000000005" y="90" as="sourcePoint" />
            <mxPoint x="124.21000000000004" y="90" as="targetPoint" />
          </mxGeometry>
        </mxCell>
        <mxCell id="6H7zfrlUpkptx7yJUmZI-80" value="" style="shape=image;verticalLabelPosition=bottom;labelBackgroundColor=default;verticalAlign=top;aspect=fixed;imageAspect=0;image=data:image/png,iVBORw0KGgoAAAANSUhEUgAAABsAAAAiCAYAAACuoaIwAAAAAXNSR0IArs4c6QAAAARnQU1BAACxjwv8YQUAAAAJcEhZcwAADsMAAA7DAcdvqGQAAAIASURBVEhL7ZdPrgFBEMZr3g3EERzAhpU9buAMuIC4gRuQWNk4gUQsLBCJHSsbnMCfI8ybr3S9tJ7qZ+aZWLz4JZ2arpn2dVVX94wgjKA38WXsW/iI/crlcqHBYEDlcpmCIOBWr9dpt9uZJwwokFfp9XoosrDf73N/uVyGuVwuLBQK3BcyE2s2m6Z3B31MYLvdGk9GYhoiZqOK4SFp4/HYeJNzPB45jW60qtj5fOZ8u2lIAsaWSiVuuLbxphFimF1aIIKxrhDwRoaoarWa8SQDacMEfdlQxSaTCYuhypLS7XZ/FQKqGAZCDPtFkOpCc9Mrk4O1aTQaD7+hiiF9GGznHYNEyJ29FJPWnorhIXf3Y5ZY/LTVaRMTkwjsPYJrrZTTEjuI1+s122KxyAcpDtfr9UrT6ZTy+Tzf+zNG9AekC267Ja1KRI419W2ZWGSz2YxtdI+ilPL1fD5n+4x2u0232830FO6ad7D4cGF9BKm0Z+uFMxTjEFWiyPb7PdtqtcoWRGllu9ls2GqcTidqtVo0HA7pcDgYb5wHscViwbZSqbAFcj0ajfiNjB9drVbsE+DrdDpcVNGJb7wKJkLGlzI5PXDfPSXwdrbTjud8aYxVYxrkvWVvdBGDzxV9SUy+PXwtUzENTUTI5FPOBYWEFsOIZoK8mtC06D5/LDLhv4oRfQPfUzr/lxqFMgAAAABJRU5ErkJggg==;" vertex="1" parent="1">
          <mxGeometry x="92.21000000000004" y="78" width="19" height="23.93" as="geometry" />
        </mxCell>
        <mxCell id="6H7zfrlUpkptx7yJUmZI-81" value="0.05" style="text;html=1;align=center;verticalAlign=middle;resizable=0;points=[];autosize=1;strokeColor=none;fillColor=none;" vertex="1" parent="1">
          <mxGeometry x="43.97000000000003" y="74.97" width="50" height="30" as="geometry" />
        </mxCell>
        <mxCell id="6H7zfrlUpkptx7yJUmZI-82" value="0.04" style="text;html=1;align=center;verticalAlign=middle;resizable=0;points=[];autosize=1;strokeColor=none;fillColor=none;" vertex="1" parent="1">
          <mxGeometry x="454.97" y="480" width="50" height="30" as="geometry" />
        </mxCell>
        <mxCell id="6H7zfrlUpkptx7yJUmZI-83" value="" style="shape=waypoint;sketch=0;size=6;pointerEvents=1;points=[];fillColor=none;resizable=0;rotatable=0;perimeter=centerPerimeter;snapToPoint=1;strokeWidth=0.25;" vertex="1" parent="1">
          <mxGeometry x="468.97" y="399.68" width="20" height="20" as="geometry" />
        </mxCell>
        <mxCell id="6H7zfrlUpkptx7yJUmZI-84" value="" style="shape=waypoint;sketch=0;size=6;pointerEvents=1;points=[];fillColor=none;resizable=0;rotatable=0;perimeter=centerPerimeter;snapToPoint=1;strokeWidth=0.25;" vertex="1" parent="1">
          <mxGeometry x="148.98000000000002" y="79.97" width="20" height="20" as="geometry" />
        </mxCell>
        <mxCell id="6H7zfrlUpkptx7yJUmZI-85" value="" style="endArrow=classicThin;html=1;rounded=0;endFill=1;" edge="1" parent="1" source="6H7zfrlUpkptx7yJUmZI-83" target="6H7zfrlUpkptx7yJUmZI-64">
          <mxGeometry width="50" height="50" relative="1" as="geometry">
            <mxPoint x="327.97" y="419" as="sourcePoint" />
            <mxPoint x="282.97" y="340" as="targetPoint" />
          </mxGeometry>
        </mxCell>
        <mxCell id="6H7zfrlUpkptx7yJUmZI-86" value="" style="endArrow=classicThin;html=1;rounded=0;endFill=1;entryX=0.701;entryY=0.564;entryDx=0;entryDy=0;entryPerimeter=0;" edge="1" parent="1" source="6H7zfrlUpkptx7yJUmZI-62" target="6H7zfrlUpkptx7yJUmZI-84">
          <mxGeometry width="50" height="50" relative="1" as="geometry">
            <mxPoint x="337.97" y="429" as="sourcePoint" />
            <mxPoint x="292.97" y="350" as="targetPoint" />
          </mxGeometry>
        </mxCell>
        <mxCell id="6H7zfrlUpkptx7yJUmZI-87" value="" style="shape=image;verticalLabelPosition=bottom;labelBackgroundColor=default;verticalAlign=top;aspect=fixed;imageAspect=0;image=data:image/png,iVBORw0KGgoAAAANSUhEUgAAAE0AAAAdCAYAAADvh+FHAAAAAXNSR0IArs4c6QAAAARnQU1BAACxjwv8YQUAAAAJcEhZcwAADsMAAA7DAcdvqGQAAAQsSURBVGhD7Zq7SixBEIZ7zxuouYGXQERMBAPFQPASmBgpYmCqD6DgGyhoJmpgJqgPoCCCgpdAMVAQjBQxVtQn2DNfnSlP72zPpcfZNdkPmtrpmZ2u/ru6qlcslQNMAy/+hLaBBw3RclB30fb3901zc3N4VV8Ye3p62pRKJWkdHR3m6OgovOsBOa0eXFxclNvb28mf0uoN4zPu/Px8+e3trfz09FTu6+uTPj77UBfvDw8PxVmcW15e/jXRWDSbvb098WVrayvsyUai9zrJ6GA/YWVl5VdEc6GiIaiCgGNjY3Ivjljv+VJTU9N3hNjwUgajcd+HokT7iQ8K29MVEMydfsZgK0dxeq8rkKT21NSUPOMb2kVGWl4fAKEJiru7u7CnEsRCVFpUuCrviSpexrZMgkFxOG7QOIoULa8PmlfTvhenRZX3GvausLTRyuNLkaLl8SHLLrJRge28VzEiyvJAWo5AUJ5DYF+KEi2PD1RxvpNVMHBpUnG4PTk5ETs0NCQ2juvra7HDw8NigYOjHhpp9/f34Z3/PD8/m9PTU/mc61Bp4esDY8/OzpogcuSAq2xvb5vV1dXwqpq2tjYTFAV59zeheIJuzbS9rtHCytnQR3OtpN6LNt6VB18fNP+5WpoPWnB0i1aIRpnlZhoqrn0UoYKRNKOTqBX19EEXSBeiQiFuZBGNZ+zzDS9LKt+1oJ4+qGgakd4/2C8vL8UGlUvyxMLCgllbWzNnZ2emt7dX7tWaX/dBpAvhMtJVBVtAn9PmU8F01ewS7kseH6i2mptofE47VimJkUaVSIPVhGDSJhjUBFvCHB8fS18aVLOlpaXwKj95fBgfHzefn5/yfJAHze3trfT50Nra+u+DSBeSpXqSN3hGV0mrUlry5XkOo67Doi++PpDvuG/PS6M1S9GIVs+KSJucnBT7+PgoNgr54+PjQ3JJS0uL9E1MTIi9uroSG8f6+rpEck9PT9jjRs9YceTx4fz8XKyd77q7u8U+PDyITYKoJJoHBwflukK0kZERsTpIlJubG7Gjo6Niob+/X+zBwYF5f393HhZJ3Jubm2ZjY8O8vr6GvcnwLhd5fEDoKF1dXWJfXl7ExsF32c72gbhCNE6/wRaVCbqcVjEHBgbEAqsdhL+8uLOz03x9fZnFxcXw7r/Jz83Nmd3d3e/IyELcs3l8cKHvdwlqs7OzI3ZmZkasIJvUgsMi3Wm/P7NCDiMnKHb1pN/ObTq2/XwRaK6OQl/0Lxg2cVo4zxeaOLE/hfckNVs0JkCS1wRfFJrIbSgK9OkxIooWLlrUH6dogGBMgIkUOYm4cxpjEBG1ONG7KqUGhms8fOPXBv645h4rGhCeiGb/XPkpKloRUZwVJk4AaNQwLxUlCgLTn+RfomhFwwriOKK5oq2WEFGa2xCQPJV3BzX+l8MbY/4CdqANipRNmf0AAAAASUVORK5CYII=;" vertex="1" parent="1">
          <mxGeometry x="460.79999999999995" y="418.1" width="36.33" height="13.68" as="geometry" />
        </mxCell>
        <mxCell id="6H7zfrlUpkptx7yJUmZI-88" value="" style="shape=image;verticalLabelPosition=bottom;labelBackgroundColor=default;verticalAlign=top;aspect=fixed;imageAspect=0;image=data:image/png,iVBORw0KGgoAAAANSUhEUgAAAE8AAAAgCAYAAABTliUJAAAAAXNSR0IArs4c6QAAAARnQU1BAACxjwv8YQUAAAAJcEhZcwAADsMAAA7DAcdvqGQAAAS0SURBVGhD7Zo7Sy0xEMdz7jdQewsfhaAo4gNUBAUfYGUh2lv4+gKivaAfQCysLNTCSlDUwsIXKCJa2aiFWPrAT3Du/udmJGYnu9nHPac5Pwizm7NJZieTmWS1UAxQFVLxR8sKKagYLwNlMd7Ly4uamppSa2truqZ0YOzl5WXV0NCgCoUClfn5efXx8aGfSABiXql4f38vLi0tIcZSWV1d1b+UjpGRkWJVVVXx/Pyc7jc2NkiXubk5uk9CST1vYWFBtbS0qMCIuqY8rK+vq76+PrqemZlR9fX1and3l+4ToY3o5Pn5mbwlGEDX5AOGLofnSeDd4JEMvBH3Ozs7ukYm0nhoDBeHS8OINjAAl7iBbPIwHpaeqYOkYxwHBwei/rhnoyLcSDiNh8ZSpyboFAPgufv7e13rB9rk4XkYF31hkpOCtuwcEni/jo4OKpIBReNhBtEplmscMF4axfMyHnRFX5OTk7rGD37HuHZRthCNB1eFQi53ZfA7njPjhS95GY+XXZK+4jzKhncInKGZULbFPuj4+FgFrqxqamp0rcz19TXJwcFBkuXg8vKSZE9PD0kfRkdHSR4dHcW+I5ienia5vb1N8gdtxB943+OTAKQZQfxAHYprOXM8jQrGvsB70JcJx2EUe1lCZ+hlJhfogDZRSOEpZDxesj4JQFrenAExkN0Hlha/lF3SgrYwoAmPYy9Ljo+uEgUmAc+YjhJqwbPmA56zZwyDQOmk2TcNPFFmtmQvgh5ZvdqEJ8RckaGYF8yOvorm4uKC5PDwMEmAMyLaI5a0trbq2v/H1dUVyf7+fpI4nyKeQSecGHziWVJeX1/1VYYPA6w4jPTw8KA6OzvV5+endxDOg9PTU5JNTU3q8PBQNTY2qomJCTp+lYLUxru7uyM5Ozur2tra1O3trWpvb480HBsZXzKqq6vp60YWbm5uSGL8sbEx9fX15Z114aXQgTNvGkLGC+KFvorm5OSEZLD0VRB76Jo9QQJboIGBAVpSaLO/v69WVlZSGxATAWMFSYv6C2IS1fOKiAMfKdA+KbW1tfoqAIHPxCfb4jc8Y2Y5TjSuII2gbqd6zmBpAjtvqXjnz5nUzrwSCPp4Du+K4oOUbUOeNz4+TvLx8ZGkBP9mJougc5K8cbaBp3Z1dem7f2CZA3ssfCTF0o76WArPA729vSTr6upUYBAKH1EfNrECkNg2NzfV09OTro0H/QaT//MpC4SMNzQ0RPLs7IykBP/GigO+3traIuWhIGdkIGXx5uZmkm9vbyRtvr+/9VUYDhvd3d0kAU/m3t4eGQnxzDYk9FpcXKRE57uzQF94Fl+/f6E98BfS5tfEtUT5dIHfceY0Qb29RHifZp9LeU9l1zOuJQp9UMdj2aEHS91sI+kk4TrbisZj5czNZ1YkRdl4tqF5EvLcaOOd7FMP64Q6lxGjbCEaD/D50+eM6wMUtxXkoG/OKL+ky+vSwt7sKpLx2JNRpFXoNB6A4fAicFvXEvZFyqxSBsZL5m04Fy6jAUwowg9+d717pPEAPAHGQ0dZ4CXK7s/3pTKUBMaXvCqXv2HkDWIbJxvIchqOkwCKy/viqPyvSgZSn20rVIyXiYrxUqPUX9FoPZMe6QuFAAAAAElFTkSuQmCC;" vertex="1" parent="1">
          <mxGeometry x="139.98000000000002" y="69" width="38" height="15.39" as="geometry" />
        </mxCell>
        <mxCell id="6H7zfrlUpkptx7yJUmZI-89" value="" style="shape=image;verticalLabelPosition=bottom;labelBackgroundColor=default;verticalAlign=top;aspect=fixed;imageAspect=0;image=data:image/png,iVBORw0KGgoAAAANSUhEUgAAACMAAAAbCAYAAAD28DaZAAAAAXNSR0IArs4c6QAAAARnQU1BAACxjwv8YQUAAAAJcEhZcwAADsMAAA7DAcdvqGQAAAG0SURBVEhL7ZbNjQIxDEY92wHQAVAC1EAJSHQAJdABHJFAdAAUAA0gcYYzggq4UMEszxuPhmzCsuJHHOZJ0WScTPzFiQ1JekE+hC/3/AgKMTE+W8xqtZJ6vS5Jkkiv13PWH+bzuZTLZWk2m87yZMgm43A4pN1uNz2dTmm73SbL0u12q2Oz2Uzfaf1+X23P5kpMnuVyqY6n06kKoo+gVxIVQ3QQQKQajYaKejVRMVCr1TJB7+CmmFarpWKI0i0YHwwGOj8Ex8sdLJVKuh6bZL5PVAwL2Mfr9dpZf8Px2byYGMY4akTTiDQ2/+iDdWa322laTyYTfd9sNvr0GQ6Hcj6fZb/fy8WZs4ZZLBZSqVS0dTodtfHtFU5UBpnDTi1zmBLbcR7m3DMPrEz4Ec/EWCrT8hfW6g01iEViNeYeMazBXeHO2GbzZGJwglPfGertTlhBDPGXGETYZpnH5n1uZtN/uCcyQHQs2r6gt/9QVqtVGY/H2h+NRvo0Xi7meDxq1uUho4K4CD2EZSCNY8jDncONFTkrkNj8Y3pIjDkKNUtbnJMUFD0box+6wMUf8hiFmBiFmDAi325h08in5qM8AAAAAElFTkSuQmCC;" vertex="1" parent="1">
          <mxGeometry x="138.97000000000008" y="84.39" width="17" height="13.11" as="geometry" />
        </mxCell>
        <mxCell id="6H7zfrlUpkptx7yJUmZI-90" value="" style="shape=image;verticalLabelPosition=bottom;labelBackgroundColor=default;verticalAlign=top;aspect=fixed;imageAspect=0;image=data:image/png,iVBORw0KGgoAAAANSUhEUgAAACIAAAAYCAYAAACfpi8JAAAAAXNSR0IArs4c6QAAAARnQU1BAACxjwv8YQUAAAAJcEhZcwAADsMAAA7DAcdvqGQAAAHmSURBVEhL7Za/rkFBEMbn3BcQ4QEkeANKNa0oNAqtRiuRKERFqUKl9AJEpaGhItEJ8QBExAOcu9/c3WDtOee699w/hV+ymT0zi29nZ9axbAH9A96k/XNeQnReQnSMQlarFWUyGbIsi5LJJB2PRxn5iMViMY7d+r8N2lcnn8/b2+3W7nQ6aG22YLlc2sFgkH2JRIJ9fmEUojgcDvyjEIZ5NBq1S6WSjPqL54WGozmdTiTEkMgSDQYDGfEZluMCMoBlOApk5afw7JpIJMK2Xq9TKBTiuQkUbqvV4iL3YjabcbFjvcJVCDqk1+vxfL1eszXR7XYpHo9TpVKRHmcguFgsyqcrjkLwgVwuR+12m58nkwlbHezqfD7TZrMhcXzS60ytVuN6e0Ae0R2oBdSE6pB0Os114gXWYTgxHA6583AN4PuazaaMaDWCLODswuEwPzcaDbbZbJYtOkZdds+C7y4UCtTv9+lyuUjvDVIQA8VwYVe3HaLuEBXDjky4ZQR3UbVa5fl0On3IiK8vRipT4/GYrWI0GlG5XKb5fM6dh65JpVIkhFAgEOAa8z74J3DKCHxCj+NAZn5FiI7paDwvtM+CIl4sFjx2u530urPf7+VMIAV9GbU700BMB//qKFy1RmXl9RZ/D9E7PP4mfX0FmMAAAAAASUVORK5CYII=;" vertex="1" parent="1">
          <mxGeometry x="471.97" y="392.35" width="17" height="12" as="geometry" />
        </mxCell>
        <mxCell id="6H7zfrlUpkptx7yJUmZI-91" value="" style="shape=waypoint;sketch=0;size=6;pointerEvents=1;points=[];fillColor=none;resizable=0;rotatable=0;perimeter=centerPerimeter;snapToPoint=1;strokeWidth=0.25;" vertex="1" parent="1">
          <mxGeometry x="263.2700000000001" y="240.82" width="20" height="20" as="geometry" />
        </mxCell>
        <mxCell id="6H7zfrlUpkptx7yJUmZI-92" value="" style="shape=waypoint;sketch=0;size=6;pointerEvents=1;points=[];fillColor=none;resizable=0;rotatable=0;perimeter=centerPerimeter;snapToPoint=1;strokeWidth=0.25;" vertex="1" parent="1">
          <mxGeometry x="307.78" y="280" width="20" height="20" as="geometry" />
        </mxCell>
      </root>
    </mxGraphModel>
  </diagram>
  <diagram name="Attempt 2" id="uJy0wk0YPTGOhf-Yk2S_">
    <mxGraphModel dx="778" dy="1631" grid="1" gridSize="10" guides="1" tooltips="1" connect="1" arrows="1" fold="1" page="1" pageScale="1" pageWidth="850" pageHeight="1100" math="0" shadow="0">
      <root>
        <mxCell id="0" />
        <mxCell id="1" parent="0" />
        <mxCell id="a-21Tg05XktNHDUC52Gq-112" value="" style="endArrow=classic;html=1;rounded=0;" parent="1" edge="1">
          <mxGeometry width="50" height="50" relative="1" as="geometry">
            <mxPoint x="147.39999999999998" y="-520" as="sourcePoint" />
            <mxPoint x="557.4" y="-520" as="targetPoint" />
          </mxGeometry>
        </mxCell>
        <mxCell id="a-21Tg05XktNHDUC52Gq-113" value="" style="endArrow=classic;html=1;rounded=0;" parent="1" edge="1">
          <mxGeometry width="50" height="50" relative="1" as="geometry">
            <mxPoint x="147.39999999999998" y="-520" as="sourcePoint" />
            <mxPoint x="147.03" y="-950" as="targetPoint" />
          </mxGeometry>
        </mxCell>
        <mxCell id="a-21Tg05XktNHDUC52Gq-114" value="" style="shape=image;verticalLabelPosition=bottom;labelBackgroundColor=default;verticalAlign=top;aspect=fixed;imageAspect=0;image=data:image/png,iVBORw0KGgoAAAANSUhEUgAAACsAAAAqCAYAAAAqAaJlAAAAAXNSR0IArs4c6QAAAARnQU1BAACxjwv8YQUAAAAJcEhZcwAADsMAAA7DAcdvqGQAAALBSURBVFhH7ZlNrmlBEMfL24DYgAFjMxsg8bEDYgcswMAOTI0MjbABA5GYECMRghlWQCzhvvN3q+8rrU/r6912I/FLKuocdfr8+6u6ROQjgF6EP/z5ErzF+uIt1hdOYmu1GkUiEaOtViuO+mQ6nRrjlJ1OJ458AKQuF5rNJlLclyWTyY/9fs/fXjOZTK5iYaVSKTTeFWexQL681+vx3VuOx+NVbKPR4G/+D2exGBUpAILCkLNg69R3cRYrpzadTvPdW5bLpRehwDkbzGYz9ojy+Tx712DzZDKZix8IpXK5fPF/Cmexi8WCPaJUKsXePyC0WCzS+Xz2IvQCj/BdYrHY1/TquxrrF0sD3/301EucxMrNBdGSZwkFTmIhQoktFAp897MTzxIKnNbser1mjyibzV4++/0+BUJpPp9Tu932s0Z1WLQVjCZCwywQy5F+cfqlgDPdRnD00m634yt/3F0GKEwk6BssOKX4DlGwdm/ifHBX7Ha7ZY8oWA7sEdXr9cuIKrrdLnsewTKwgWoJYTCc+RKZJWB6/jUxGAwuhQ32gczdyCpo31Zz3BWLUlA1iPpAgoblC/XO6MgCB5tSCUO7qh2IDsMqFo2pxmGmXksB6JgNFWvKHnKWMPomrGLxkGogrMfydLO96B5yYMJmyLrBNpsNe+GVViKRoGq1yldErVaLvceJRqPsXWMVOx6P2SOKx+Ps3VKpVNgjGg6HdDgc+Mqd0WjEHlEul2NPg0f4Bn169c2lIzdiMNJ81w0sAfW87SeQUSwelikLhmvTBgPyZcq+cwSrd9kyATCKlelIml4eKsJqB1mhhYFZQCyEhg2GwpoNfIMpdxUKfk2syquuQsGviH1EKHi6WPxUx9qHmWoJVTeYeLpYjCZGFaJ1IB6dQHYw8VSxepUWZg8dtz9Np9Nh7zHef4D44i3WFy8klugvwr2cakJYr/AAAAAASUVORK5CYII=;" parent="1" vertex="1">
          <mxGeometry x="138.16" y="-980" width="20.48" height="20" as="geometry" />
        </mxCell>
        <mxCell id="a-21Tg05XktNHDUC52Gq-115" value="" style="shape=image;verticalLabelPosition=bottom;labelBackgroundColor=default;verticalAlign=top;aspect=fixed;imageAspect=0;image=data:image/png,iVBORw0KGgoAAAANSUhEUgAAACoAAAAvCAYAAACVDljoAAAAAXNSR0IArs4c6QAAAARnQU1BAACxjwv8YQUAAAAJcEhZcwAADsMAAA7DAcdvqGQAAAJ4SURBVGhD7ZlNzjFBEMfLewNxAw4gEYmVjUQcgStwAYlY2nACrKywsCURS2JlQWLLCXwcwTv/Ue3pMd0zPnomz5PML6moLm38p6erukTsZkF/gH/8+uuJhJomEmqaSKhptELH4zHFYjGl9Xo9nvWDap6w2WzGs74ABV/HcrnEYeAwxFQcDodbKpVyzM1ms9r57+IpFJRKpccXV6tVjqqBMDEXnzudTvzO9/gKlVdpOp1y1I28+n439Am+QsWXw3QrhLi4oSBEgpf3KB6rDrE9ghIJPIV2u92HUJ0IxIMWCTyFlsvlh9DRaMTRH8ISCTyFyom03W45eidMkUArFHVRiIQJkDhhiwRaoShFQiSSBSC5RK3EtggT7RG63+/ZI5rP5/ZRmM/nabPZcDRkWLAL+UTSGbZHWGhXFKsosB45bsh+lZlMJuyFwF2vE2Q43hImIxIJhqoQFkqhcqEXiSR4rgaq+uoFqka73b7F4/G3Oivlo9/tduwRFQoF9u4kk0myxPOIaDAYsOcPetxcLkf1ep2u1ytHX4QFO5DbNVXHJPcAML+kksuabO+sqEsoHo18MV3HJJ9ajUaDo25EPcbjxrXkm/xKqHwhr44Je1PMw37T3RCQj99Phbr26Hq9Zo/IWjX23BSLRbIE2j7222KxsH0V6XSavc9xCe33++wRZTIZ9twkEgmqVCo8Imo2m+wFg0Nop9MhKzF4dBd9PB555OZyubBH9udqtRqdz2eOGIa3gKP3fLbnFg8gOVRzYV4YS6agMZZMv5VIqGkioSpWqxW1Wi0eEQ2HQ0cD5AknVaC88mvhuZ18Jvr7xjSRUNNEQk0TCTUL0X+nHhgvd5WxxQAAAABJRU5ErkJggg==;" parent="1" vertex="1">
          <mxGeometry x="570" y="-530" width="17.87" height="20" as="geometry" />
        </mxCell>
        <mxCell id="a-21Tg05XktNHDUC52Gq-116" value="(0, 0)" style="text;html=1;align=center;verticalAlign=middle;resizable=0;points=[];autosize=1;strokeColor=none;fillColor=none;" parent="1" vertex="1">
          <mxGeometry x="117.4" y="-520" width="50" height="30" as="geometry" />
        </mxCell>
        <mxCell id="a-21Tg05XktNHDUC52Gq-117" value="" style="shape=image;verticalLabelPosition=bottom;labelBackgroundColor=default;verticalAlign=top;aspect=fixed;imageAspect=0;image=data:image/png,iVBORw0KGgoAAAANSUhEUgAAAIwAAAAyCAYAAACOADM7AAAAAXNSR0IArs4c6QAAAARnQU1BAACxjwv8YQUAAAAJcEhZcwAADsMAAA7DAcdvqGQAAAkWSURBVHhe7Z05ixRPFMBr/19APGIDj8BABE8QEw1UzARFBUNBNBQ80FjRL+AFgokHrIGJigoKXqioKCgKHoiIkecn2H//aurtvqmp6q7u6dnt2e0fFFvTR033q3fV6x52ZCzDtLQk8p/729KSRKswLaVoFaalFEOrMI8ePTKbN2+2babw5csXc/XqVbN//3573yMjI+Nt0aJFdjvHDBSS3mHi8+fPY/v27SNRt23Tpk1uz/RH7pl26tSpsZ8/f9rtr1+/Hlu5cqXdPnv27LGHDx/a7YNgaBQG4SAkLTTaTFSYo0ePui0TYEiyf+HChW5r/QyFwpw9e9ZaDo3+jRs3xoUzExVGPIsPsig6pl+GIoeZNWuWycKQ+fjxo9m7d6/ZsmWL2zOzyObLtrlz57otcd6/f+96NWPVpka0a9QN71AnMm5TPQxhQd+/NPKNQSF5DG1QVPIwskIJsWDBAmsFWehwWzqsXr3a9WYGnz59MlnyaTJDcVs6LFu2zPXqhTl58eKF7WdGZP+GYN7evHnjPlWgozdpEBex6B07diTFSIaXRsJaJzJu03MYnVcM8lr1KinPi7EP7xdKnFNI9jBo5eLFi60HoRaQEkc1a9eudb2Zy4YNG1yvXqi/iHc5ffp0rhdj37Nnz8ydO3fMqlWrzK9fv9yeRJzi5IJWornUP1KhFsDw0urO2mXcpnsYLQNWd3WjSw1XrlxxW4thPvA0RR7Jp1BhRFlweWVg+Ss3UvbcFGTsJisMspPrpNVtNCiIjF0l5Mv1MT+p15arMKKFDFq2ekieIzdTxjOlImM3WWG00dRdTNPK0o98xUOlyjFXYaQEX2VS9LKyjKtMRcZussKI/Gh1Go0uXPY7Lk6BCMJYKHgRUYXROUjZCfdrMXyuGxm7yQozCKORFIEx61JCVkyMx7hFcxVVGCZCbrZs7NUWwEX4MJ7s91vqck+Ob6rC+PcYSix1oU23vJxPzondt3iMMjmNdg5FShhUGD1AlQkRjaWRy4RAk8VSpPE5JNgQcs4gEuo6KDIaYHK1YUqLeSPJN/BcMSOWY8rmnPr7Y2NDsA5z+fJl1zNmxYoVrpfOy5cvXc+Y5cuXu1431HPmzJnjPhmTTby5f/9+YSWUiiZ1B4H6w7lz5wb/HkhJ3r5963rxKje1LOQgZIplMkUzO3fudFsmoF5y8uRJ28+MzcybN6/rfRhphw8ftseUJVNc1zPm2rVrrhfAKU4X2vKrxF45lxbTdG2BWFmeVoMeM69V8YiDQHuOWHjQXhavkedd9YorpZX1MDoq5HntHoXR4ajKF/vnh9CJW9USddPRMgjJEAPR+UiRwQwaCWXSYtfTM6OpJ8YoKtjhsVAWWl0rh6aBQeTJkP2ygmqKwaQ6ip4c5tWrV67XoewzI/IQYePGja7X4dixY2bXrl02d+G4UKyeDjx9+tT1OrmZliHP4davX29+//5tMoMxx48fd3uaxZMnT1yvmx6F+fv3r+tVQx6CwdKlS22yhpB4SfnEiRNWgDz8GtRj/iagXx/gAR/cvHnTvlqAwUDTDebfv3+u5+E8zTg6WQvszoUkTp8barFl9nRCF+xCjXDcNAib+hpji4dKL1DF+PDhg+sZkwkNbbMty2vcVmMfq09n8KgsewX6yCDLW9wWY/78+dPfS0wDIDX1qFVhHj9+7Hrd+Qvv4QpVhUWdhfoLoU1qDrh4wl2TINwKGI3UWQjBmdXaPug8pwzcr/5N0qT9HslRq8Logp2fo/QjLBSM3AdhXbx40Voslos1kxPoQt5Uowt2XLNGv0ClFwepcJ/cL0qYhRArh4MHD5ozZ87Y7+rHa/kKFy3YZl/ahX7CGtidiz7PX5bp5XosPoYgtkrNxh9TL19TnrROBjoH9At2/tK1DCK/kOzkVRJyp7JlEMG/Nv/ahZ6r9uswJLIpFAmjqrDkejILclu6YTv7EVYT0PfoKzgU7Q+hjYYKuY+umletbfnzE/oe6AlJ/ru3P378cL183r1753q9rhjWrVvneh14JpTC+fPn7V+/piNs377d/iVEpY45KPyQsGTJEtebQIfmWK3D5+7duzb3gzVr1ti/Gv07LUJ2Fb5//+56HULfAz0Kw8Rm2uw+dStCHjomS+3BRwvr1q1brtdZWYR+/sBnWXHwY7YQWsGLJoBaiCTNff/cIoDOzUh4QysPnceMjo66XgdylFASf/36ddeLr2ZEtrdv37Z/y/Lt2zfX6y02aoJJry4o6YHy0AW7WFFu69atrmdsooaikGwxedyo/2s9/Xn+/PmuF+fr16+uF2b37t3jCsj3UXGtc3WhFTDkZUEbDTLDKyIHlAWZPHjwwO2dQGSLEqZQ5Z7u3bvnesbs2bPH9QK40NSFTiZjuYOGPEeOp8Vis47FurEtdI7Op/LGlGNCCaFGjtOtzmc55FEybixpBK5TX4O0WOIu+/PuTz9tTs2NNHpe8vLWoIfRNQO0GwvIQxfswM9XBNwcoUusj9CX3aj9zXTsnCJSC05AAZHvlO8FXQroB2Qk3gvyfod16dIlk61s3CdjfzdOYU/Xq8oSC9kp4BklR+Ja9Ds6PTjF6UFnzVP1VDnFw4AcU+RhfDhnGB5VpNxfqqxCyLl4mTzvAtHCHRYvVlg1824y4jXJY2Y6shI9cuRIvnfJiCoMHDhwwIYPEsSpWLJqNxtbrekEr8zrpBcuXLChadu2bW5Lc+E64fnz5/ZvCJ3wh5bzMViVEUpJQQ4dOuS25uA8TRQSYFxVP1XEquiwGEsi9TGp1V5CLMeXdd1TBaFI7jGGHMNcpcJ8Mq9l5jap5CpKM9nxXq+AYt8tk08rir/sZzWBgLinYUGvgGLXLSu0Mr9VQqbMaxlZJCkMMCgXVeaC6oCbQhAxy5FnXykJLyWCqUrg+wHZi8KEvCiGIPtTvSZyQx5FRuaTrDCAxfNFTM5khScdcvzJ5hpQpDKCGlYk5GC0PrLKSTEaFITj8FpV5rCUwghMzmSGJwk7KIcoBjeOhYQUaTrC5Mr9YrQy2XgctrEvRQGYt36Mq5LCTAWipAhHlKffmx82UAi8ieQroihsq+ItqtD+N5OWUuTWYVpafFqFaSlFqzAtJTDmf3CYtXUX0lVgAAAAAElFTkSuQmCC;" parent="1" vertex="1">
          <mxGeometry x="181.35999999999999" y="-627.87" width="40" height="14.29" as="geometry" />
        </mxCell>
        <mxCell id="a-21Tg05XktNHDUC52Gq-118" value="" style="shape=waypoint;sketch=0;size=6;pointerEvents=1;points=[];fillColor=none;resizable=0;rotatable=0;perimeter=centerPerimeter;snapToPoint=1;strokeWidth=0.25;" parent="1" vertex="1">
          <mxGeometry x="217.05999999999997" y="-630.17" width="20" height="20" as="geometry" />
        </mxCell>
        <mxCell id="a-21Tg05XktNHDUC52Gq-119" value="" style="shape=waypoint;sketch=0;size=6;pointerEvents=1;points=[];fillColor=none;resizable=0;rotatable=0;perimeter=centerPerimeter;snapToPoint=1;strokeWidth=0.25;" parent="1" vertex="1">
          <mxGeometry x="137.4" y="-530" width="20" height="20" as="geometry" />
        </mxCell>
        <mxCell id="a-21Tg05XktNHDUC52Gq-120" value="" style="shape=image;verticalLabelPosition=bottom;labelBackgroundColor=default;verticalAlign=top;aspect=fixed;imageAspect=0;image=data:image/png,iVBORw0KGgoAAAANSUhEUgAAADMAAAA7CAYAAADW8rJHAAAAAXNSR0IArs4c6QAAAARnQU1BAACxjwv8YQUAAAAJcEhZcwAADsMAAA7DAcdvqGQAAAP0SURBVGhD7ZpPSjsxFMdff3sF8QbqQkFwU9wILly0vYB4AEHRCwi9gReo3kAPUBe6qKAo+A8UBVe60aWiN+hvvjPvtWlMMpn5tZ38pB8IfZNMp/lmkvdeoqV2BP0S/vDnr2AkJlRGYkIlKDGvr6+0vb1NpVKJazIC11w0Hx8f7Xq9jhDRKXkoXMzu7m57YmKiR8h/J+bg4KA9PT0dd3xra6svb6awDKBWq8Wf0ZuhhYWF2FbXSp5uFSYGi31qaoqvEv5VTKo3E++iFxnZvOhC+kGqmEajQS8vL1StVrkmYWVlha2AwDTz4ejoKF6YUs7Pz7mlf6jPz4N30Hx7e2MrYW5ujq1w8Bbz8PDAFlG5XKbJyUm+CgdvMTc3N2wRVSoVtsLCS8zn5yfd3t7yFdHS0hJbYeEl5vn5ma2E2dlZtsLCS8zl5SVbRFEKMpAY0Q+8xLRaLbbM6wXR3BRYUWZmZviuweMl5vr6mi2i5eVltrrgTSGwRtkv13TZ2NhgKxtYp5nheGPl/v6+J5jh2oZkwShI65EZp4G9DALw2tpaz+8gk84amFPFoENqB22oGUIUh5yiAToq9/sUH2GpYjBC8kCMngn8kGywcD9GuwhSxWCURcz+/j7XdkEd2nyn1SBxisEIixAU9VWjTea5z7QaBk4xeqYMIq/Vs28vclrpOF3z09MTWwmIGwiaOzs79PX1FddFooJJOp1i1GCJvXokPi7R9OJaopOTE7YCIH4/FtAsRV0vulvNO80wZTFN1fiE9QenkueZVjF6sNQfrrZhbWUF38G6Q5GBgjjxnvjMKsgqRlwuCkZOp1qtdtpx5pUFdFociPrGAQRIG34jC1YxacESHk3aMYpZkIGwfU89ENTFurCKUecxOq6ju23fKYG34nouUNekLeswYRSDjsnDUExrwuceE+r0dX1H7sGU88Xomq+urthKMO0sEVuiacJXRM1mk60EHB4eHh7yVZfT01O2iMbHx9myg3jmux0wirm4uGArCYq2neXq6ipbFHccmzQUnHbu7e3R2dkZt3b5/v5my4166Khv220Yxdzd3bFFtLi4yNZP1tfXOxsyjCCyAxRs5qLpFJ+G6uTadHliFHN8fMyW+xgWUw3TRqYbhEVeMD7J2dzcjOt01FOevsNrZ2ioXtLldtU45uuenbnZIMhzwDE2NsaWm6GL8UVdW/LHqDSGLkZdg+/v72z9RNaW6v7TGLqY+fl5togeHx/Z6gXuXch0rs1rZ6hIImlKYIF6IoT0x5dCxKgpjclTicfLmo0XIgZIVo63JDmabNZQj8+sFCYGQISc8EjBdd4jq9F/AobKSEyojMSEykhMqPwiMUR/ARwIXRbQlJAcAAAAAElFTkSuQmCC;" parent="1" vertex="1">
          <mxGeometry x="217.95999999999998" y="-511.06999999999994" width="18.21" height="21.07" as="geometry" />
        </mxCell>
        <mxCell id="a-21Tg05XktNHDUC52Gq-121" value="" style="endArrow=none;html=1;rounded=0;" parent="1" edge="1">
          <mxGeometry width="50" height="50" relative="1" as="geometry">
            <mxPoint x="227.7" y="-515" as="sourcePoint" />
            <mxPoint x="227.7" y="-525" as="targetPoint" />
          </mxGeometry>
        </mxCell>
        <mxCell id="a-21Tg05XktNHDUC52Gq-122" value="" style="endArrow=none;html=1;rounded=0;" parent="1" edge="1">
          <mxGeometry width="50" height="50" relative="1" as="geometry">
            <mxPoint x="142.03000000000003" y="-620.4599999999999" as="sourcePoint" />
            <mxPoint x="152.29" y="-620.4599999999999" as="targetPoint" />
          </mxGeometry>
        </mxCell>
        <mxCell id="a-21Tg05XktNHDUC52Gq-123" value="" style="shape=image;verticalLabelPosition=bottom;labelBackgroundColor=default;verticalAlign=top;aspect=fixed;imageAspect=0;image=data:image/png,iVBORw0KGgoAAAANSUhEUgAAACsAAAA3CAYAAACVSbMgAAAAAXNSR0IArs4c6QAAAARnQU1BAACxjwv8YQUAAAAJcEhZcwAADsMAAA7DAcdvqGQAAAPwSURBVGhD7Zk7TvNAEMcn3w0CR6BKRcGjgJ4APY+eiitwA27ADaBIQRGaRAKJlwSiAIEEBVBR8jhCPv83M2Z2vbt2UOwQiZ808rDe2H/vzs6OTa2XQGPCPz6OBX9iy+JPbFlUmg0+Pj7o6uqKHh4e6Pj4mJ6fn+nl5YXPEs3OztLa2hptbW3R5OQktyogtiqazSYGxlgirHd2dmba39/fe/v7+716vW7O4Zg8hDmnGYnYqakpI9AFguVhNjY2uPWbkYiFqBAiFuby63awWq3GnlHLXp/xTl2vr6/m6Xx2fn7Ovcrh4OCAvX5myIAw8KGDXaxMsOCw8OReR0dHfOabqAKkF/kxFkeZbG9vp/eC7yMqVvIebGdnh1uHz97eXnqf2KAExSIpywVgvmkZBjrcMJO+/CsExUKcFhu7yE8ZRCgIisW06wsNm0GFgqBYvY+HAv6n3N7epuuhqFAQFCtCYbHtcVAgTISGaoQQXrGohrRYXwWkU41rsYeTGYNgjLAPWdzIEhqvWJ1K8PQhdFyLYVpDInSchrILRhoVF/pICSl4xUpnmK9UE/TNYRi12LTqHaqIFRKrL+pOhQajKP12d3e51Y8bWkUsV6y7GfimFKMnMYvYcy9aFhmxejOAEBc8jIxo3rQPm4xYvWjcfRoPImknb9rLICPWF4cQqVNOVdPuknmtQZGdRzL1/lflkrHeFNw3ATwHLFlk3NIH7/6jwBJ7eXnJHlEy7ewRTU9PW39fXFywNzgYkM3NTZqYmEhfl/C3fqUJgjAQ9GbgFtuIXzmHuP4Jcg38XrZwxL8s2ryCyRIrP4K5+7ub1AdNWZIScQ/3t/rasSyTii2yGejzob3dB8TJQIRejyQL+R5GSGP2+vqavT6IU5fkguwNFrfdbpe+vr6Mv7KyYo4u+CAH0K/VahnfJRV7f3/PXuCdPWFpaYk9ok6nw14+h4eH7BE1Gg32bBYWFtgjOjk5Yc8mFatvPjc3x57N4uIie0Q3Nzfmg4hwd3dHy8vL5rOmi752kfychCR7DogFxAhcsVClpWMPJvGH/miH5cV6jLx+ptVd6bHtVKcwbdiOJR1p3IGIkdfPtLoC8sCIyghjFcdeY9yBiJHXr/RPnojrpJjnv4wK9rLousTXr5Lvs3kiBOmXzBp9fn4aX2PVBqNEZ5H5+Xn2bCoRq4sgne40j4+P7BHNzMywZ1OJWH3zp6cn9mze3t7Ys/O5phKx6+vr7BG12232bE5PT80Ri3F1ddX4GbDAqkDKT6Q8t1DRRVSsQKpMLARKZYWj7HQ4SnssX4PKxArYmkUcDCONoju2awq/7v9gMX5Nni3Cn9iyGCOxRP8BIrpql01i34IAAAAASUVORK5CYII=;" parent="1" vertex="1">
          <mxGeometry x="121.52000000000002" y="-630.17" width="15.64" height="20" as="geometry" />
        </mxCell>
        <mxCell id="a-21Tg05XktNHDUC52Gq-124" value="0.01" style="text;html=1;align=center;verticalAlign=middle;resizable=0;points=[];autosize=1;strokeColor=none;fillColor=none;" parent="1" vertex="1">
          <mxGeometry x="195.21" y="-490" width="50" height="30" as="geometry" />
        </mxCell>
        <mxCell id="a-21Tg05XktNHDUC52Gq-127" value="" style="shape=image;verticalLabelPosition=bottom;labelBackgroundColor=default;verticalAlign=top;aspect=fixed;imageAspect=0;image=data:image/png,iVBORw0KGgoAAAANSUhEUgAAACMAAAAsCAYAAADvjwGMAAAAAXNSR0IArs4c6QAAAARnQU1BAACxjwv8YQUAAAAJcEhZcwAADsMAAA7DAcdvqGQAAAKuSURBVFhH7Zi9ampBEMfH+wCC+AZqYyX4VYik8wOLdBL1BUx8BHsLfQBRsFc7GwUVbERIIZIUgiBaWmmhL2DOjLO5557s6onJyU3hD5aZ3T0ff3dn5izajhrwS/jD9ldwE6PiJkbFj4rp9Xrg8XigUqnwiAFMbasZj8fHRCKBJYQa9mVYujLr9RoKhQLc399DIBAAh8PBM3IsFbPZbEjAcrmEUqkE4XCYZxTwCkmp1WrvSyvaarXi2c8jtuqqbcrn86C9HNxuN/XxV7pcLvKt4OI24csxA5B4PE7WKkzFTL/fJ+v3+8laxUUxr6+v7AFEIhH2rOGimOfnZ/YAotEoe9ZgemWCwSBZK7koZjAYkDUGb71eB5vN9k/Dcm+Gw+HAngFOcSnb7fa9vjSbTR79i77EPz098aicbrd71EoDXfvw8CCtV2fF4APEy4w3o1DxcCyOKsT9qlYul/nKC2LwQrwBX6oHhWgxROOqanoNZ2NmNBqR1ccLBnQymSR/Op1+b4axKCk4jQ1XCFcDLa4Gxgf2vxulGFx+IcbYzsXIV1Bu03w+Zw9AWwUUDVr2UL/RaJA1i9hasb1KTpo+gumH0xioAv2Rwsw2YQbilop79JkjQ7kyGJxIKBQii8RiMfYAhsMhex/Z7XZ0zhVV22z1lorB4yKeY5C7uzuyCB4nxNmm0+mQRbAat1ot7p2YzWb0g6rVKqTTaR49j1TMYrFgD8Dr9bJ3QqR5u90m0Sji8fER7HY7jSNOp5PGP3sQk4qZTCZktTQGn89HviCXy7EHtErZbBa0TwWkUikevR6pGPFxlB2gscgVi0XyUSwKyWQy1P8yHMiWIj4rV2fT/+AmRsWPitnv9+wp4NixjJeXF/qk4Ku0UkB9FZaJ0R9JZQ3njdz+7VRxE6PiJkYOwBsegMAbNKMU4wAAAABJRU5ErkJggg==;" parent="1" vertex="1">
          <mxGeometry x="241.99999999999991" y="-512.48" width="17.89" height="22.48" as="geometry" />
        </mxCell>
        <mxCell id="a-21Tg05XktNHDUC52Gq-128" value="" style="endArrow=none;html=1;rounded=0;" parent="1" edge="1">
          <mxGeometry width="50" height="50" relative="1" as="geometry">
            <mxPoint x="252.02000000000007" y="-514.71" as="sourcePoint" />
            <mxPoint x="252.02000000000007" y="-524.71" as="targetPoint" />
          </mxGeometry>
        </mxCell>
        <mxCell id="a-21Tg05XktNHDUC52Gq-129" value="" style="endArrow=none;html=1;rounded=0;" parent="1" edge="1">
          <mxGeometry width="50" height="50" relative="1" as="geometry">
            <mxPoint x="141.91000000000003" y="-657" as="sourcePoint" />
            <mxPoint x="152.17" y="-657" as="targetPoint" />
          </mxGeometry>
        </mxCell>
        <mxCell id="a-21Tg05XktNHDUC52Gq-130" value="" style="shape=image;verticalLabelPosition=bottom;labelBackgroundColor=default;verticalAlign=top;aspect=fixed;imageAspect=0;image=data:image/png,iVBORw0KGgoAAAANSUhEUgAAACIAAAAqCAYAAADWFImvAAAAAXNSR0IArs4c6QAAAARnQU1BAACxjwv8YQUAAAAJcEhZcwAADsMAAA7DAcdvqGQAAAKGSURBVFhH7Zi/rgFBFMbH7RWiU6IVieARUGqEXiLhEbwBevEGRE9BodCJCFHzBEQ8gbvfuTPX7JhlsHvdYn/J5Jw9u2u+PWf+ReBiwf4BX9x+HF+Iii9ExTMh4/GYNRoNlslkWCAQoBaPxyl2PB75UxKYvm7TarWwJFxCodBlPp9TbLfbXfL5PMXT6TTFZDwVIkQIIAZx3T1PhNzDSYh2jFQqld+6itq6gTw2IpEI9zhc0A1QjNto5XKZR99DlKzZbPLIlbulEUJ6vR6PvI74MKePMsqIWs9nWa/XNIMwWw6HA4/acRSCLAgh72AiAjj2ghRCBOb+q5iKAI5CYrEYCdENLBPQMX7DRATQCpEXntFoxKM/iEzJTdcRnoMQ9R6ukWXMIBmtEHQuOoEoFVlEv9/n0Svy+07NSAjKgYfxRSpiNsn7iIrYU+419V2tEPFD6pyXB58uU++gFSJUywsZ0g0R9XrdaPA9y40QdSHDl6NzVZjb3AgR+4GuoTRecbP7rlYrstY4gEhmlYFZJaHYcDgka8pms2GFQoHaQ370XME4QFheyMTagUFqglxONHWq6rBlZL/fs9PpRH4ikSALisUi2eVySc84gfNGu92mbAJhTbAJWSwW3GMsm81yz+5Pp1PuMToII/0yKC0Ed7tdViqVePQxNiHb7ZYsxkQ0GiUfwLcWN/I7nQ5ZiBgMBiwYDNI1CIfDFJPfNcUmZDKZkM3lcmRlarUaWav+dHxEh7PZ7KVOdfwKQX2RUpBKpcjKVKtVZq245CM7EJFMJunaFfig9QSxJj09az6JL0TlT4Scz2fu3YGPFdfBBoktAV3ggPVow3RdyKPTGe7r8P9VVPGF2GHsGxnuoQizXwTMAAAAAElFTkSuQmCC;" parent="1" vertex="1">
          <mxGeometry x="121.40000000000002" y="-667" width="16.19" height="20" as="geometry" />
        </mxCell>
        <mxCell id="a-21Tg05XktNHDUC52Gq-131" value="0.0125" style="text;html=1;align=center;verticalAlign=middle;resizable=0;points=[];autosize=1;strokeColor=none;fillColor=none;" parent="1" vertex="1">
          <mxGeometry x="59.99999999999999" y="-635.17" width="60" height="30" as="geometry" />
        </mxCell>
        <mxCell id="a-21Tg05XktNHDUC52Gq-132" value="" style="shape=waypoint;sketch=0;size=6;pointerEvents=1;points=[];fillColor=none;resizable=0;rotatable=0;perimeter=centerPerimeter;snapToPoint=1;strokeWidth=0.25;" parent="1" vertex="1">
          <mxGeometry x="240.93999999999997" y="-630.17" width="20" height="20" as="geometry" />
        </mxCell>
        <mxCell id="a-21Tg05XktNHDUC52Gq-133" value="" style="shape=waypoint;sketch=0;size=6;pointerEvents=1;points=[];fillColor=none;resizable=0;rotatable=0;perimeter=centerPerimeter;snapToPoint=1;strokeWidth=0.25;" parent="1" vertex="1">
          <mxGeometry x="217.20999999999998" y="-667" width="20" height="20" as="geometry" />
        </mxCell>
        <mxCell id="a-21Tg05XktNHDUC52Gq-134" value="" style="endArrow=classicThin;html=1;rounded=0;entryX=0.994;entryY=0.828;entryDx=0;entryDy=0;entryPerimeter=0;endFill=1;exitX=0.642;exitY=0.457;exitDx=0;exitDy=0;exitPerimeter=0;" parent="1" source="a-21Tg05XktNHDUC52Gq-132" target="a-21Tg05XktNHDUC52Gq-133" edge="1">
          <mxGeometry width="50" height="50" relative="1" as="geometry">
            <mxPoint x="301.99999999999994" y="-579" as="sourcePoint" />
            <mxPoint x="351.99999999999994" y="-629" as="targetPoint" />
          </mxGeometry>
        </mxCell>
        <mxCell id="a-21Tg05XktNHDUC52Gq-135" value="" style="shape=image;verticalLabelPosition=bottom;labelBackgroundColor=default;verticalAlign=top;aspect=fixed;imageAspect=0;image=data:image/png,iVBORw0KGgoAAAANSUhEUgAAAGkAAAAlCAYAAABBGMctAAAAAXNSR0IArs4c6QAAAARnQU1BAACxjwv8YQUAAAAJcEhZcwAADsMAAA7DAcdvqGQAAAZCSURBVGhD7Zu5Sy0/FMfjrxcVOwsLl0JEFFEUl0ZwKQUVFywFcSkFQVsRFGxdwNYNLN0tBBXBDbSyEMVCrBT/hPvmm3vOfblzM+vNPOcHfiAkN8nEkzk5JzmZ93ISFuKXWPMf5b/EmF8lGeDg4EDMzs6Krq4ukZOTk0oDAwPi8vKSemUB3F0c2draShQUFCQuLi6oJp5APrxGyAqZwefnZ2J1dVXWI2U7h9gpaX9/P1FaWmpsglHDSmIFqdTV1cm2sbExqgmHb3cHsx0fHxf19fVUYxaMD3cxPDwsysrKqDb+tLS0YKFL12anr69P5q+vrzJXQR3mCTepa1fxVBIGgACtra3i5OREjIyMUMtf7L4YKagvnpubE21tbeL5+VkcHR1RbbSYkNuNt7c3mefn58tcJS8vT/T394uVlRVheQ6xuLgovr6+qNVG0qD0PDw8SF+LbjMzM9LXOsFmzylbeJyo3Z1puRm8K353bnN4eXlJWMqS/eAede/YUSpVQTp/q4Mn2tnZSTXh4bGiVhIwKTeDfQhj+t2PuL9OUVolqatgYWGBat3BiuDJ+n3GDR4raiWZlhtgUWM8WEgQsEjwnH2xaJWkmp9fWDAknNCyhceKWkmm5ebxnFyXG1gwbBw4wjMZSlJ9dBChsWfxc0GF08FjRa0kk3JnoyCG5YGyeIwMJbEVIVYJAgQL85wTGAspaiWZkpv38GwUBFT3y9aUpiQMzh2g0SDwc/aNUrVMNWFSbnC/qJXEfycbufHeTCiI4YWDHKTFSaenp1QSorm5mUreqLFFdXU1lZIg2LPcAP1KYr2QjH4/gSm5JyYmZL6+vi4KCwtlmdne3pbxVxA6Ojpkfnd3J+PUNCWdn59TSYiGhgYqeXN1dUUlIRobG6mkx7JQsby8TL8ygVBra2v0S4jNzU3PiDwsJuSGond2dsT397eoqanJCI4HBweFZWXU2x+qgdzc3Fg2pcBHQKQg8D6me45dAdqwsTrh5F7UZOqIzJiQWx3DKQWNv9R3gTmnSccN7Av9wpOxC4NNEGOhPeq9JQxxlVs9G0A27d2d3a+6AVcEUwe4e2PgBqyJyrazszPp4+NEnOW2v3/ft+BOSJ9JNDU1ycnjshAXsrg4vL6+jsUhwc7/Sm6yMAl+IgXxoXznpEvw13El7nKzLI7uLgi3t7cyh4vA2EjWwLIOnzbiikm5YYH4NsQnOnzaeXx8pFYDWMKlwE8kv9G3usGpwWA2n46xaWMlB7HmoJiUmy2ST4B4DgcOJK+A3Qn11iHDknglWZ1k7sXT0xOV0oNBNeY4PDykkjv44IUvv9gPEHdEiSm5Eajio52lqNSXWRw0EE/h4NHT0yPrgvLx8UGl5KEmTUklJSVUSp5+vFCDwcrKSiolJ26tJFn2ch1QDtxFeXm5dEFQUtSYkBssLS3JfGhoSOZMe3u7zLHYw7i99/d3KglRXFxs2ZMCTNaql8nPDThMkfvbUYM8mC+DetUNwD0gJmH3IoM365kg7s5NDh0m5FZdJsp2MCe0hQnA1Zt5yJBmSbwCwN7eHpWc4WMsu0mV7u5uKgmxu7ubcmdYobm5udSSdA+wIFPxiHof54QJuVWXqYsruY7/nUMQ2N3jUCO9GykvBa8kbHxuYFWhH5LuxhyrC2NwHx7TazPN1pK8NnxTcuPvcLsOfo9B5gFU+fhTRcYRfHJyUubY+LAxOqGupKqqKir9BSsJGyjvMZbQ8lY36gCxoqKCSnr+ldy1tbVUCgZfLlsLQ/T29sqydhnwKvB7FDdJGEvila8ep6PGy5J4XwkyD+w/PKb6+VwbzM7Pz0tN4nSCk1ecgbXD6iHv1NQU1f489/f3MlfvBb3A3gcsxYrR0VFZBlolYbPC5SImPj097er2fhIcbzExyAl51RAiaoqKiqjkHq7gH0H6AfM4Pj6Wh4WNjQ2qJciitGATY1cS5igZhiDuDvKhn+4I/C/AdgBZdeEKvzf1GK8D7ZgD+uLYrpuLq5KAOgiEUn1lFITZk34KltW+F0JpXnOAMrBvsTJRdlpsnkpisFFCGGg7KvA3OAiE8Cb+HVyU4KWyvLx4sahRB/ndrAhtWPRQjls/4FtJUcKW6pbiChSFxcsWgRy/nawiDL//Zzb2CPEHlmxFY2DrSvUAAAAASUVORK5CYII=;" parent="1" vertex="1">
          <mxGeometry x="258.5" y="-610.41" width="32.01" height="11.28" as="geometry" />
        </mxCell>
        <mxCell id="a-21Tg05XktNHDUC52Gq-136" value="" style="shape=image;verticalLabelPosition=bottom;labelBackgroundColor=default;verticalAlign=top;aspect=fixed;imageAspect=0;image=data:image/png,iVBORw0KGgoAAAANSUhEUgAAAGoAAAAlCAYAAACqL3wuAAAAAXNSR0IArs4c6QAAAARnQU1BAACxjwv8YQUAAAAJcEhZcwAADsMAAA7DAcdvqGQAAAZ/SURBVGhD7Vu5SjRNFC3/XHB7Aw0UEUVUBBdQcAkFAxcMTfQBFHwDBVOXwNQFTN1BwS1QA0VBAxUjI8VH8OtTf53xTltd0zPd047ggaJvV3dX3/3e6tGiTw/qDwWP/8zxDzni/f1dra+vq8nJSdXc3KyKior0KCsr03PPz8/mzohARBUa3t7ePmdnZxHpZqZwQT6bmpo+T05O9NzT09PnxMSEni8tLdXyREXBaQKCQzgI+ZsMBeNIwDiUYW1tzczmjoLRBISprKzUA975WwzlQl9fn5YBxoyKUJqAt8zMzGgl+j0HIENyMA2EAbwPa9Pz8CzXySckv/l4H2TCmktLS2bmC3BGpMewenJyJmsF0hGMFZRvpXKjCpyUoQDKhwGHiwuUIahGwXg05NDQkDUAJAI1gcWZgiBApoWAuARO0lDyXXGkKEDqzlWf/IFwfX1trnyHVRPyRQjPMIAh4xI4SUNBkXwX3hsH2PHZUp4N5MFlLKsmWHOyiQwp8NbWlpnNDUkaikrFsKWobMH1wjo4ISPLxsc3TcAL+ECYdEegfsUlcJKGYubAMSpyNRJBXlCz/EjTBBQMA+FmKD4b8CUokFGRlKEgL9+Tq3IJZpQo6yATkR9/Gk7TBKMJI5toAvicn1GpdDlchTMpQ8n3+Iu+7AY54MQ2cJ2oxgZkJyiRpolc04AU2FZAZf3CyCRQUoaSxrA5DvjkdQy/MQFEJZQLndlSPtbIptYHlZDUR1l8PLy6utJ0b2+vPobF+fm5oZRqbW01lB0eI2phYcGcfcfNzY1aXV01Z0otLy/rD5/5wOHhoT56kaLq6+s1bQOue0ZSw8PDZuYLKysryss+WncVFRWpj7Ici4uLqqSkxNydGW1tbYZS6uDgwFAejMEidW0IUz7rh6x7No8kbKnGPxBpcYJ82TyeUY17XGmaa7hGNtuVoLqZ0qxUVLYKCRIYdQ4pAdfjVnJUQPmU169I8AqewXu2tToOkC+pz5ShMMkbbLk2CBCEz0mBKSzyt8sjfwoyg0gnYkMFfWSjhzjBXgGDsBoqG/gFhuEYnUEFthAgGwUAzsQUnqnZyTdstoj8C+/x8bGhlOro6FBeBKnp6Wl9Drq8vFzThYb9/X1DKV30Gxoa1MbGhj53NRY/hciGury81EcvemB+PTyP0HNSGWEwNzenqqqqUh0Tuix0gXEDXSQ6NQBdKHj2Il93d8DR0ZE+FhQQVkAuqS+oQ5Eb57BNBFMRO0PWOIy4a5z8AiA7UVf3mglYB7yGldeF0Kkv7B9k3N/fGyo9Xci91M7OjqGCgT8OwX7DM1Zqr9Le3q73Wx8fH2pwcFDPxYW7uztDKVVTU2Mopbq6ugyl1Pb2tqHcwH3IAiMjI5rXOPD4+GioL6QM1d3dbSilXl9fDeWG3OjW1tYa6n+jMY2ESX/z8/P6ODo6qo9ET0+PPiJNxZkCudEFghzs7OzMUHacnp6q/v5+NTY2pg0VJ5iWWUI0TGSldW8yHbjgSpcyjaATJDAvU5lMn7YOka2qa9PI58FPGLjuR/rCNWwrCPCFeyV/OAdPnOOaUVMfdMW1ZDlJRVRLS4uhlLq9vTWUGxcXF/roMa2PEgMDA4ZSanNzUxdw/J0bIqy4uNhcSU+ftg6Rcy8vL/rowt7enqGCISNTZhGCqRdejahBGUDkgH/J3+7urpqamoq9q314eDCUUp2dnYbyYAymQe+V3hQEubO3/SQCT6N3ctgaA3ggr9vAyHRFC58PWkNCNjq2T2WSH44w+0HeGzWi2FRhyHemNRPj4+P6GKYmyEioq6sz1BfgaWgGsJcCPIXrD5fZ7lEaGxsNlRnYImSClKu6utpQX0ATg5YdNRYDNKIn7sgJAhorAPpKe6cxmIaMApkf84lMEYVoxbWgiJKRHba25gPkIUpEyT7Bv8437UT58TAXZDIUDIRrQc0EUwXS00+CMkQxFEoO1kC698OqHdYqV12IC7LLsTkGDeX6QTJMDck3KEOuhuL3UWQ0myxWQ+FGGiuJFEhPshV3pmKbEWGopFJ0JoBHjFwMRYeDrEFfYez5xoM0FkIxnx5Lb/IrnZ96kojsqACfGNkYCjplDXYZCQg0FOBfCHQ+DCadgikOEYQ5vDeJWpkrwJus63C2MPziGWYSOGKmZ5yGIrAIjISF86U0GAtCMtXhiPN8OEYckE1Q0HB9TYETQr6wEfj3r6G/BJF/j/pDElDqH5Qcw+WBMTvzAAAAAElFTkSuQmCC;" parent="1" vertex="1">
          <mxGeometry x="184.35999999999999" y="-663.85" width="33.99" height="12.86" as="geometry" />
        </mxCell>
        <mxCell id="a-21Tg05XktNHDUC52Gq-137" value="" style="shape=waypoint;sketch=0;size=6;pointerEvents=1;points=[];fillColor=none;resizable=0;rotatable=0;perimeter=centerPerimeter;snapToPoint=1;strokeWidth=0.25;" parent="1" vertex="1">
          <mxGeometry x="240.49999999999997" y="-667" width="20" height="20" as="geometry" />
        </mxCell>
        <mxCell id="a-21Tg05XktNHDUC52Gq-138" value="" style="shape=image;verticalLabelPosition=bottom;labelBackgroundColor=default;verticalAlign=top;aspect=fixed;imageAspect=0;image=data:image/png,iVBORw0KGgoAAAANSUhEUgAAAFMAAAAiCAYAAAAjzOVkAAAAAXNSR0IArs4c6QAAAARnQU1BAACxjwv8YQUAAAAJcEhZcwAADsMAAA7DAcdvqGQAAAQ3SURBVGhD7Zo9LzVBFMfnPt9AlBIRlBKJeGmQaFBpKXVCVHTUCkTrpVNI6FQSIiFBgYiQUBJRe/sG99n/P3PW3rm7e2df7G6xv2Ry1uzOzNkzZ86cnatSdVAlqfBPy5IUKI2ZIqUxU6Q0ZorkYszX11c1NzenxsfHdU0+fH5+qoODA+pRqVRYOjs71dramn4iItjNs+Lj46O6urpabWpqQgZRHRsb03fyAbpAj9nZWf4N/SYnJ1m3v7/PuiiEeiZmDrOE2YI3JQF9DQwM8Pru7o6yCPT29qrNzU1eNzc3q/n5eV6/v79TCvDgvr4+ykC0Ues4OjqiBzmD8drLw8MDZ0+KrYdh5oUo7RoRVx8/Li8v2Qe81gTe2tHRwYIxTXyNiUboUNzfDxgGnQYN3IikL22SVB8BOsGJXl5edE0tGAcOhmdMg9YZU2YGsaMRGBjPok1U0jYmSKIPgPOgvbkSTWTiTKPXGVNmN2hmvOA5FO/ytQXt0jZmEn3EkLYbj5/T1RjTZnkL0hlcPg5om6Yxk+gT1ZACxkI7We41u/nGxgblzMwMZRjPz8+U2OGKQFx9dnZ21NbWlnIMqaampnStHYuLi5Tog9CkDljW+BNxwAa/fAwzhPaol778lpysAIQUm3BiQxx9cB/15oYFL7dZNabNXGPKC9ouPVHSNIYkwrhv7nayQfiVuJuGEEcfmQC/YmsHeZ4To+vcQW3iZZAXiydAkTibQFzy1EccBBmAGzPf3t4o29raKMO4vb2lHB0dpQRXV1dqZGREOZOhjo+P+TWRFUXQ5+np6fegI8rn4sXFBWVPTw/bLS8vq4mJCbW3t6dWVlZ4L0sKo4/2Vtddbb4eJCXwFnOJZUme+njt5npme3u7vgoHBxZyUOHEIRZHcfX9/a0eHx9ZnyVF0sc1psTK+/t7yiBubm4onbSGcQhF8rPr62vKMBDLcH4Y+8zQoCj6dHV1/RqztbWV8ufnhzIIBFrgDfbDw8OUh4eHlH7IgfDQ0JA6OTnRtcnJWx9p29LS8mvM/v5+ykYdn52dUXZ3d1OCRm0x+3hZvKSTQujacNBGTr/DyEofPySMIKxwfB1HiQTysFMT3EcxE2BvW+R9CMzeRFzyPPmGbrTRyXMoYcgzf62PH9vb22wruXmNpvIVFJS4h70gXkZOnKB40ISkacws9fFDJgx9gDotRAHzsywtbJWXWV9aWtI1f0NcY0o7TJTgxkxhd3eXEsE5L5DurK+v8/eZhYUFXVscoN/09DRjpfx+BOqMOTg4yOMoBO+8DHp6esoNIuvPUhtgSKRSX19f6vz8vCY/rzMmQJ7mxBj3FznsflmC8THjRTMk7IFfWPFBAEN6Mwiil7sv2PEQSxBH04ih6A8xEMPi+Et21LyIog82MGw43vNSk8z+pTAsX8xIhRr+Qp/y/zNTxDdmlsRBqf/BPN7cDLCtcAAAAABJRU5ErkJggg==;" parent="1" vertex="1">
          <mxGeometry x="264.40999999999997" y="-669.19" width="33.08" height="13.55" as="geometry" />
        </mxCell>
        <mxCell id="a-21Tg05XktNHDUC52Gq-139" value="" style="shape=image;verticalLabelPosition=bottom;labelBackgroundColor=default;verticalAlign=top;aspect=fixed;imageAspect=0;image=data:image/png,iVBORw0KGgoAAAANSUhEUgAAAB0AAAAmCAYAAAA4LpBhAAAAAXNSR0IArs4c6QAAAARnQU1BAACxjwv8YQUAAAAJcEhZcwAADsMAAA7DAcdvqGQAAAInSURBVFhH7ZcxsgFBEIZn3w1wAyQiCQKBQMINOIEqV3ADTuAGTkAVAVUIEBEICUWcYd/+/bq3dmdnl/d2vMhX1dWzM2P/nZ7umeK4Huqf+WL/r3xE34p10cfjoUajkcpms9xjANlri8lk4hYKBVQDWRzWVtput9V6vVaLxUJVKhXujYHFfY7Ho/+lsFarxSPJ3O93brn0G8OrfSIrLZfLynuB8sJEz81mk/wzcrkct55jDC9eUCwWqV2v18nbJHZP5/M5+VKpRN4mRtHtdkseCfGbsL2KUfR8PpOvVqvkbWMUXa1W5BuNBnlwOp2o4B3HIUMbB4EO5h0OB2pLxCJwFofIZDKU8pfLhXt+GA6H1I9xlFYQGTMZxoJERCGEiXhxEIigDzUYrMm/EBHFUQbRTqfDPa672WxIcDAYcE86IqL9ft8PCVYNIQhOp1OekZ6IqFcm/l6I6aFOS0gUeyVCaMMgiGc9cdIQKpn9fk8e5y4OBVi326W+3W5H3sT1eqU7FHUtJYX2bDbjGRosTkjaY18FSayk20ZuFcwFyAW5V/WyA6GVLpdL8rhphFqtRl7O4ji8hPOjks/nVa/Xo/btdiMfgsUJPML0/ZPkQgbjy7EylFESEjXTPF8UgyKqg4+QcEHwWflIAuJjTUQVUgJBiEHUtJ/AqmhQMKnErIm+KgisieKsfkUQWBEdj8fGTEUG69casCKKFUrm62YS/fw/fSsf0Tei1DdPPQKzBk9mmQAAAABJRU5ErkJggg==;" parent="1" vertex="1">
          <mxGeometry x="300.73999999999995" y="-512.77" width="18.73" height="24.54" as="geometry" />
        </mxCell>
        <mxCell id="a-21Tg05XktNHDUC52Gq-141" value="0.013" style="text;html=1;align=center;verticalAlign=middle;resizable=0;points=[];autosize=1;strokeColor=none;fillColor=none;" parent="1" vertex="1">
          <mxGeometry x="232.76999999999987" y="-490" width="50" height="30" as="geometry" />
        </mxCell>
        <mxCell id="a-21Tg05XktNHDUC52Gq-142" value="" style="shape=image;verticalLabelPosition=bottom;labelBackgroundColor=default;verticalAlign=top;aspect=fixed;imageAspect=0;image=data:image/png,iVBORw0KGgoAAAANSUhEUgAAAB8AAAAlCAYAAAC6TzLyAAAAAXNSR0IArs4c6QAAAARnQU1BAACxjwv8YQUAAAAJcEhZcwAADsMAAA7DAcdvqGQAAAIoSURBVFhH7ZfNjcIwEIWd7QDRAdABHLlwAQlxhxagAA50QAdQAQfOSNw48HOGAqACemDzJn67sRPnZ7GUw/JJluPx4jcZj8fZ4BWiKuJL95XwEa8Eb+K3203NZjPVarVUEATSJpOJ2J0g232ApWq12ut6vcr4eDyKrdlsyjgNr+K73U6PIgaDgdhdJMKOUDFsaKfTSc9kE66lhsOhHhUk8sFktVqJx47pQjDsi8VCW5Kkrs4fImx/AfuO/e90OtqSTmq2Xy4X6dvttvRlQHb3ej0VJpra7/fa6kA7YcBEsRMoj/gbP59PbXWTKo4FIH6/37UlH4jhWBUVBglxeA9h+3xOp1Oxsy2XSz0TMR6PxWlbGFFEDqWREGemQ8yGwvYcHXa1wuJ8QzgRB3a82Waz0Zb3SYgj3BBnmUQYIQw7bb4wxJFgDBVAtkMU+1k0icpgiEOM4vFmb4EvjCJzPp+lD0sinFJhRsv4cDhI753IhwicUZiYVNwGJFoWiBiPGv8eeZK3VYY4fogWLy5MQNdx4T0QLy6oAbDZR9LmJ+y8OkOvVaPRkGfQ7/elZ713gTper9fleT6fS/94PKR38SPOxSlGRqOR9NvtVvr1ei13Pul2u5IfFC5FFIDfy8QumwB3Muawl3jO20uGPe9iMvbcB0hWCGd9RBCv4hTOSzTiTbysMPAizlutjDB4WxzJh1pgf+/Bnlec3haPf+mmtSw+/59Xwn8VV+obkRQydG6FP6IAAAAASUVORK5CYII=;" parent="1" vertex="1">
          <mxGeometry x="121.40000000000002" y="-730" width="16.76" height="20" as="geometry" />
        </mxCell>
        <mxCell id="a-21Tg05XktNHDUC52Gq-143" value="" style="endArrow=none;html=1;rounded=0;" parent="1" edge="1">
          <mxGeometry width="50" height="50" relative="1" as="geometry">
            <mxPoint x="141.91000000000003" y="-720.3299999999999" as="sourcePoint" />
            <mxPoint x="152.17" y="-720.3299999999999" as="targetPoint" />
          </mxGeometry>
        </mxCell>
        <mxCell id="a-21Tg05XktNHDUC52Gq-144" value="0.017" style="text;html=1;align=center;verticalAlign=middle;resizable=0;points=[];autosize=1;strokeColor=none;fillColor=none;" parent="1" vertex="1">
          <mxGeometry x="67.4" y="-672" width="50" height="30" as="geometry" />
        </mxCell>
        <mxCell id="a-21Tg05XktNHDUC52Gq-145" value="" style="shape=waypoint;sketch=0;size=6;pointerEvents=1;points=[];fillColor=none;resizable=0;rotatable=0;perimeter=centerPerimeter;snapToPoint=1;strokeWidth=0.25;" parent="1" vertex="1">
          <mxGeometry x="297.74" y="-630.17" width="20" height="20" as="geometry" />
        </mxCell>
        <mxCell id="a-21Tg05XktNHDUC52Gq-146" value="" style="shape=waypoint;sketch=0;size=6;pointerEvents=1;points=[];fillColor=none;resizable=0;rotatable=0;perimeter=centerPerimeter;snapToPoint=1;strokeWidth=0.25;" parent="1" vertex="1">
          <mxGeometry x="217.95999999999998" y="-730" width="20" height="20" as="geometry" />
        </mxCell>
        <mxCell id="a-21Tg05XktNHDUC52Gq-147" value="" style="endArrow=classicThin;html=1;rounded=0;endFill=1;" parent="1" source="a-21Tg05XktNHDUC52Gq-145" target="a-21Tg05XktNHDUC52Gq-137" edge="1">
          <mxGeometry width="50" height="50" relative="1" as="geometry">
            <mxPoint x="351.99999999999994" y="-609" as="sourcePoint" />
            <mxPoint x="272" y="-689" as="targetPoint" />
          </mxGeometry>
        </mxCell>
        <mxCell id="a-21Tg05XktNHDUC52Gq-148" value="" style="endArrow=classicThin;html=1;rounded=0;endFill=1;entryX=0.967;entryY=0.953;entryDx=0;entryDy=0;entryPerimeter=0;exitX=0.94;exitY=0.9;exitDx=0;exitDy=0;exitPerimeter=0;" parent="1" source="a-21Tg05XktNHDUC52Gq-137" target="a-21Tg05XktNHDUC52Gq-146" edge="1">
          <mxGeometry width="50" height="50" relative="1" as="geometry">
            <mxPoint x="393" y="-609" as="sourcePoint" />
            <mxPoint x="292" y="-739" as="targetPoint" />
          </mxGeometry>
        </mxCell>
        <mxCell id="a-21Tg05XktNHDUC52Gq-149" value="" style="shape=image;verticalLabelPosition=bottom;labelBackgroundColor=default;verticalAlign=top;aspect=fixed;imageAspect=0;image=data:image/png,iVBORw0KGgoAAAANSUhEUgAAAB0AAAAaCAYAAABLlle3AAAAAXNSR0IArs4c6QAAAARnQU1BAACxjwv8YQUAAAAJcEhZcwAADsMAAA7DAcdvqGQAAAFWSURBVEhL7ZbhrURAEMfX64AW6IBEB+iAFiiBCqjgOqCBS3z3lUQBogJquHf/ebuJC3vsy7n3PtwvmczaHf47zEC73WFv5ov7t/IRPZVd0aIomGVZTNM0FgQBm+eZr/yQZRmtIeYwqF4ZeZ7f4jimMTzCL5cLHQMxB/N9n8/u81R0SdM0DxeHuK7rNJ+mKW3wKIdFAUQh1Pc9ja/XK19RQ0kUWQrhsiz5rDpK1WvbNnnP81gURTT+DUqiXdeRNwyD/DPGcWRJklDFr+AZ74JKdRyHbi+8jGmaqKjwCBC7VdWHMq2qiqyua2aaJmvbdtWvAHOu69IYMVK4+ArsEMUCQ5ioVNGbsspFpgLEbWUqFb1nRCfBlj0oNhGGIR1jTdajyqI4Ac9l64LL1pEJAmXRVyAT/Z9fmTM4TRQtBoZhoBfFA/w2vwxRZFuGLxL4/A2eyh+IMvYNKj0UnRCViWUAAAAASUVORK5CYII=;" parent="1" vertex="1">
          <mxGeometry x="169.15" y="-625.1700000000001" width="11.15" height="10" as="geometry" />
        </mxCell>
        <mxCell id="a-21Tg05XktNHDUC52Gq-150" value="" style="shape=image;verticalLabelPosition=bottom;labelBackgroundColor=default;verticalAlign=top;aspect=fixed;imageAspect=0;image=data:image/png,iVBORw0KGgoAAAANSUhEUgAAABkAAAAbCAYAAACJISRoAAAAAXNSR0IArs4c6QAAAARnQU1BAACxjwv8YQUAAAAJcEhZcwAADsMAAA7DAcdvqGQAAAGeSURBVEhL7ZZNjoJAEIWLuQF6BD2C7gyJG+QGnkHC2oU3kAMQbyBrE72AcUHcQOIWF6z1DD28mi7DOMDI+DMbv6TTTVXTj6qu7mCoHHoyH7p/Km+RRvyPyGazoX6/T4ZhULfbpSRJtOeLMAyp1Wqx/3g8ausvoISF7Xarer2eOp1OarlcorTVeDzWXnWxSbuV2pnFxeI45vFisVDr9VqNRiO230KtCBbCwoiw0+mo2WymPc2oFZnP5yximqaaTCba2pxaEaQFIogC+/RXakv4cDjoEVG73daj75zPZ644x3G44qQqfd/XM3K02A9QSUgTosC0qkgkpZJOzENFwoY1QGkkOBuu69JqtSLbttkWRRH3ZeRlT0EQ8BgRe57H4yzLuL+IIDwsDIHhcEj5l9FgMCDLsti/2+24v2Y6ndJ+v9dPFXA8OQgXj2jFM5CmKdtk81EMxQNaBt5HqvEuuIjImYDYdf4l71X+IvKx+BihtoSbIgKy4cLDRKoEwENEcJ9VCYC7ReTixL4VwX0nBXS3iBy8siYi71+iRrxAhOgTOYqcyAT/lTYAAAAASUVORK5CYII=;" parent="1" vertex="1">
          <mxGeometry x="246.05999999999995" y="-610.17" width="10" height="10.8" as="geometry" />
        </mxCell>
        <mxCell id="a-21Tg05XktNHDUC52Gq-151" value="" style="shape=image;verticalLabelPosition=bottom;labelBackgroundColor=default;verticalAlign=top;aspect=fixed;imageAspect=0;image=data:image/png,iVBORw0KGgoAAAANSUhEUgAAABgAAAAcCAYAAAB75n/uAAAAAXNSR0IArs4c6QAAAARnQU1BAACxjwv8YQUAAAAJcEhZcwAADsMAAA7DAcdvqGQAAAGMSURBVEhL7ZbRjYJAEIaHe/cBS0BLoAJfpARaQDuwAxswdqANQAM2gA/GJzrAGvb41h2CcJwG9ZJL/JIR2B/m350diJ6pkDfy5Y5v42Nwl781OB6PEsexeJ4n4/FY9vu9U66gT6dTq7e1XmhTKMvSTCYTk+e5KYqC1jW+7zvV2HGuGScOh4NTfqc2aDOfz+tEap4kSW3+KL17MJvN7PF0OslyuZRq9rLZbCQIArJb7SGuPl2YOTJlCcPQrmIIvQYkxICg/kPpLdH5fHZnIqPRyJ11ybJMFotF3V0EnUjHWZzRDdoxlIZb0jR1Shd0GoDNBy0tY9AxoDQkXq/XZrfb2ZtXq5VTu/w0Ae1AsL+44qjJCdCW1OtHIAerxwSsgc6UQGx2DMaMUzaCB5u6whgrYTK8L3qPNaAcJOHhdsfwEKZ9OmjdCSZEvhuDV0HS7XZrjbSsLzVQKBEmrOypzzW9HkWRXC4XN3KlKqk7q3Cmg9DaNzeVMX2H4CkDkrKhJMOIaG/y52/LXf67gcg3NM1BmLKLoO8AAAAASUVORK5CYII=;" parent="1" vertex="1">
          <mxGeometry x="169.7199999999999" y="-663.2499999999999" width="10" height="11.66" as="geometry" />
        </mxCell>
        <mxCell id="a-21Tg05XktNHDUC52Gq-152" value="" style="shape=image;verticalLabelPosition=bottom;labelBackgroundColor=default;verticalAlign=top;aspect=fixed;imageAspect=0;image=data:image/png,iVBORw0KGgoAAAANSUhEUgAAABkAAAAbCAYAAACJISRoAAAAAXNSR0IArs4c6QAAAARnQU1BAACxjwv8YQUAAAAJcEhZcwAADsMAAA7DAcdvqGQAAAFUSURBVEhL7ZbRjYMwDIbDbQArwAYwA7ABrMAK7QQwARswARPwjAR70Bm4+3zJCWhBQMXLqZ8UJdjBf+Laba3xB3UxX3q+lI/IIT4ih5iJFEWhPM9TlmWpOI7V4/HQnl/u97v42HMImhHyPB+zLJM1M66yLOUZjI0RRZG27uNPZErTNLNgiNm2Lfbb7SYHOsJLEUCEwF3Xybqua+05zqoItzBCVVVp6zlWq8v3fZnDMFRpmsr6LKsibdvK7DiOzHvgMFTfE/pGM6ikIAgkXcx7oDjY/yrkk4X88zkMwzC6risvsd6C4mCvKfMlYuFDJjiDTaaSzEtblcUBuC03obRXRcyJGdMeMKJJksgzvmWP0DemnzZFcJCiZQCYlvLSzw1NamFT5AwERmCayqkIt+cbAk6LmIBb422RV6yl65Lfk77v9Uqjxd7G9BchGSZV8F/+3Cn1DXMVVCkDHeIlAAAAAElFTkSuQmCC;" parent="1" vertex="1">
          <mxGeometry x="253.93999999999997" y="-667.88" width="10.11" height="10.92" as="geometry" />
        </mxCell>
        <mxCell id="a-21Tg05XktNHDUC52Gq-153" value="" style="shape=image;verticalLabelPosition=bottom;labelBackgroundColor=default;verticalAlign=top;aspect=fixed;imageAspect=0;image=data:image/png,iVBORw0KGgoAAAANSUhEUgAAABgAAAAZCAYAAAArK+5dAAAAAXNSR0IArs4c6QAAAARnQU1BAACxjwv8YQUAAAAJcEhZcwAADsMAAA7DAcdvqGQAAAGtSURBVEhL7ZYxbsIwFIZfujPAEYCFFSEOwEIm1uQAWRBjpAhxAy6AuAFcAAllhawoDBEsrEzkDK7/hx1FSd1SUipV6idZL/Yz/mO/3xGWkNALeVPxZfwLfMnvChyPR3JdlyzLokajQev1WmXuIN9utzlfzBmBTcHtdhOtVkvEcSwulwusK+r1usoKHkcf42i73U5lPicTKDIcDrOFtPh4PM7EH8VYg8FgwDFJEppMJiTfnhaLBTWbTazOuYe465TBmyONY+n1eryLZzAKYEEIoOH8vwOOEUcMjEd0Op3UE1GtVlNPZWzbZlflm6yXyhruAew4Go1IHg33z+czx2coCaRpSp7n0XQ6Jd/3eSyKIo4m5vM5Fz7fttst51hgv9/zBcLi2DIIgoD6/T4/h2HI8SmkmlitVllB4Zq8Y+B/jKPQaChePo8+5uh5+D3ui57DAnKLnMTkomM2m012gz/KYyG4RrNcLrO5gAV+GsdxWATCRptWodvtcrxer9U+1zAHfA9z5DkcDhw7nY7cRwX05yRfVF2D2WzG/UoCOGMsrh2Ehu8WTKP5639biN4BTnclw4UihhkAAAAASUVORK5CYII=;" parent="1" vertex="1">
          <mxGeometry x="170.50000000000003" y="-725.21" width="10" height="10.42" as="geometry" />
        </mxCell>
        <mxCell id="a-21Tg05XktNHDUC52Gq-154" value="" style="shape=image;verticalLabelPosition=bottom;labelBackgroundColor=default;verticalAlign=top;aspect=fixed;imageAspect=0;image=data:image/png,iVBORw0KGgoAAAANSUhEUgAAAFQAAAAfCAYAAAB59OpuAAAAAXNSR0IArs4c6QAAAARnQU1BAACxjwv8YQUAAAAJcEhZcwAADsMAAA7DAcdvqGQAAAQtSURBVGhD7Zo9TjM9EICd7wb8lBQIKCiQaICeCi6AoKQEDkABNQWcAE4AF+C3AAkaQAghQQviACCOkHef0U4+x7F3N95NNkUeyfLGP7vj8Xg8NjSaCWZIZfyX5kMqYqjQiqlNob+/v+bo6MiMjo6mJfVxcXFhNjY2RJZGoyH5zs6OyNg1+NB+c3p62pyensZ3S6qTh4cHkWFhYaH58/MjZYeHh1K2vb0tv7sh10LVkmZmZszX11daGs/q6qq5v783Nzc3JhlEWlo/V1dXZmxsTJ53d3cld8d7dnZmFhcXJQ+SKtbL+fl5c2RkRGaPZxfqeIWmIqgVwMrKSuF+RYiRJwT9kc9FVxfp7e0tLf2f4FfpyEvzzH59fT348TyqViiUkUfRJe8zIsAoMDIm0FWqdzTqVxAuD/04ebf0QqFl5AE1pL29vbTED0rFSlHq5+dnWhpQqG4YdsMQqpTQbGbRC4WWkafoqlR8htcxmm5fSluS7RuL0guFxsrT7bgVlj79dOl3jMZtkAVtaItFx1C1QmPl0X4xYZI7EW2jYYlTiV8owvHxsVcQdRmaWBouDEJ3ZV99DDHyqC9kcm0oL6IHV2dtClVtuy8PoTsq/WzUt/jqdNPwpdiNRImRRychlIqgbcXS0zJBB1vU9HXmeZHCzOI2qLPL+0Fd8tgbYdtJ6fv7W/LJyUnJs+AUkZi7SUzdzM/Pt8o4CXHieHp6apX3g0GQ5+Pjo/1yxD1qZfH8/Cz50tKSHE9PTk7kKLm2ttZ2jOsXgyJP9G3T+/u75NfX12Z8fNxsbW2Zv78/k5i/lPebQZGnTaFTU1PpUz5cbkDiN/DDLcEfHx8l7zeDIk+bQtV3vr6+Sh6CJfXy8iLPs7Ozkm9ubkp+d3cnuQ9cCjdX3Nhw70jimfvIMsTKA/Td399v3YWWkWdubi7ZmiyKhk0ahrBzKhqPkULwXuo1dKGP7sw8xxIrDxBq0Y/2RAREOPSxY9U89DsdYVNRITS8ci9PVDkhYVCoe+mg7wr1UXmyBhgrjyggqbdjU5RKWZ5RKfoODew7fCg7I2SZ/e3treTLy8uSK8mAJL+8vGwtJZa4wm57cHCQ/qqOWHnYwGBiYkJyIBpAB1qXh/po/oQiiFotdNlnBffUk9yZZ3Z1WWMdnEKyoD0zS+AdIvQtm1h5tM5Fy4u4IWS3v+1d27pUyvi1PBgswqDQ0Hd0OWUpvAx5Cs2aRKCedrRXvAr1NawSW5lZx0F8Yl6bMqjikMcmVG5DHYbnGoRXoVBk6cdQVJkISbterhI2SMboWqIqNETWGMK9Ejjs04nOeeZflF5bXTeo0di+FWVR5kYMCn2wTJJvDJkKBT5AWMILylqLXpW5k8P7SXXgWprGoT5lYWC0t8Msl1yFVgmCI6wv1aVQjARrVDnKrsbhf99VijH/AC/cis37UWgWAAAAAElFTkSuQmCC;" parent="1" vertex="1">
          <mxGeometry x="313.99" y="-610.6700000000001" width="30.63" height="11.3" as="geometry" />
        </mxCell>
        <mxCell id="a-21Tg05XktNHDUC52Gq-155" value="" style="shape=image;verticalLabelPosition=bottom;labelBackgroundColor=default;verticalAlign=top;aspect=fixed;imageAspect=0;image=data:image/png,iVBORw0KGgoAAAANSUhEUgAAAFMAAAAhCAYAAAClWJfKAAAAAXNSR0IArs4c6QAAAARnQU1BAACxjwv8YQUAAAAJcEhZcwAADsMAAA7DAcdvqGQAAASwSURBVGhD7ZrLLjxNFMDL9wIiPIBgh7DAQpBYuMQLEA9AsJRY2FuQ2JNYu+yRsJG4hUiERGJFRLByeYT59+/oM19Pqe7p7mkzFvNLKqe7qqb69KlTp05XpibnYapkwn++rJIBVWNmSEWMeXp6akZHR83KyopfUxkeHx9Fh+7ublNTUyOF6/39fb9HQoiZ5eLh4SE3MzNDjJayvLzst1SGkZER0WNra0vu0a+5uVnquE5KpGd+fHzIzLW0tMgslgLeODw8bAYGBsze3p5fW3kWFxfNxMSEXDc1NZmpqSm5fnt7Ewnb29vischIfKP+wHvhXF1dXa6rq0uug6ytreW9ixLXw97f30WenJwk+l0x0urjgt8yBjoGwXvxWsrNzY1fW4jTmPyQAVmSYTCgKm8/uBhZGxNK0UdhstWBXNBOG31cBv1hTH3R8fFxvyYcVT4pv2FMSKsPBA0VFS/ph3e6+v14ctwArAYJm8UofsOYpehTzONswhyuYAMiwHpGNN7ylmAcxfn5uUg2lb9AWn3YZEnTeO+joyPT0dHht4TT19dnPOObnZ0dc3t769daeebq6qrI6elpkVFcX1+LbG9vF1lp0uozNzeXyJDK/Py8yPX1dZGC76GyrLnF1eNAP/oHw4FuXFrI42xYUl46Iu0sE+6zII0+mgWwbIMQfoqFIJe98sbUB7sMYKM7J/HVRhNhYpBtKOrDSimk1UcnwFXixHPtq3E2v8yfn59FFouVcH9/L5K4EYSYe3BwIInw1dWVqa+v91u+4flhpRTS6vP5+enUhbKwsOD3CsebKJGvr68i88Z8enoS2djYKDKK4+NjkYODgyKB2DE7O2s8DzdLS0t+bXmotD53d3ci88ZM8rl4eHgosrW1VXYzdsONjQ0J4vppVk7+ij4Fu3kcSCXY/aC/v990dnbKUvLiVaLdMCv+kj55Y8aJlXB5eSmS+ERs8XZCuVfvKDd/SZ+8MTVWar4WxtnZmUhOUYAEFi/4+voqSGBdEMc4geLcEJnFeWZafWgjpqo+FEJCsXdw0dbW9n3hzaYQNzXSVIP+ip5RRqUTdk6n96V+UqbVh3ZSI01r9BPRlV6FQX+KjpE3piahlCjsASDORKC4fQpF7ke9K3HHEMXGhLT60G4fLerExIHn0TeYtBfETM3Two7tOeAFb4CC4D40NCSSwM+GQD+WHdfAPcvOTrv4jqZe88SkpNUHvHc3Y2Nj/l1yLi4uRAazhYLdXL83d3d3RdroYUJPT49IhWTY8wZ5qYaGBrO5uSmpiSbJ+rve3l6RSm1trciXlxeRSUmrjwsMrgl+HBgPJicnRQrfDvo/xAyqg9+4paJL1vUNTL0rtvHdTpu9FH8DlizLlbATB42vdhj5YcywjqWgRrMNE1av8SjqpD8rgoaMc+hCHxyO39gO54y2GsCzehmMxXi2B6oxbY/luez2v00aQ+qmyW9tQrcuDKAPsl82KZop2CfTqlglUA+La0gcjP4UlyEh1JjAQ/AeBig1huoZJkqBen85PNAFE8tE2oYkvNnOg2NhdNU9jEhjZglKY1BeACMyQZUypMbksJJ2JVb/BZchiU+NqoRTNWZmGPMP++BdnqkmtDAAAAAASUVORK5CYII=;" parent="1" vertex="1">
          <mxGeometry x="183.22" y="-726.98" width="35.13" height="13.97" as="geometry" />
        </mxCell>
        <mxCell id="a-21Tg05XktNHDUC52Gq-156" value="" style="shape=waypoint;sketch=0;size=6;pointerEvents=1;points=[];fillColor=none;resizable=0;rotatable=0;perimeter=centerPerimeter;snapToPoint=1;strokeWidth=0.25;" parent="1" vertex="1">
          <mxGeometry x="240.49999999999997" y="-730" width="20" height="20" as="geometry" />
        </mxCell>
        <mxCell id="a-21Tg05XktNHDUC52Gq-157" value="" style="shape=waypoint;sketch=0;size=6;pointerEvents=1;points=[];fillColor=none;resizable=0;rotatable=0;perimeter=centerPerimeter;snapToPoint=1;strokeWidth=0.25;" parent="1" vertex="1">
          <mxGeometry x="297.7399999999999" y="-667.0000000000001" width="20" height="20" as="geometry" />
        </mxCell>
        <mxCell id="a-21Tg05XktNHDUC52Gq-158" value="" style="endArrow=classicThin;html=1;rounded=0;entryX=0.683;entryY=0.737;entryDx=0;entryDy=0;entryPerimeter=0;endFill=1;exitX=0.542;exitY=0.318;exitDx=0;exitDy=0;exitPerimeter=0;" parent="1" source="a-21Tg05XktNHDUC52Gq-157" target="a-21Tg05XktNHDUC52Gq-156" edge="1">
          <mxGeometry width="50" height="50" relative="1" as="geometry">
            <mxPoint x="422" y="-729" as="sourcePoint" />
            <mxPoint x="272" y="-689" as="targetPoint" />
          </mxGeometry>
        </mxCell>
        <mxCell id="a-21Tg05XktNHDUC52Gq-159" value="" style="shape=image;verticalLabelPosition=bottom;labelBackgroundColor=default;verticalAlign=top;aspect=fixed;imageAspect=0;image=data:image/png,iVBORw0KGgoAAAANSUhEUgAAABoAAAAfCAYAAAD5h919AAAAAXNSR0IArs4c6QAAAARnQU1BAACxjwv8YQUAAAAJcEhZcwAADsMAAA7DAcdvqGQAAAILSURBVEhL3ZYxsgFBEIZnHzHFEZARCiUigVhJhVxA4AYcQDkBLoAqiYBASAlEbiATCPfN37rXmp2nsPOC976qqZ7t2Z1/pqd7d73r9eqrmHiep5LJpEokEuyJ4vka7v8qX2ydMJ1OVTab5SsD7Cgu6/Xaz+fziAw1G7F3NJ/P1Xg8VsvlUvV6PfZaYEEn9Pv913c0GAwoi9AKhQJ74xMR6na7ajQaUb9cLpN1gfWM0uk02Wq1StYFVqHD4UC2WCySdYFVCBkEKpUKWSdwUgScz2fKnFqtxh7f3+12fiaTCepEnyGP3DmdTvQMxmezGXvvRIRQfLhZ1wR7bsgknU6HPXdkAWZDugsRIamFyWTCntuOzAffJSIkK0cogIQtLPwJESGIYGKcFc4CfVvM3+VBSEJktp+QxUgU0HSRWxf2kN7b7ZasPgvMrvQEdL3ZbMiaHI9H1W63VS6Xo/t1uMlfr9fVfr+nvvAgtFqtyJZKJbKtVovsYrEga0N/HtRwOKQ+BBuNBvUvlwvZANoXI98UhARITSEcr4L0lzMOEwghy2yT4hp+nB9qrNls8sgjGIcIFou+SSCE9MWEZqFKemMME5krBeFkwD1PhVyAHSMCWJjUoeBUCCC1sTPzLWJ9e78K0h5/PmFSqRT3DFjwI+S9iJABhAvJ4jx04UyDIBqEbMnwN/9Un/HfhJT6BomYfiiD2kxeAAAAAElFTkSuQmCC;" parent="1" vertex="1">
          <mxGeometry x="459.8" y="-511" width="17.61" height="21" as="geometry" />
        </mxCell>
        <mxCell id="a-21Tg05XktNHDUC52Gq-160" value="" style="endArrow=none;html=1;rounded=0;" parent="1" edge="1">
          <mxGeometry width="50" height="50" relative="1" as="geometry">
            <mxPoint x="308.29000000000013" y="-515" as="sourcePoint" />
            <mxPoint x="308.29000000000013" y="-525" as="targetPoint" />
          </mxGeometry>
        </mxCell>
        <mxCell id="a-21Tg05XktNHDUC52Gq-161" value="0.02" style="text;html=1;align=center;verticalAlign=middle;resizable=0;points=[];autosize=1;strokeColor=none;fillColor=none;" parent="1" vertex="1">
          <mxGeometry x="282.6199999999999" y="-490" width="50" height="30" as="geometry" />
        </mxCell>
        <mxCell id="a-21Tg05XktNHDUC52Gq-162" value="" style="shape=image;verticalLabelPosition=bottom;labelBackgroundColor=default;verticalAlign=top;aspect=fixed;imageAspect=0;image=data:image/png,iVBORw0KGgoAAAANSUhEUgAAABsAAAAiCAYAAACuoaIwAAAAAXNSR0IArs4c6QAAAARnQU1BAACxjwv8YQUAAAAJcEhZcwAADsMAAA7DAcdvqGQAAAHzSURBVEhL7ZfBjcIwEEWd7QBRAgVwgQY4AB1AC7RAB1ABVEAFSNyRkLjBiRNUALSQ5Q2eyHGcEDZZpJX2SZax4+GPxzMORPED8yG+bP8R/sVq4W+J3W43s1wuTbfbNVEUSRsOh+Z4PNoVDqR+FWazGaUTLxYLGW+327jRaMStVkvGLrWITSYTO3rCGAcOh4OdeVJZLISK+WRmWKRttVrZ2fKcz2cJo79byIhdr1eJdygMr8C20+lI47NPMIyI4d27IIJtSAiCO2NXg8HAzpSDsOFgUTQyYuv1WsTIsrJMp9OXQpARwxAx6kXR7KL54VXn6F1Go1HqOyAjRvgwduOOkQr53msyhdpLMRb51Y+XHP672emTEtMduDXC57xUfpfURbzb7aRvt9tykXK53u93s9lsTLPZlGeVsKIC4WLKbUVZSSTYuZ4bZ8q4VJ2xGCPQkBbVG8/cpOHmxwanQyRiGLCQ81HU4zxPEfPvzyIHkzM7nU7S9/t96eHhofT7/V56H85yPB7bkTGXy0X6Xq8nfQYrmhSuW5xasISF3bHGrx3gGTskElwKeSRieSFTJ3ju3xKgZ6tr9I0dIpUgVcBJ/YmQt7vaxBQSDMEQlX5dzefzJCmUwuK3oj8Cc00e0IT6lTCSDPqWoJEgRTfO/1+mGjDmG23pyqRTHstDAAAAAElFTkSuQmCC;" parent="1" vertex="1">
          <mxGeometry x="120.75000000000001" y="-931.5" width="17.18" height="21.64" as="geometry" />
        </mxCell>
        <mxCell id="a-21Tg05XktNHDUC52Gq-164" value="0.025" style="text;html=1;align=center;verticalAlign=middle;resizable=0;points=[];autosize=1;strokeColor=none;fillColor=none;" parent="1" vertex="1">
          <mxGeometry x="67.4" y="-735" width="50" height="30" as="geometry" />
        </mxCell>
        <mxCell id="a-21Tg05XktNHDUC52Gq-165" value="" style="shape=waypoint;sketch=0;size=6;pointerEvents=1;points=[];fillColor=none;resizable=0;rotatable=0;perimeter=centerPerimeter;snapToPoint=1;strokeWidth=0.25;" parent="1" vertex="1">
          <mxGeometry x="217.20999999999995" y="-930.5" width="20" height="20" as="geometry" />
        </mxCell>
        <mxCell id="a-21Tg05XktNHDUC52Gq-166" value="" style="shape=waypoint;sketch=0;size=6;pointerEvents=1;points=[];fillColor=none;resizable=0;rotatable=0;perimeter=centerPerimeter;snapToPoint=1;strokeWidth=0.25;" parent="1" vertex="1">
          <mxGeometry x="458.60999999999996" y="-630.17" width="20" height="20" as="geometry" />
        </mxCell>
        <mxCell id="a-21Tg05XktNHDUC52Gq-167" value="" style="shape=image;verticalLabelPosition=bottom;labelBackgroundColor=default;verticalAlign=top;aspect=fixed;imageAspect=0;image=data:image/png,iVBORw0KGgoAAAANSUhEUgAAACEAAAAcCAYAAADvANYcAAAAAXNSR0IArs4c6QAAAARnQU1BAACxjwv8YQUAAAAJcEhZcwAADsMAAA7DAcdvqGQAAAHaSURBVEhL7ZfRbcIwEIYv3QBGAN55gBmADZgBRkBiAAZAYgNYABiABVgAJgAhsUCa7+qjJiRuSi3RBz4pcmI7vt/nuyMkaYa8mA/XvpS3COMtwvj/IjabjbRaLUmSRAaDgev9xh9frVau9wmoE0Usl8t0OBzqfb/fp5aki8VCn2G9XmufXbvdzo38nlIRGD6dTnqPIAzRB4fDIa3VauloNNI5jP2FSm9jFEMYhm63e/NSDCpvodlsqpDJZKIizEsxqCyCnZs39vu9641D5RTNPKFtr9eTdrut92Ucj0cZj8dSr9c1cyy7SjPIiQnCzpnKxVGEYC7eYp55jJjimfdns5n2+fwogrNnUdLThISwYyOFffLB7RNcEQF+Jli9CNWE0Bz6ufI8xATnyRnSTqdTuVwuMp/PdazT6Wi73W61Bc76fD67J5FGo6Ht9XrV1mA9yERqe4cTc8OvhPlMsDHSFS+RrhQsH4sJ5pg3OAo8lF/PeBBB4JihohcwbAKLggysotpmbH7RehCOsifAEBsglhADfnbwE5AnugjLjvyuQ9kR/WuboIaiZcvGon/UZG7Xlm8NH8sgq7x34ImYWAYRA3YkHEVZEYPoIoDUNKNcxAHPZUXu/Q/sC5FP3TV6MzXyoRAAAAAASUVORK5CYII=;" parent="1" vertex="1">
          <mxGeometry x="310.66999999999996" y="-670.3299999999999" width="13.05" height="11.07" as="geometry" />
        </mxCell>
        <mxCell id="a-21Tg05XktNHDUC52Gq-168" value="" style="shape=image;verticalLabelPosition=bottom;labelBackgroundColor=default;verticalAlign=top;aspect=fixed;imageAspect=0;image=data:image/png,iVBORw0KGgoAAAANSUhEUgAAABwAAAAfCAYAAAD0ma06AAAAAXNSR0IArs4c6QAAAARnQU1BAACxjwv8YQUAAAAJcEhZcwAADsMAAA7DAcdvqGQAAAG5SURBVEhL7ZbNbcJAEEbX6QBagDsHqAHogBqgBCQKoAAkOoAGgAJogAKAo08g6MDhjfZLNsa2kthwSHiSNfb+fTs7MwtRcsM9kTdvn8ZLsHL+oeB6vXbNZtNFUeT6/b5v/STsXy6XvvUHUIdisVgkg8HA3nu9HvWZzOdz+4bVamVterbbre/5Pl8EETmdTvaOOIvSBofDIanVaslwOLQx9P2G3FkIsCgi0Ol0PrwvQ+E2G42GiY7HYxOU92UoFMQjebnb7XxrOQrL4uah2W6361qtlr3ncTwe3Wg0cvV63TIYy/f5fPYjPF74Djyim4fjLIKxnALjiD2QwWoLyRQkVgymJCRahGKdjvF0OrV2Ml7crcSkMCNVj3k1p2xW+YQwh74wuy2GnD/njp1MJu5yubjZbEaXa7fbZjebjVngBlJs4jg2W8T1evVvN1ANb5B0RqqPY8N7SoTiD9G8NPIw9N4EddYsmpX+iGhRxqZhA/TrFgI2SmgyBcsiz9mQNs63rsfwRCoRzCMrSx/6r42fMdjv92YNk30AiiuxDKlckKSj7ohneJSiUkFElDC64tK8/nlXzl8XdO4dk7nXm89i6x4AAAAASUVORK5CYII=;" parent="1" vertex="1">
          <mxGeometry x="170.50000000000003" y="-927.3199999999999" width="12" height="13.28" as="geometry" />
        </mxCell>
        <mxCell id="a-21Tg05XktNHDUC52Gq-169" value="" style="shape=image;verticalLabelPosition=bottom;labelBackgroundColor=default;verticalAlign=top;aspect=fixed;imageAspect=0;image=data:image/png,iVBORw0KGgoAAAANSUhEUgAAAFsAAAAgCAYAAAB90wSbAAAAAXNSR0IArs4c6QAAAARnQU1BAACxjwv8YQUAAAAJcEhZcwAADsMAAA7DAcdvqGQAAAV5SURBVGhD7ZnLLjRNGMfLdwMibkAcFkJiQdjYsMDCwkKCuADhEtwBFyBiLWFpI3FIWDgsRIRYsCFiTSxcwLz9q6//nVLT3VPT0++MxftLSvX0VFc/9Ryrhqm0mI+Pj8rGxkbFmJaLkoBMe3t7lYWFhUpHR4eVjcbn+/v7eFT9tHSFKNldzG9Bxl9dXbWKh+3tbXsPeXWvXv6LJmg6Dw8Ppre317y9vZnd3d347u+ip6fHbG1tmc7OTvt5ZWXFjIyMmK+vL/P09GTv1U2s9ExeXl6shaOXx3caB8+4uLiIP0Xh9cs8O4vp6Wkrpys7HB4eViJDWO/P8/rcFSqceAkT+rgpgJY2JgQ9XyYKezWU0Sg4XFoa4TM5nu8Y4xtDZK4Qb0ZIFJ6HxtGIgiLo+bJBHs2NnI0g4+U5FErHqIxD+T6pKwxVNMj7sWpReJ72N9DcKKsoeCpzpCnQx1W4b5iqFTKAgaSOENbX1+14tkVF4Xla2bBwzV10y8ZzOFKIogURxTN+yqlaITkH4bLyjo+sGBIFWUghZSPHKTp3EUULOaGrlx9SMCkD6tl5aDGhxklDc5SNUlxolLrgkUUVDaoXrnf/2GcfHBzYPkoJtq/F5eVlfGVMf39/fPV7ODs7s/3w8LDt62F5edksLi7a5sLnzc3N+FM23d3dyb789PT0/5tW5TF8pIV6qTzHjwRFiNvc3CW4527Rim4ds9C8vncqVaoR8i7+ttFvoSnTr2eJslVxaaFbOCZxJ3PRAYCWFor6Lq0VCXsf8q3m84uju1Zqju8IvjH8FppaZDQ5Y6LsIsWEfMR439LKd43kvEZxvdPHzeVpEVcWrlEhkUQCpAmXhntgcNMOwuMtKLrodqsMdFbwo0QprtFDTgiustFF4R+ibm5u4itjxsfHbf/5+WlmZmbs9e3trRkaGrLXreDk5MT2k5OTtof9/X2ztLRkIq+3PzI1k+/vb1NY2Y+Pj7an4gIL6evrs9dHR0e2GrcKjB5Fnr0eHBw0r6+vdheBoiPPtr/gtYTY4+tOIzrM+M2v7GkQyoSxW4gIdzcdNYJbf/wWkqMZwzpUk5AzdAfi4qeRRLP1FkiNpRCBjKXKm4UEwFja9XBPCysjz0sW5gQVbO6FFGwMzzokSz2/Fbm4yoZEs+4XtbZ+vsXALZh5z+tZf0za8bYoKIu53C2pFFarMKqA+kZRFNbSjYvvgEnOVpGD5+fn+Cqd6+tr20fekhRBnZggOTGlwHui91bl9Pb29h99IxwfH9t+YmLC9jA7O2t7akseOkWPjo7aXkxNTdne3RjUgv9EgfTyo0DqmH51dWX7LO7u7myfJdD5+bntQ6Gg7ezsWOPNz8/Hd3+ytrZm2trakt1OFvzLTQwMDMRXxoyNjdme47M7xke7GN8Zurq6bP/+/m77EDTX3Nyc7X8kaIVQrbyr/OeHvC0C0X0a4UbKIDfTp8EY3sn7CP28EFVI0vLIO8zoxEsqIY8zp78Pz3pWNc0fn4V0ga5UlKtmVW7KU5AEShuj3EtjcVm/d7jKQyCeC1F2LUdQbk5TCgrQ+uiZ03+nZPJRrQlVdlqNqJpVFsQjmwFWxxtROE0F18f1yr8J76D5SNkh75dDul4N1bNGyCpYvlnIc7MWI2PkeX8ZIAPNR+mplk5QLo7KWD+qU5UNzVZ4XphKlpA9cqNIUX6EKT1mpUVwFZ0ma6ayQd6GAvJeUg8I4e5/hYqz79ksgPdn1ZCy0Zp1WBMokchKAxmRn++pBVm6ylU2ELYooFZhCsVNF8pnKJL5m5EmaoFMSlkysFJIVmQxDmMwTmtKo6ayy4bwRNEKNxqK5l6rFS2QQwWZhqxlRHYbf6IJ/9EECv/E+o96MeYPnAIoFdBnYXoAAAAASUVORK5CYII=;" parent="1" vertex="1">
          <mxGeometry x="481.28" y="-611.2700000000001" width="33.39" height="11.74" as="geometry" />
        </mxCell>
        <mxCell id="a-21Tg05XktNHDUC52Gq-170" value="" style="shape=image;verticalLabelPosition=bottom;labelBackgroundColor=default;verticalAlign=top;aspect=fixed;imageAspect=0;image=data:image/png,iVBORw0KGgoAAAANSUhEUgAAAFwAAAAjCAYAAAAZm21MAAAAAXNSR0IArs4c6QAAAARnQU1BAACxjwv8YQUAAAAJcEhZcwAADsMAAA7DAcdvqGQAAAX5SURBVGhD7Zq9Lz1NFMfH05OIf0DQkRCvjYYEkSgkCkQjUQiFRiLx0uhQKrwk1JQa4iVReIu3gkRCgYgoicIf4Nnv+c2XuXN3985de+9V+CSTs3dfZs6cOXPO2SXv00P9kTX+0/KPLPFn8CyTc4MfHR2puro6NTc3p8/knuvrazU5OSl65eXlSSsrK4tHR8TwXHB1dfXZ1taG/CFtdnZWX8k90KewsPDz8PBQfj88PHzW1tbGomdOPBze09XVpfr7+1V3d7c++7tYWFhQjY2NclxSUqKmp6fleH9/X2RUQg3++PiohoeHZTvFSXt7uzo7O1M9PT2qurpan/09eI4oupkUFBToo0S2trYk9CwvL6u3tzd9NphAgyNelZaWitHn5+f12W8wAOMbGgZ1BZ5TVFSkf8UPYrCpG5qLMcJ4eXkR2dzcLJI0NDSo0dFRNT4+LsfISaH8iyyJDA0NOcUrxDbch4ZnooAxXMZKl9fX16+46zmOPhsN9IU+0F8Q5nhra2v6bDJJHo4Qsri4qDwDqLGxMX3WH8Q2UllZqY9+B9hB3EWeIURGpa+vT3lJVG1vb+szyWAsXMdYvb29Emp80YYXNjc3ZYVQPbiAVcX9aKg6opApDwf0uKWlJX0mfbBz0Q/m6gJ2PSocNL9nEjx8ZGRE5NTUlMhUIPGR3+bhiNmXl5dyXF5eLjJdsNsvLi7Ec11zDna9t0jq/f1dra6u6rPffBl8fX1deasjiZLlUCpubm5EejtC5G/i9vZWH/1L0umCoiFdY5OBgQGRMzMzScn6y+AbGxsi06mLWZPW1NSI/E2cnJyIjBK/UWnAWCsrKwnGZvWTCng5xoWX7+3t6bMaHVq+YjHfrlzgM3ZWRkbnNbSJiQl9JRHEfcZZb6El/sUF32Lt6okVGBvGN2FFYt5jNxcwZ9yLeZnI0zAyO3OdNIzFZ+yEafbnl3CYKINaOoseBJIW+vJLmBwH99i6w3l43a+5lpgY1+9+MTirEzRX2KHfMzQovMw1u8eJ6Qz24tEZYAjb2HFiOp2J/DI9zhVuTbuEpIfYWzmbmF5qAgPDq/12XdyYBjcXNvDVPhW7u7sizVddVDoo+j3vl48/ueLg4ECkWT0h4TU1Nck3kiiVx0/4+PjQRxG/h6PUQQkJKioq5HsLJgJje96lBgcH5VquQDkHUD1BV5R4VVVVoiMcIZvGTgJunm5IMWO+3Vy2Ku5BFmdiQzyN600Tfds6sUHvMPAschMqC+oGGaWCCgopYuF0kyYXCMoAKEoF7RLRD8R9M2kxH8RhdL+JBpWINpwX7qPjsDjgXF0JTZrmRZeV5ATMGpNGSzUpJjR7YbAAruOHYTsD4Jh2iWaDZ/3u4bsC7OQK9bD7kxhuvvre3d3po2B2dnZEIgmRjo4OkUicYfCNtr6+XiRpbW0VeX5+LjIqfPtlf6ClpUUk8g6SZxD4Onp/f69/fcOYn5+fL9KFp6cnkd5iiSRfSdPzVpHHx8cigzAVNj8K4eM7wOts2KRY3ZifdkFxcbHI5+dnkSZIyvxDQqoP/Fww8y9JMBgnfnp6KtIVzAUOhoonnQ90nGdnZ6fIL7SnO2+7sBcehBicZwzEtkL4MQl6NtWnYT6HPoNAzOZ99van3pwf5otjxmob9IWxEJqQ4IPu84N64Fn7uYSZQwE/ZU0Yq/0Mg4HYByQUtmMyrqHZMI+kMrgd+03oNH79Y+LoG9dgCMyDSdWG96FhHlisdAwels8SNKOXIUlkCk7Ehgb3U9L03J8m1XTAWPwI5fp2imdwv593g6SZc3XCtu5PoOFsuOX9xuW1oK+OmYYeH7a7AAzMiiao5k+euUcmjU6F7O1MT7IVxX3wFlcPywSwQyp7mMYOWxhfgwMOgtUNWq0osF94rQmUhWFtoDwcIBvGxqL7GZUO6GdI6IXz0B3xPpWtAg0OEI8wGDqKCygI5dCYnBkyUm3ZTMPQYToDdMI5OIQfmAOu4RkXpwg1eKbAQrKE5GTi3EVRgQ7Qi5UWdYPXx7XD/v4hP8tE/h7+RxSU+h82uT5cZ9IpyAAAAABJRU5ErkJggg==;" parent="1" vertex="1">
          <mxGeometry x="183.99999999999997" y="-928.38" width="33.92" height="12.9" as="geometry" />
        </mxCell>
        <mxCell id="a-21Tg05XktNHDUC52Gq-171" value="" style="endArrow=classicThin;html=1;rounded=0;endFill=1;entryX=0.604;entryY=0.654;entryDx=0;entryDy=0;entryPerimeter=0;" parent="1" source="a-21Tg05XktNHDUC52Gq-166" target="a-21Tg05XktNHDUC52Gq-157" edge="1">
          <mxGeometry width="50" height="50" relative="1" as="geometry">
            <mxPoint x="386" y="-609" as="sourcePoint" />
            <mxPoint x="348.03" y="-640" as="targetPoint" />
          </mxGeometry>
        </mxCell>
        <mxCell id="a-21Tg05XktNHDUC52Gq-172" value="" style="endArrow=classicThin;html=1;rounded=0;endFill=1;entryX=0.576;entryY=0.729;entryDx=0;entryDy=0;entryPerimeter=0;" parent="1" source="a-21Tg05XktNHDUC52Gq-156" target="a-21Tg05XktNHDUC52Gq-165" edge="1">
          <mxGeometry width="50" height="50" relative="1" as="geometry">
            <mxPoint x="328.03" y="-760" as="sourcePoint" />
            <mxPoint x="386" y="-689" as="targetPoint" />
          </mxGeometry>
        </mxCell>
        <mxCell id="a-21Tg05XktNHDUC52Gq-173" value="" style="shape=waypoint;sketch=0;size=6;pointerEvents=1;points=[];fillColor=none;resizable=0;rotatable=0;perimeter=centerPerimeter;snapToPoint=1;strokeWidth=0.25;" parent="1" vertex="1">
          <mxGeometry x="298.49" y="-930.31" width="20" height="20" as="geometry" />
        </mxCell>
        <mxCell id="a-21Tg05XktNHDUC52Gq-174" value="" style="shape=waypoint;sketch=0;size=6;pointerEvents=1;points=[];fillColor=none;resizable=0;rotatable=0;perimeter=centerPerimeter;snapToPoint=1;strokeWidth=0.25;" parent="1" vertex="1">
          <mxGeometry x="458.61000000000007" y="-667.42" width="20" height="20" as="geometry" />
        </mxCell>
        <mxCell id="a-21Tg05XktNHDUC52Gq-175" value="" style="shape=waypoint;sketch=0;size=6;pointerEvents=1;points=[];fillColor=none;resizable=0;rotatable=0;perimeter=centerPerimeter;snapToPoint=1;strokeWidth=0.25;" parent="1" vertex="1">
          <mxGeometry x="458.59999999999997" y="-930.68" width="20" height="20" as="geometry" />
        </mxCell>
        <mxCell id="a-21Tg05XktNHDUC52Gq-176" value="" style="endArrow=classicThin;html=1;rounded=0;endFill=1;entryX=0.623;entryY=0.727;entryDx=0;entryDy=0;entryPerimeter=0;" parent="1" source="a-21Tg05XktNHDUC52Gq-195" target="a-21Tg05XktNHDUC52Gq-173" edge="1">
          <mxGeometry width="50" height="50" relative="1" as="geometry">
            <mxPoint x="564.48" y="-645.61" as="sourcePoint" />
            <mxPoint x="541.51" y="-765.61" as="targetPoint" />
          </mxGeometry>
        </mxCell>
        <mxCell id="a-21Tg05XktNHDUC52Gq-177" value="" style="endArrow=classicThin;html=1;rounded=0;endFill=1;entryX=0.953;entryY=0.439;entryDx=0;entryDy=0;entryPerimeter=0;exitX=0.32;exitY=0.333;exitDx=0;exitDy=0;exitPerimeter=0;" parent="1" source="a-21Tg05XktNHDUC52Gq-174" target="a-21Tg05XktNHDUC52Gq-203" edge="1">
          <mxGeometry width="50" height="50" relative="1" as="geometry">
            <mxPoint x="376.03" y="-770" as="sourcePoint" />
            <mxPoint x="368.03" y="-790" as="targetPoint" />
          </mxGeometry>
        </mxCell>
        <mxCell id="a-21Tg05XktNHDUC52Gq-178" value="" style="shape=image;verticalLabelPosition=bottom;labelBackgroundColor=default;verticalAlign=top;aspect=fixed;imageAspect=0;image=data:image/png,iVBORw0KGgoAAAANSUhEUgAAAB0AAAAbCAYAAACAyoQSAAAAAXNSR0IArs4c6QAAAARnQU1BAACxjwv8YQUAAAAJcEhZcwAADsMAAA7DAcdvqGQAAAFmSURBVEhL7ZbRbYMwFABNNwhsACtErMAIzMAKMAFMwAZhASbgjy8GgA1gBrfn2hUpYNokRJWakxCO7byzn5+jOPID8WTe9PupvKSH8nekRVEI13WF4ziiqird+0mWZaqf981wZeZcLhdZlqUcx1EGQSBPp5MekTJJEq6Xeuq61r2/ZyGdk6apEnRdpxbCAmjfi1XKbpDmef4wIVilwzB8pZO0PwqrFBCez2f9yQ6L5NyphTiOde8Sq5QApBXxHubMTRHa2IzGl9kh54m0aRo9soTUM+enZ74qJYgpHGQERL4GKWXu1vgaV1JzRXjmhUNQzglI+fyOkhGTCdpRFKk5tsxcSUkngu+VagKv7QgJYxQO81gQbfq2fkD2K2QHI51DIbFAxtY45Aff8zwRhqFo21b3XHO31Pd99Z6mSb0Nfd8r8Sp6xzdDhROG4jH301yzw84UCE4RIuKhvSWE17/BQ/kvUiHeASmhPg432OEDAAAAAElFTkSuQmCC;" parent="1" vertex="1">
          <mxGeometry x="301.49" y="-610.58" width="12.5" height="11.63" as="geometry" />
        </mxCell>
        <mxCell id="a-21Tg05XktNHDUC52Gq-179" value="" style="shape=image;verticalLabelPosition=bottom;labelBackgroundColor=default;verticalAlign=top;aspect=fixed;imageAspect=0;image=data:image/png,iVBORw0KGgoAAAANSUhEUgAAABoAAAAWCAYAAADeiIy1AAAAAXNSR0IArs4c6QAAAARnQU1BAACxjwv8YQUAAAAJcEhZcwAADsMAAA7DAcdvqGQAAAFBSURBVEhL7ZbRsYMgEEXxdaAt2IK9WIOOFWgFWoEdaANW4K8fNmAH9sDzEHASFCcxJl85MwwEWO7usjjx5IL4An+6/zg/odNshKqqEkEQCM/zRNu2evZGURRqnv5lqDpD0zSyrms5z7MMw1D6vq9XpEyShOpUres6Pfs8D0L35HmuDh3HUYkjyvgsTiG8Rqgsy7dFwCk0TdOaKlL6Lk4hQCSKIv1rC9EaZ+wWx7HedcNZ3mmaiiVlYhgGPbPPUiQ4u7alkNR8lmWqX0HNhssnEuNx3/d65RFSat8dNlSszUYIY3P5CCCE8TPwLLDdu9NVyJQz7X4jhsZD3tLRG3JFoxzWY5WqPW9II+KsHUVmomG/DWu7d3QGk3IO3eMyIVJ2FPElQkRDel3RwCVCREOhuFBfGT0+jXkCHHbEl/6cCPEPfIktshrGLiQAAAAASUVORK5CYII=;" parent="1" vertex="1">
          <mxGeometry x="261.07000000000005" y="-724.61" width="12" height="10.15" as="geometry" />
        </mxCell>
        <mxCell id="a-21Tg05XktNHDUC52Gq-180" value="" style="shape=image;verticalLabelPosition=bottom;labelBackgroundColor=default;verticalAlign=top;aspect=fixed;imageAspect=0;image=data:image/png,iVBORw0KGgoAAAANSUhEUgAAAE4AAAAdCAYAAAAEsFpEAAAAAXNSR0IArs4c6QAAAARnQU1BAACxjwv8YQUAAAAJcEhZcwAADsMAAA7DAcdvqGQAAARsSURBVGhD7ZrLLjVNFIbX/i6AYCoGDgOJkeMEiYHDBRDMTBkLCVfABQgDM3EIAxPHAQkiEiJcAANjInEDvn7XX6+/u3Z1dffevfc38SSV1V27uw5vr7WqurML3wHyS2b+GPtLRqou3M3NjfT09KitNuhzbm5O6uvrpVAoqF1dXTW/ZgShWg1eXl6+R0dHkRa0XF9fm1+qB/rt7u7Wsby/v3/Pzs5q3c7OjrkiPVURDoOEaBDr6OjonwoH0QiOUTc5OWlq0uMN1dfXV1leXpbW1lZTUxoNDQ1yenoq/f39UlNTY2qrTzBfaW5uNmf/09nZaY5ENjY2ZGxsTHZ3d01NDP/pVwzct66uTt05/JQAvAW3sti/++C95XrcysrKT/8tLS2mNhtLS0vO8WPuaBNRgmhx4RQON6JBX+w/PT3pNRA3C3kJB9bX17WtUkItaY4QDPkQxSVekXBQH2LgafgoNT/kKRwnDwGzwDybdJ9PiyLhuPLFuShh5wiZLOQpHEMtS1uIFKagNMT1ERGOXpSm0VIGDfIUDmGEttJCD0orGojTJNIrc4YvtxHXoJFQUYfiCmF4MQV3uX8W0BbaQYQQehPHYIcic1YY3BNuwwXmhXbDRGbOMEVjSeA6exBc6VBvhzrbtkvSoOOg59oPgP3YHsJ86CpJY4AT4LpwlESEo8ckwUGHBwehcD86ScqPecCHFI4OrvRZ824Srr4iG+Agns2Rn9vbW7WDg4NqPz4+dNM4MjKiG0dseCvNxcWF2t7eXrXPz88yNDQkweRkYWFB6/Lm7e3NHJX4ks9Bt7e3y/HxsbS1tcnExISsra1pfTU4OzuTIO9IbW2t7vYh2tbWlkxNTZkrKozxPAWnVpWTcAJmSbNKwtXtJFsKDEm7+MD4kFo4dti0Ic1QDV8f8bggR5mjeBASn5+fEiRUjFSCxrSe4esCn3Pwvjs9Pa33lsvd3Z1a9I0xYCzA96lqYGBA7u/v5eHhQYIcrJ65uLiY/E4aoqmpyRxZocqXeYgTBwfd1dWldnx8XO3+/r5aG4Ty9va2nJ+fS7ACmtryuLy8VNvR0aF2ZmZG7cnJido49vb29CUfOXh+fl7rDg8P1fp4fHxU29jYqFZRvzOk2cfB3XEN3hwI93RJqyld3ge3E77Q5+rP/mBxbm+PfHBjGw6/OFz7uIjHDQ8Pq726ulLrAp4D+vr61AKspuDg4EA/RWGFxUpbDl9fX+YoCtrH6h+I9LN6w+IcYYhoQcgmLRKbm5tqGTFxsL+i9oyAP/CJu7yHT8l+sriWXof74zbQeXgcogG/2xtf9MnEj6jweT/b8EUW4ZuOPZ6iWVAce+edB2mEc4VFnqT9MgJ8WjhnkeWJZCFJuEp/VqdXpnEKRhGKy3tjZwHR0Alc1ef2WUgSDq9r4UUnT+A9aUXDg4PnI23Ezd0bN+gMwqGRckFbzF+VEscHvScMPBBjCoMQRl1StHmFywuI5SpptgJ5wNTjKrZwafn9C0SJlPSS/4vIX0DgBKtn10fQAAAAAElFTkSuQmCC;" parent="1" vertex="1">
          <mxGeometry x="273.06999999999994" y="-725.69" width="30.23" height="11.23" as="geometry" />
        </mxCell>
        <mxCell id="a-21Tg05XktNHDUC52Gq-181" value="" style="shape=image;verticalLabelPosition=bottom;labelBackgroundColor=default;verticalAlign=top;aspect=fixed;imageAspect=0;image=data:image/png,iVBORw0KGgoAAAANSUhEUgAAAEwAAAAgCAYAAAC4oZ4KAAAAAXNSR0IArs4c6QAAAARnQU1BAACxjwv8YQUAAAAJcEhZcwAADsMAAA7DAcdvqGQAAAQySURBVGhD7ZpLSjw9EMAz3w3UI6gLF6KIIqi4EHyAa9Gl4MLXDfQEegBx7UJduFXUhQtfoIjoAXTh2geewP/8ihRkepKepGccF9/8IKQ73alUKpWq9DClnzKmRTT/2bpFJC2DJdIyWCJNN9jr66tZWFgw29vbtqV5MPbm5qbp6uoypVJJytramvn4+LBvREDQbwbv7+8/GxsbJBgpW1tb9knzmJ6e/mlra/u5urqS+93dXdFldXVV7mNomoetr6+b3t5eUzacbfkbdnZ2zNjYmFwvLy+bzs5Oc3h4KPdRWMN5eXl5Ea8oC7UtjYFh/8LDfDA3PE/B67g/ODiwLZUEDUYH3Bd3xXBZmLSWkPAQjTAY28rVwadjLY6Pj736c6+GJJS4eA1GB58gFwQhlPeenp5saxz0aYSHMS6yWNhU6KsO4YP5DQ4OSnGNVmUwVgpBbMVaYLAiyjbKYOiKrPn5edsSh86xVj+fLaoMhhuiRNYVs/Cc99z9H0ujDKZbKkVWyHNCaGbXzFqRJTmnnJ2dmbKbmo6ODtvq5+7uTuqJiQmp/4KbmxupR0ZGpI5hZmZG6tPT05pzhKWlJan39/elrvAwPZfEBPGs5YF4QBsltFU1PvoCaip4CbJcNK5SslsOndHLTRDoQJ883NBTMZpux5gg7tu6mrkQnpXBttGJZEtR6IvRXHSc7JbTeBcqeWB43pH52TZBVycG3suuDIJRNDVrFkEXx81y6i3oUa/3uugisDsqYlh5FexVPtfX11JPTU1JDXyT0Z/Y0NfXZ1t/j9vbW6nHx8el5nuQ+IROnNxj4lMqb29vxT6+VVkM8/z8bIaGhszn52d0IG0EFxcXUvf09JiTkxPT3d1t5ubm5NPnNylksMfHR6lXVlZMf3+/eXh4MAMDA0FjNeRXggz39/dSM/7s7Kz5+vqKypZ4X3t7u70rgN2mQmwMI6jrexpL8s5jPKOPZtQivxK46Alfx9QYk3ceY2ydHyUFN4ZV9IzJkqqsm51UkVCgRW72qEIfTdWpqMH1BK4ZMJsxFQ64LA7v6XEohWCWjDmH6TlKlQVVAsViwWA+r4zxFj3vueNhLNpqZUeVn4K7uBUxbHJyUurLy0upfeiz0dFRqUGv9/b2JC4RnzST+iBIk1EXFxdtSzXf39/2qprz83Oph4eHpQbN2EdHRxIzyZj1xEgFWejKr8SCmM1Bt2VopULbT1ed53mexpZmtULxq5aHhbYf+qiXMYdQWEn1MN09Gn+reqpCRQNyHsjGWNlPFhc1fF4crYcUg/ls4e2pcSovlqWiHkAJea8aNORdjSDWYCF9gz0xFsrjkqEJplDLWMBkftNYEGMwPYKwtbP65vZkxTEYnesBGRgfeQqK1Cs3FcbXGB2Ks4V/028UGgdCpVn4xqakenTrzyiJFPqW/D/TMlgSxvwDN+BETuWlGawAAAAASUVORK5CYII=;" parent="1" vertex="1">
          <mxGeometry x="324.43000000000006" y="-671.19" width="30.38" height="12.79" as="geometry" />
        </mxCell>
        <mxCell id="a-21Tg05XktNHDUC52Gq-182" value="" style="shape=image;verticalLabelPosition=bottom;labelBackgroundColor=default;verticalAlign=top;aspect=fixed;imageAspect=0;image=data:image/png,iVBORw0KGgoAAAANSUhEUgAAAEwAAAAeCAYAAACG0fjXAAAAAXNSR0IArs4c6QAAAARnQU1BAACxjwv8YQUAAAAJcEhZcwAADsMAAA7DAcdvqGQAAARESURBVGhD7Zo7SixBFIZr7gZETM00MRBFfASa+tiB7sDXDsYVKBirqSDqAhQ1EVQMREQDI9EV+MAVzO3v0KdvTXX1o2Z65ibzQVFjP6pO/fXX6erGWiPC9CjNn7juUZKeYIF0TbCvry+zs7NjlpaW4iPdg74PDg7M1NSUqdVqUojj5eUlviIAclin2d/fb/T395MrG4uLi/HR7rG9vS19Ewfc3t5KPENDQ/J3CB13GK76/f01b29vZnJyMj7afdbX183q6qr8npubMysrK+b9/T3cZbFwKaLGGvV6vaVZyAJ3/Q+H+YgEFNfZ4EDiOz4+jo+k8QrGDViWRhHOhgbpiML5EKoSTPun5A0uC8ak43OhPUxCnJ+fn/HRf6QE44aiQJaXl+UazQllqUowBsKgiOH5+Tk+Wg7ujVKDFJ8gkHdNk2CqPEsxD7VzaLBVCQYIRqyhIAL3ZomlZGnRJBiDQYiixuiU60Kp0mH0H9oWE40IZScaseiHp6qSjBpFOVmUl1oNFqoS7OzsTGJgu1AWBh8iFvg0SQQjH3GyKIn6gtW8p8UXFMcImEIg7eCbeU0TFPqw0ZipbcjFdhs+3KWfCMbMZw3WRjeBbucarCs4Aek5txQFm4XGaqcO7cfnIn1A+EpRDPqA0+sSwbTRIjRY2yW6k3dF7BT0T7w2DIzcGrLkyqAGUSMkCnGwjGBusDTkm9VOoU6y8wq/fVuAKlDBNAUFvRrd3d1JHQVnPj4+zMbGhtnd3TXX19dmbGxMznWa+/t7qemP1xpeqL+/v83FxYUZGBiQc50kSLDX11epT09PTeQys7e3J0EWiYW4vLvxXtkuT09PUq+trZnx8XHz+PhoJiYmMsWi762traYvFcTS0pcKEJ9FlMlhdgLE/izFvHu4Rp9oFPvJ2ip2n7o887Yqbg7iHtqglMG9P3HY8PCw1HnKX11dST0yMiIzykzB+fm51C6bm5tmdHTURMLFR9qD2H5+fpKvHnx1wOmXl5fyzSuLKMclsXLP9PS0tFMGdfTg4KDUiT2K9mG6iSO5Krq/cV8ffHBdnsPKuIXY3P7UwSFPaFZTXj82XGu7MXHY/Py81Dc3N1K7PDw8SL2wsCA1zMzMSE1O06+a7eapPKdobLOzs1KD/j48PJR7eRDpw8mFlcCXVlbT0dFRfDQb8l9klMSdQiyc4NsQKrqTdmdSZ51ZyHMQ17TrMM2zbnwaG+eznMZ5CnHiSt8YXdS9xKY0CeZ7d6oK2s0TTIUP/WQUCv0gmp1afGRpkXrEaeDUVVIkGAMom1faxeccG9xHPBTXial9GOs1EktyAfuXvJxSFeQcnnZl8kooJycnqZzW19cX/0rDteRmdgHezXAsXAosyUyQF9pFXYuDyuSOKqFPxsB4gFc4/vYtSdIB1+etrkzBqoAliFC+0i14CLDhJm/RLzV5qdWJ6/1vRSBB75I9jPkLBSxqDyiuk1sAAAAASUVORK5CYII=;" parent="1" vertex="1">
          <mxGeometry x="244.02" y="-941.6899999999999" width="33" height="13.02" as="geometry" />
        </mxCell>
        <mxCell id="a-21Tg05XktNHDUC52Gq-183" value="" style="shape=image;verticalLabelPosition=bottom;labelBackgroundColor=default;verticalAlign=top;aspect=fixed;imageAspect=0;image=data:image/png,iVBORw0KGgoAAAANSUhEUgAAAFAAAAAeCAYAAAC7Q5mxAAAAAXNSR0IArs4c6QAAAARnQU1BAACxjwv8YQUAAAAJcEhZcwAADsMAAA7DAcdvqGQAAAQSSURBVGhD7Zq/Lj1BFMfn/l5A0IoCjZBoJBqNQhQ0KnRaWp03UGiFXsILICgUSBQiVBo8gcQj3N9+jj3MnTuzs/9+e5Nf7ieZzDW7d+ac75xzdu5Gq51g+pTmT9r3KUlPBDw9PTVDQ0PpX83C2uvr66bVakmbmJgw5+fn6dUSkMJNcXt72x4fH6dkSGsa1mfdra2t9ufnZ/v9/b09OzsrY3wuQ2NenJ2dieEYuru72zMB2UCbk5MTseXw8DAdKUbUC3XYXbgKe3t7PRHQhwqIuApiLi0tybUYmV4wweDg4E/k2KgItKLi1iUgTqoN2FgGUthnP74zzhqke4igF7ozWbvATnHP2tpaOpKPOiOQtZmrTAoiOgHy/PycjnSCcAhMC4no9YJoY2JSNwsVuajxdQqICMwVEiGE1uHY92JaeL3Q1MgKXVAj7PqRhzoF1KdoEfJkl02Wn10rozg356kpZYyHugRkg5mHDc8LpwG+k1c8yNKkywuta7EFfMaTDoQ74zRfamOMRjjOVEHFYEMUjS5tdoqG0hE77Tl88EDhuy5dAqpzsdqgh1LXGP2+d7dSp9wWMz6ERrK7ETqvGwRaL30tZoM+rNw07hIQpbkxhhpvG4noeYypC90sIkshmoiUqtHt4vMXupTiJloM13hN31jq1wnr22c41saGWPaUQQV0g6P0y4TLy0uTGGsGBgbM0dGRWVhYMMfHx/JDvQnu7u6kTx5k5uPjw2xvb5v9/X1zc3NjZmZm5FojpEL+wJBnuANNVbdlQXRoHaEROVXSTB92diMrsqhiQ+4ITCZNP4V5eHiQPpkM1UxiuPytUeHC+MbGhrzCSp7eJkl7id7l5WWJnjIQaZAUdZmT+ciKEHXZMDo6mn76pktA3o/By8uL9D7U+Onpaek3Nzelv7i4kN4HG3NwcGCGh4fN2NiY2dnZkfHr62vpi3J1dSX95OSkzKmlI+vdXhUbnp6epB8ZGZFe6RJwdXVV+tfXV+l9PD4+Sj83Nyf94uKi9OqUy/z8vHl7e0v/6mRqair99Iu+7AxBxHx9fUn9QwxYWVmR/v7+XnqXoja44DMRyzwdfGfyLzxVGQ79EtHr/Aqx0V8l1EfOSrEXDNxPDfLBPDQO6z6oZVy3z6B6sGdOPuc5HGfZYJOlibfy6xHF54DPeNBjjC4Uch64zr2h4wZz0ELogdh9AKhtzB0TL2aDTaHfwhCLwiqoMSHDde1YBFchZoNNTIvgNutu0tdFnjlxjsjIiuAqFPELG0hzWsiecJ4ksAjO4FRVh0i3mOGsQfnIExllyGODQrpSH7Eny/dMAYEQRsA8xTYEc+hG2OQp9HVRxAbGEC6P0FEB60CLvq81JeC/sqH/rx0V6cl/JvxP9AWshDF/AXD8maXvXhOPAAAAAElFTkSuQmCC;" parent="1" vertex="1">
          <mxGeometry x="332.2200000000001" y="-735.95" width="35.39" height="13.28" as="geometry" />
        </mxCell>
        <mxCell id="a-21Tg05XktNHDUC52Gq-184" value="" style="shape=image;verticalLabelPosition=bottom;labelBackgroundColor=default;verticalAlign=top;aspect=fixed;imageAspect=0;image=data:image/png,iVBORw0KGgoAAAANSUhEUgAAAEwAAAAbCAYAAADWHGlkAAAAAXNSR0IArs4c6QAAAARnQU1BAACxjwv8YQUAAAAJcEhZcwAADsMAAA7DAcdvqGQAAARWSURBVGhD7ZjLLjVBEIDb/wbY2mFhIcQlEsRC4pLYEvYWbnsLnoAHEGsLJGwJFhZuQUR4ABbWrk9w/vkqXSdtTs+cnnPmsPElnZpb91RXV1XXTF0hwvwRzD8r/wjkRw32/PxsZmZmzPr6ur3yc/Du1dVV09LSYurq6qQtLi6at7c3+0QghGSteX19LaysrBD60tbW1uydn2NsbKxQX19fOD8/l/PNzU3RZWFhQc5D+REPW1paMu3t7SYynL3yO2xsbJjBwUE5npubM83NzWZ3d1fOg7GGK+Hp6Um8IhrUXskHXvkbHuaDueF5Cl7H+c7Ojr1SitdgdMB9cVcMF4dJa0sb3EceBiOsXB18Opbj4ODAqz/nakhSSZwSg9HBN5ALAzEozz08PNirYdAnDw/jvYzFwmaFvuoQPphfT0+PtLjRvhmMlWIgQrEcGKwSZfMyGLoy1vT0tL0Shs6xXL8kW3wzGG6IEj5XdOE+z7nxH0peBtOQyjJWmuf40J1dd1Yo7pLUKcfHxyZyU9PY2Giv+rm5uRE5PDws8je4vLwU2d/fLzKE8fFxkUdHR2XnCLOzsyK3t7dFCtZwxbokJIn7LE8+4BotKVQ1PyYl1CzgJYzlonmVFg85dEYvd4NAB/qkEU89xTdqOIYkcV/o6s7F4PExCBudSLxVCn0xmou+Jx5ymu+SWhoYnmfUOYpP6+qEwHPxlWFgFM26a1aCLo67y6m3oEe13uuii6CRV8xh0SrYo3QuLi5Ejo6OigS+yehPbujo6LBXa8fV1ZXIoaEhkXwPkp/Qico9JD9l5eXlRWTmTyNVFsM8Pj6a3t5e8/7+HpxI8+D09FRkW1ubOTw8NK2trWZqako+fWpNZoPd39+LnJ+fN52dnebu7s50dXUlGguPxAP1L0FDQ0Nlfwkcbm9vRfL+iYkJ8/HxEbRb4n28vyokMCNCcxhJXZ/TXJJWj3HP3Qh0Ny5XOCbBOO47Ncek1WPoqfOjZSExh+EBQJglwT1WM0rucs6Xf6SI1G9pHkOoaG7jLwF8fn6KzMr19bXI7u5ukZOTkyL39vZExiFkqaNOTk5MVFrYq+FoRDU1NYksmjukDtM6yv1c0JqMyjsE3eJ9HhHiLVrvue/Tmqzc7qjjZwHPdOuwooeNjIyIPDs7E+lD7w0MDIgEPd7a2hIvIz/pTurCPXIIOxkrvby8bO+U8vX1ZY9KwVOgr69PJOiOvb+/L18s7JjV5EiFsdj9+UtcxBpO8BWkLpoH4vd11bnv8zTNdfoM3uyjnIepd8YLVvRRL2MOSbVgVg/T6NGiFb71VoXcgjBPmJgq7Ya1ooavVfGbxWBJtijprXkqLZdVi3qDCwqSK5K8Kw9CDaYeS4tHk7c3xkJ5vCDeISsoiTFcNPRdeK6WxoIQg2kJgo6+uSf2ZpIYjM7VgILu953+x/KFZC1hPrpQSTt6xf/080SVQFEaC1BrT4qj74637HoUCv8B16ZoPOPuhkQAAAAASUVORK5CYII=;" parent="1" vertex="1">
          <mxGeometry x="485.00000000000006" y="-678.57" width="35.39" height="12.57" as="geometry" />
        </mxCell>
        <mxCell id="a-21Tg05XktNHDUC52Gq-185" value="" style="shape=image;verticalLabelPosition=bottom;labelBackgroundColor=default;verticalAlign=top;aspect=fixed;imageAspect=0;image=data:image/png,iVBORw0KGgoAAAANSUhEUgAAACIAAAAaCAYAAADSbo4CAAAAAXNSR0IArs4c6QAAAARnQU1BAACxjwv8YQUAAAAJcEhZcwAADsMAAA7DAcdvqGQAAAHKSURBVEhL7Za/rcIwEMYvbwFEGCEMQEGkbEBNBSuAqChhgiwQZYOwACBaEA0VAwAFNRIj5Pm7+J6ckIQnEf4U/CTLztmxP853F6xYQR/Aj+7fzldIls8WslgsqNlskmVZNBwOtTVhNpuRbdvkuq62VASyxuR4PMaDwSC+XC5xr9dDRsX7/Z7noijiZ7TJZMK2qrgRYjKfz/nQMAxZDMYQ8wxKhcArOBwearfbLOhZlAoBjuP8iXkmd4V0Oh0WAu+UgdhCTPm+ry23IK7q9TrvBw9L7IFSIYgHeXGz2WhrGgjEAViDViRERECwJII8g0IhUIuFkilFB2BDrJF4yluHwzBnxpgEv2RfrhBTBMALuKJ7FAmRH5P1qrlvqqChkKGItVot6vf73ID61bRareh0OnFBm06nbP8v5/NZj9KoOKHD4cDjlJDtdsu9chcFQcBjMBqNSHmIVAbRer2m8XisZx6j0WiQurbkgf1SEdgu72pgw1z2anAtyB7wko9erVbTozS73Y69Al4ixPM87pfLJfcA8Xa9Xqnb7SYG9ksFSGbA3XnFD3ZkIjLSrCOy9mEhcv95zQQH4jMhcxBiVtbvn+csXyFZPkQI0S9b2UfiuCSc3AAAAABJRU5ErkJggg==;" parent="1" vertex="1">
          <mxGeometry x="463.7299999999999" y="-611.2600000000001" width="15.55" height="11.89" as="geometry" />
        </mxCell>
        <mxCell id="a-21Tg05XktNHDUC52Gq-186" value="" style="shape=image;verticalLabelPosition=bottom;labelBackgroundColor=default;verticalAlign=top;aspect=fixed;imageAspect=0;image=data:image/png,iVBORw0KGgoAAAANSUhEUgAAACIAAAAZCAYAAABU+vysAAAAAXNSR0IArs4c6QAAAARnQU1BAACxjwv8YQUAAAAJcEhZcwAADsMAAA7DAcdvqGQAAAGKSURBVEhL7ZbNrYJQEIWH14G2IFsSF1CDJWgLiCuWUAEUQOhAG9CELUTWsCZSgRsrwHvmXQyi4kveNbrwSyZXhgkc50+1RkAfwI88385XSJ+vkD53hex2O9J1nTRNo+VyKb2/bDYbGo/HZFmW9CgC49vlcDg0tm03x+Oxmc/nGO2mKAq+t16v+RrmeR77VHEjpMt2u+WXxnHMYvAZYl7BoBBkBS9HhkzTZEGvYlAImEwmFzGv5KmQ2WzGQpCdIXA/CAKOHwI9iN5DbJdBIeiH0WjEQrIsk95bULI27pEQCEWDIwbWF/Jwj5RlyaMbRRFf53nOZ58wDOl0OlFVVST6SHpvcRyHDMMgIUh6ekhBV2BC8A3bCUHYs5QDxPwlDs8bzAgWGZbYdDqlxWLBBkRNKUkSquuaF5rv++xXyZWQ/X7Pp6jlpSRgtVqRyBCJCaI0Tcl1XXlHITIzSlBWmnfyMUKUlaadNBiW1iPaH06UsLsk/y0Eiw4PvmfdJYieuBcDA99/8X0+RAjRGawf52cJNnifAAAAAElFTkSuQmCC;" parent="1" vertex="1">
          <mxGeometry x="225.09" y="-939.8199999999998" width="17" height="12.5" as="geometry" />
        </mxCell>
        <mxCell id="a-21Tg05XktNHDUC52Gq-187" value="" style="shape=image;verticalLabelPosition=bottom;labelBackgroundColor=default;verticalAlign=top;aspect=fixed;imageAspect=0;image=data:image/png,iVBORw0KGgoAAAANSUhEUgAAACAAAAAaCAYAAADWm14/AAAAAXNSR0IArs4c6QAAAARnQU1BAACxjwv8YQUAAAAJcEhZcwAADsMAAA7DAcdvqGQAAAGrSURBVEhL7ZbPjYJAFMYfdoBagAmUoDXg1ZNXr1ACnownCjChA21A450GpACsQEIJ7HzPeSyy44a4EA/rLyED84aZj/dPrVJBb2Sgx7fxEfARUAlI05Tm8zlZlkWz2YzyPNeWu811XbbV5zsBZQiWy2WZZVkZxzHKkkdwuVxK27Z5bjqd8lyXVAKE2+3Gh0EQ7h3HKX3f19buMTYihKAoClIiSHmFDoeDtvQAy2iAL4YJLocX+sRYBZPJhMfNZkOj0YjvnwHvDIdD/fTI9Xql9XpdJTCuIAgeE1kLqUDSIe4wRVGkZ3+SJEm1zrAN43keJzDWAknwek49vClJdzweeSE2MAE7NkHVhGH4q4D9fq+f7mB/iBKqN3E4Yi7q8PKzjevAS23WCRBQ/7AB4oHYjMdjtQ/RdrvlcbFY8IgYS5P6K6fTiatqtVrpGUXd3fWMl3CIDblhoq0HpKE1e0p73z2hjQDkCg5Hc2vS+48RQoyGprxJu91Oz37TuwDJnfP5bO4p2hMvAddKtSCXmqBE4XqsEyS3hJcF4FDTJc0Lh5rscgmff8X/XQDRF4cxgXrIjXIoAAAAAElFTkSuQmCC;" parent="1" vertex="1">
          <mxGeometry x="316.1300000000001" y="-735" width="14" height="11.38" as="geometry" />
        </mxCell>
        <mxCell id="a-21Tg05XktNHDUC52Gq-189" value="" style="endArrow=none;html=1;rounded=0;" parent="1" edge="1">
          <mxGeometry width="50" height="50" relative="1" as="geometry">
            <mxPoint x="467.8400000000001" y="-515" as="sourcePoint" />
            <mxPoint x="467.8400000000001" y="-525" as="targetPoint" />
          </mxGeometry>
        </mxCell>
        <mxCell id="a-21Tg05XktNHDUC52Gq-190" value="" style="endArrow=none;html=1;rounded=0;" parent="1" edge="1">
          <mxGeometry width="50" height="50" relative="1" as="geometry">
            <mxPoint x="141.98000000000002" y="-920.47" as="sourcePoint" />
            <mxPoint x="152.24" y="-920.47" as="targetPoint" />
          </mxGeometry>
        </mxCell>
        <mxCell id="a-21Tg05XktNHDUC52Gq-192" value="0.05" style="text;html=1;align=center;verticalAlign=middle;resizable=0;points=[];autosize=1;strokeColor=none;fillColor=none;" parent="1" vertex="1">
          <mxGeometry x="72" y="-935.5" width="50" height="30" as="geometry" />
        </mxCell>
        <mxCell id="a-21Tg05XktNHDUC52Gq-193" value="0.04" style="text;html=1;align=center;verticalAlign=middle;resizable=0;points=[];autosize=1;strokeColor=none;fillColor=none;" parent="1" vertex="1">
          <mxGeometry x="443.99999999999994" y="-490" width="50" height="30" as="geometry" />
        </mxCell>
        <mxCell id="a-21Tg05XktNHDUC52Gq-195" value="" style="shape=waypoint;sketch=0;size=6;pointerEvents=1;points=[];fillColor=none;resizable=0;rotatable=0;perimeter=centerPerimeter;snapToPoint=1;strokeWidth=0.25;" parent="1" vertex="1">
          <mxGeometry x="458.59999999999997" y="-729.5300000000001" width="20" height="20" as="geometry" />
        </mxCell>
        <mxCell id="a-21Tg05XktNHDUC52Gq-197" value="" style="endArrow=classicThin;html=1;rounded=0;endFill=1;" parent="1" source="a-21Tg05XktNHDUC52Gq-203" target="a-21Tg05XktNHDUC52Gq-202" edge="1">
          <mxGeometry width="50" height="50" relative="1" as="geometry">
            <mxPoint x="441" y="-600" as="sourcePoint" />
            <mxPoint x="396" y="-679" as="targetPoint" />
          </mxGeometry>
        </mxCell>
        <mxCell id="a-21Tg05XktNHDUC52Gq-200" value="" style="shape=image;verticalLabelPosition=bottom;labelBackgroundColor=default;verticalAlign=top;aspect=fixed;imageAspect=0;image=data:image/png,iVBORw0KGgoAAAANSUhEUgAAACMAAAAbCAYAAAD28DaZAAAAAXNSR0IArs4c6QAAAARnQU1BAACxjwv8YQUAAAAJcEhZcwAADsMAAA7DAcdvqGQAAAG0SURBVEhL7ZbNjQIxDEY92wHQAVAC1EAJSHQAJdABHJFAdAAUAA0gcYYzggq4UMEszxuPhmzCsuJHHOZJ0WScTPzFiQ1JekE+hC/3/AgKMTE+W8xqtZJ6vS5Jkkiv13PWH+bzuZTLZWk2m87yZMgm43A4pN1uNz2dTmm73SbL0u12q2Oz2Uzfaf1+X23P5kpMnuVyqY6n06kKoo+gVxIVQ3QQQKQajYaKejVRMVCr1TJB7+CmmFarpWKI0i0YHwwGOj8Ex8sdLJVKuh6bZL5PVAwL2Mfr9dpZf8Px2byYGMY4akTTiDQ2/+iDdWa322laTyYTfd9sNvr0GQ6Hcj6fZb/fy8WZs4ZZLBZSqVS0dTodtfHtFU5UBpnDTi1zmBLbcR7m3DMPrEz4Ec/EWCrT8hfW6g01iEViNeYeMazBXeHO2GbzZGJwglPfGertTlhBDPGXGETYZpnH5n1uZtN/uCcyQHQs2r6gt/9QVqtVGY/H2h+NRvo0Xi7meDxq1uUho4K4CD2EZSCNY8jDncONFTkrkNj8Y3pIjDkKNUtbnJMUFD0box+6wMUf8hiFmBiFmDAi325h08in5qM8AAAAAElFTkSuQmCC;" parent="1" vertex="1">
          <mxGeometry x="466" y="-676.96" width="17" height="13.11" as="geometry" />
        </mxCell>
        <mxCell id="a-21Tg05XktNHDUC52Gq-202" value="" style="shape=waypoint;sketch=0;size=6;pointerEvents=1;points=[];fillColor=none;resizable=0;rotatable=0;perimeter=centerPerimeter;snapToPoint=1;strokeWidth=0.25;" parent="1" vertex="1">
          <mxGeometry x="240.9000000000001" y="-930.4" width="20" height="20" as="geometry" />
        </mxCell>
        <mxCell id="a-21Tg05XktNHDUC52Gq-203" value="" style="shape=waypoint;sketch=0;size=6;pointerEvents=1;points=[];fillColor=none;resizable=0;rotatable=0;perimeter=centerPerimeter;snapToPoint=1;strokeWidth=0.25;" parent="1" vertex="1">
          <mxGeometry x="298.48999999999995" y="-730.08" width="20" height="20" as="geometry" />
        </mxCell>
        <mxCell id="yPKQlWN-IdyAsAEU29Nx-2" value="" style="shape=image;verticalLabelPosition=bottom;labelBackgroundColor=default;verticalAlign=top;aspect=fixed;imageAspect=0;image=data:image/png,iVBORw0KGgoAAAANSUhEUgAAAGMAAAAiCAYAAABLP2dcAAAAAXNSR0IArs4c6QAAAARnQU1BAACxjwv8YQUAAAAJcEhZcwAADsMAAA7DAcdvqGQAAAXvSURBVGhD7Zm5L31NGMfH2yvQqcRSiEJha5AobCFaKqUtaoV/wNYLhURnqRFLokAkBCEKFX8BwV9wf+f7/ObrnXvunHPmLNe9b/J+ksnMPefM+syzzNyKnIf6n7LgH52XBR8fH2pubk5VVFToJ+XF29ub2tzcVENDQ6q6ulrGiYTfR0dH+qsUQDNKzfv7e25lZSVXVVUFLc0NDg7qN+UFxoY0OzsrYwY7Ozs/zw8PD+VZUkouDEymoaFBBDA+Pl72wrCNDcLJYtxOZurq6kpNTExIypqLiwu1vb2tjo+P1fz8vH5annjrJeP0U1dXp0v5PD09qcbGRrW6uiomOIpQYaAB2MOenh719fWlJicn9ZvsWF9fV93d3frXf5Pv72/J6+vrJSeVlZVqampKLS8vq6amJrW7u6vfBPBXQQp5fHwUG44EUxIETQsTTE5SLi8vM1F3G5iPOU6ksHm5At/BdXp9fdVP88E3mBP6hEkLwioMNEpniklEwUVEgnCSUkxhACyKuXlc5hYFF9mlLfa9uLion+RjFUZ7e7tU2tjY0E+i4QTj1PFTbGEARG3oA5stLXTcrhqGzQDLgTq2yKtAGAzV4pgbUzNQTspvCIM7OW0fcQVBwta3QBiUXJxOoA2og5SG3xAGzS80JClJBUGC1jhv9aA6+AiJhxoXsjofFFsYphNPqsHceEkFAeAz0AbcgUleaHtwcCC5txiqpqZGyi7c3d1J3tbWJnlaXGLyJLy8vOiSUs3NzbrkDs4NMzMzyhNIwZkL1yGu1zjDw8OSY91wxfKDFopA9Qny9jYQeaEOkt8p+cNepCCNQztUf6S0Vws22L5/R0JLaL6YbGvAwCYsuYA14Pemhv3UNj+IExGZps0WZ/Mdkk21Gd2EpazgYkIofsxx4Dv/pqEJDUtxzCuFbwr9Z6ZmZ3HsKe2fLTpgm+g4TpvFIGg3Eiwk3kFQQdqbJezPFGDqK/T7+3vJvd0kOYF9HRsbk+ewjaW+8gjzF7i2Pzk5EV+A65k4/jJLUgsDkwB9fX2SAzgz/IaTw8Wa/86mFFxfX0vuaalqbW2VMgIFjBF3Rp7mqunpaXleKlIJA7e5pKWlRSID7LKRkRG1tLRU0l3m5/z8XPLOzk7JIYCuri7l+bmy0FxBm6tEPiPM+WZx75MltjEipblLS0PmPuPh4UFy+AWvLeU5PjEDYH9/X/Iwiv43pgb+i3jRn4zV20jye29vz+lcg/FA6zs6On7Gif8q8Cyzc5GIxCNJaGsLz3i2QHgYBfszIxhEOnye1VmDp2Yk9mOexqP6oQXAnGg1zHORy1z9hIa2wPZBEOZhzwwVzcW0nTtM8I2ppoSTtL1LAtvzh9885OJ9GBSG3/SaGzhO6B608fPMFI/4p6enkodxe3urS/86RWCWz87OdOlv+GiaC+D1H+tvzKRwPgMDA5IT/jb/gcMYMVaThYUFGSujMBu1tbW6FM3NzY0uKdXf369LvmhqdHRU8oI7EwvPz8+Sw0eYoSvK3o6T8tramuSYHCaMvyFdCPobkyCKo92O+isT9hwRE/AvZm9vr+Sfn5/SDgSBkJx+L4qtrS3JPc2KFb7zDhC+Nq+e6IcBVTfKb8BO4jtbNOKPsmD+XKMrqDC+Rwoyc2bkh77CMK9rbGYG/fA9UpTJQh20iXmjrqt/NWGf/puAAmHQ2dmuN4hp82yLgfcM3dBOnDCX9cLqxBEGr2uQbGBBuDhRvtK/ySCQOL4C0KdiXbBOJtYRctdHTTRr6Gj9O8aPKYw4gs4KagetSJQ2EdSj4G0RnFUYmCArxZV8UlwFAfit6yIUCzOidFknan3QuO2660GBILksUBriCALjwreYmF/NSwEXOMyKmGY7bAMFCgNA8mwEeTG0hD7KVeCw6y7noN8iTBhYPzznpo5y9qHCIBACnJUtckoDd7ltkIyCygEuqF8TTR9g8114Br+C+i5aXNLZMlAIS+UAFhNjgRYw3EaOzYnnWWlqyWZrRkRBCZMvBzBW2Hr/5oEwbFFRMnK5P7ziF0Ltk6KtAAAAAElFTkSuQmCC;" parent="1" vertex="1">
          <mxGeometry x="339.47" y="-926.34" width="33" height="11.34" as="geometry" />
        </mxCell>
        <mxCell id="yPKQlWN-IdyAsAEU29Nx-3" value="" style="shape=image;verticalLabelPosition=bottom;labelBackgroundColor=default;verticalAlign=top;aspect=fixed;imageAspect=0;image=data:image/png,iVBORw0KGgoAAAANSUhEUgAAACkAAAAfCAYAAAB6Q+RGAAAAAXNSR0IArs4c6QAAAARnQU1BAACxjwv8YQUAAAAJcEhZcwAADsMAAA7DAcdvqGQAAAJSSURBVFhH7ZhNrilBFMePuwOxAQlzA8SAMUswYGDqYwHCCiyAkBgY+VgAwYAEAxERFkAsgFhCv/qfV9Xpq7WP6NvvvsQvqVT3qWrn36dOnepwaQL65XzJ/lfzEWkXH5F28f+J3O12FA6HyeVykd/v53sj5/OZyuUyj6Ndj/8YqJNgv99rbrcbNVNvyWRSjmra6XTSQqHQt3Gn0D0lEgldFHolBOJANpvll5jP51q9Xuf5TsEiIQROlSAIUSKVKFxvt1sedxrLNVNLr6La6XTkiPNYikRkVTQrlYq0/hssRUKYEvkKSBnk76vPlUoly4BY/lK/39dFPpOLEAcHKk1e2VhGX7dE3izmh8OB0um0vCNaLpfy6jbdbpcikQhNJhOKx+PS+hyovfAlXk5azJhE4iGxWdiZiAbbptMp91bMZjNqtVo0HA6pUChI63Pk83ny+XxULBalxYxJZCqV4r5arVIwGOTr8XjMPVgsFpTL5eTdX2q1GsViMXn3PIPBgHq9HjWbTWm5zRcm4ghEBOF8tVrxQx6Ph6LRKE+6XC7UaDR4TiaTIa/Xy/Z3UCklcpACgYC0WmDcxWgo3gpshuujEkfjPdRB8GjjYNz4W0rHzY2DZAfIC+Hg27IhmlhKldSitHDevQtWZTQaPVxmHSnWNh5FUn3IXEfMGEmsoAiavqqOizR+vDxq6lvC8Y9e1FTh19REBHkcvbIh3cCPiUQlsAtbRaKstNttvl6v11wHn+V4PHK/2WzMLyjC+jYq6e+1eyB/jXOv8/nzN4tdfETaA9EfR2CfSxBsMUQAAAAASUVORK5CYII=;" parent="1" vertex="1">
          <mxGeometry x="319.47" y="-927.1" width="17" height="12.85" as="geometry" />
        </mxCell>
        <mxCell id="yPKQlWN-IdyAsAEU29Nx-4" value="" style="shape=image;verticalLabelPosition=bottom;labelBackgroundColor=default;verticalAlign=top;aspect=fixed;imageAspect=0;image=data:image/png,iVBORw0KGgoAAAANSUhEUgAAAGkAAAAnCAYAAAAM0GYmAAAAAXNSR0IArs4c6QAAAARnQU1BAACxjwv8YQUAAAAJcEhZcwAADsMAAA7DAcdvqGQAAAX9SURBVHhe7Zs5TjQ7FIXN2wGwAyBBBASMEoNEwBCRAkuABYAEK4CAkCEgZshBDBIBkwQCBBERrADEEvqvc6nDM8Yuu7rcUEj9SZaru6rsa9/B1251QyVB1Sk1/6V1nRJTaiWtrKyopqYmdXFxkX5THt7e3tTOzo6anp5WbW1tqqGhQUpPT4/IHRWEu7Kxvb1daW1tRRiWUkbGx8dFtu7u7srz87N8d35+/in34uKifBeDUs0ABonBY6AYZNmV1NjYWHl9fU2/+QAGFlvu3C1hIqempqTEZmNjQwops5JcYH5scj88PIjxLS8vf1Osj+AZQMN0cdT7+/vpndrxF5WEeYHMUIgOQiIUBO9DgceFEjQDsIKQxuFdnFiboHlhO7UAY9FlnZ2dTe8Ug4bsMmLd2EP79M4ALIADgrJ86O5eNCSynVoBy2YfepitFrYX0hYNOiTB8M4Aspe8g4g1cLZTK3SDCjHALJgwhHoHPIqZoG/pyJwBdpwnbOkDx3UR2E6t0D2pCHkVRELnN1M6ajprHTKB98QYOIjVjguGHKwR1VKtgkjIHDtngFkKSp6UMcbACfuvFVxr4VHVgBCJ94skHdwPYllx4ZwBdIyX8042LSPGjhvtoOTdV4SAhIjtV7Od4JpiS46YbIWEe3154MmFifPs7vj4WOquri6pQ3h5eVFJR3I9MDAgNcEZF8+3WHD+ZQPfb25upp+U2tracj5bLTc3N+mVUn19fenVR9/6WRwKzuNMVldXZay7u7tfnkVJlKfe39/TJ7Npb29Pr77K9IVUWV+AleAWSp4MTQ+RNqvgPRRbDNatylWKJiOEYQbeYKLLAY+wZX68n1VCYdh1RR+rJz09PaVXSnV0dKRXfi4vL6WGJbW0tMg14Ul2IpBKJkE8y2RwcBAjyyx4JgaMFGNjY1LrXF1dSZ2sE+r29lZ1dnbKZx2bbGYJpbe3V+q7uzupTaL+VMFOMDidx8dHNTk5+TnoWBNdBMgBTAXg54eFhQWVrMnq8PDwm7H9BlGVdHR0JPXIyIjU4ODgQD7Dc8oyaP33qf7+/vTq4/ermZkZlYR4tba2ppqbm9M7v0zilt/QY3LoGmC+gzWJGWLRk4fYmJtYyIssNjQjiw3P8lyZdDRPYhwHQ0NDsi6tr6/LZ91ay8Dp6Wl6pSQbg7yMAmUIxSbRlHR/fy811p1E+SrJECVJAHt7e1JngfQdaffExIT8ZM50Fp8RMmPCVDfJpkTWxHvkM9LmkL6wxi4tLYlslBMyI6TjXnTEnwyqScFtaSRPH7J204T9IRRx84qUnu1Ws+G0wVMCs02b/Db0sM65gbxM6dGOa1Pqwte3VUkgVGgAoSi4vv/huRaKT3A8Y9u9c/AxjpmASyaun7Z9kw6VZDtKwruuey5CHMIZ7riP4X4iC32nzJwf6NcnJyfplVJzc3PfwkIii6S/LmJlhWdnZ1Kbe7nh4WGpE8V9yobTB8yDftrBvdz8/Hz6zf/gpCIv19fX6ZVSo6Oj6ZWBqMqC7/RAR3d1E1oXLRQWGxoSYGV4FiXr9x7KibZ9IPTiWdNrIY/eDvrGsyGhmrDtrBNtE3pwVj9OJQFOsG9dcg0c6Okuim/CAe6jTzyLMOdTKNv2hURfaGEqzIJx4Z0QGAbzKBVgjHgvS7GZSsJA0AC9wIY+cFssxn0OHu34FMS2+LyeSLjg8z4l6dHBth+CbDRMtBWqIDyHyca7oe8Aro++9zKVBOgleRbDGGDC9DCapVw8g+Lz+FqAycUchUQIHSoWcvsyV6+S0DEbs1lfrWHMdnkJrTFPaIpFtQoCjC4h66hXSYCKQsmzKMZA35eYYJIQKlDyTlJRinhQHgWBICUBLN5sHPVPeVWWkhAmIMtPexBAkpRHQZg/LBk09jyhOVhJBJMGAW2ZXBGgBNu6h+9wL3Z/RWBCZVMQ1lEYjgmehceHJEImuZVUK+gtejjFNS0vZF/1E0AOyEN5bcWmpCKURkmwMAxOnwBYHizzN8KZC3p2VrFFhCLU/475B4j6y2yd2lBX0h+grqTSo9Q/ZvBnHLVBdnIAAAAASUVORK5CYII=;" parent="1" vertex="1">
          <mxGeometry x="483" y="-709.53" width="40" height="14.86" as="geometry" />
        </mxCell>
        <mxCell id="yPKQlWN-IdyAsAEU29Nx-5" value="" style="shape=image;verticalLabelPosition=bottom;labelBackgroundColor=default;verticalAlign=top;aspect=fixed;imageAspect=0;image=data:image/png,iVBORw0KGgoAAAANSUhEUgAAACoAAAAeCAYAAABaKIzgAAAAAXNSR0IArs4c6QAAAARnQU1BAACxjwv8YQUAAAAJcEhZcwAADsMAAA7DAcdvqGQAAAIySURBVFhH7ZhLrgFBFIaPuwKPJViAicSAkQGGZmzBYy6xAWEBwsyMiaFEDEgwlbAAVkAswe3/3DpU923dfZPyuIkvqZx66fr7dJ1TFaGLBf0DvpR9ez5CTfMRappfQk+nE5XLZQqFQhSNRmk0GqmRG/1+n8cwB/WngPSkk0wmka6uJRKJqJEfKpWKbXy1WqmRx2IT2m63L/F4/HI8Hi+9Xu8qZjKZ8PhwOOQ2xrbbLdefhW0leEv3kAjFC4gwiHwFni4plUosLp/P8xbAi7wKT6HwpHgVYp8Fth4cY/u6yrqCiSL0L0GDhSTovMDLy/Pdyn6/VzN9hGJB+VGQvYn5+ArwBn7j9xX8hOp4JvxCoaBqRIvFQtXcQb5NpVI0n88pl8upXn8ssVDkWnTuCq1Wq3Q+n6nZbHJ7NpuxvcdyuaTBYEDT6ZTq9brqNYer0E6nwx4aj8eUTqe5D6J3ux3XcXrB27BCt9ulTCajWuZhoVgQx+HhcOAjsdFo8MKJRII/p9BqtdjWajW2sViM7VOw9oItulEQEDrOTY9g0SPSiTwvSDDhJNSfL/kaganDQiVfYpJbdONUwgNlcbS9CCoUYvS0J1lDtOhiWahpggq9h3jYCmTV45OeXkU2m2W72WzYgrcUKoTDYVV7sFA9fTlBCkSmWa/XqucGDg1QLBbZMmoLGAPZQL9cy13WiQQNLuoSnHowoV/HmFBZwKvo4IUQLHpqQkEbF3Qnn39KTPMRahaibyBeBcJB8/2uAAAAAElFTkSuQmCC;" parent="1" vertex="1">
          <mxGeometry x="466" y="-708.1700000000001" width="17" height="12.15" as="geometry" />
        </mxCell>
        <mxCell id="yPKQlWN-IdyAsAEU29Nx-6" value="" style="shape=image;verticalLabelPosition=bottom;labelBackgroundColor=default;verticalAlign=top;aspect=fixed;imageAspect=0;image=data:image/png,iVBORw0KGgoAAAANSUhEUgAAAC0AAAAdCAYAAAA+YOU3AAAAAXNSR0IArs4c6QAAAARnQU1BAACxjwv8YQUAAAAJcEhZcwAADsMAAA7DAcdvqGQAAAIxSURBVFhH7ZhLjgFRFIZv9QIkYgMSlsDIAoyNGJqyBFbACkjMTQyxAYmBEQuwAyKxgWrfSZ3qqlIv3VS1xJfc3FL39TuvKyz7hnkzvpz+rfiIzoqP6KwIFX04HEy9XjeWZZlqtSqfvZzPZzMcDmWcFhx/OZQ8L8fj0S4Wi5RBt7XbbWfUtk+nk12r1XzjWXN3YrPZdEXSqzDEQq/Xky+12WzsyWQi87PGJxphiFCBCFPRKpLn/X4v43mR6FsNFbX6fD53RvIjUTSWV2uPRiPnbb4kikaoin4EQoz4f2QdazRPWDcYDJwRP4k7rlYrV3SaWOZgvqiGVdpEJexYU6lURDg5FHVerOhg+WOzODiYQxGqOZBGtHqEPg2RorEY9ZjD1V1aCqPgUCwEWnmSRGtFStrbS6RoDkM04oktNsbqCqLiLJNGNHuzJ43ntLjX+Hq9liubK7rf75vdbmdms5kplUqm0WjInMvlYqbTqczpdrumXC7L+9+yWCxkz06nI+egYTweS+M5Eke8r0rQ1M2gFvGO44U40lhaw069ikfRoe/V00Fc0TqRRPIKVjS7mUNYJLkzjWjGdb8gmshhY7HV4y88IjrMSFpqvXmk/Nvf04VCQXpiPkiuom9ekP56vUofxs3SztMPLxdNpYmi1WpJv1wupfey3W6lp7Lc4YTJU+EmJYHYnkZ8hkEyUyGY471tNekTq8czCJbNsBYEUayjaukcxPIuqkJ9/mHKijcUbcw37BVLsVBhtvYAAAAASUVORK5CYII=;" parent="1" vertex="1">
          <mxGeometry x="463.8" y="-912.68" width="19.4" height="12.51" as="geometry" />
        </mxCell>
        <mxCell id="yPKQlWN-IdyAsAEU29Nx-7" value="" style="shape=image;verticalLabelPosition=bottom;labelBackgroundColor=default;verticalAlign=top;aspect=fixed;imageAspect=0;image=data:image/png,iVBORw0KGgoAAAANSUhEUgAAAGUAAAAlCAYAAABbJCejAAAAAXNSR0IArs4c6QAAAARnQU1BAACxjwv8YQUAAAAJcEhZcwAADsMAAA7DAcdvqGQAAAZBSURBVGhD7Zu7Lz1NGMfH2yvQisKl8ksULlEgUbg1GgUaJSFqEv4B/AEunY6oEZdE4ZYQhErFX+AW/8B59/u885U5e2Zn55zdc377Jj7JZPbs7pl5Zp55LjOHqlyA+iVT/KPrXzLEr1IySOaU8v7+rubm5lRVVZW+ky0g3+7urpqYmFDNzc0iJ0pnZ6daW1vTbyUEMSULvL295VZXV3M1NTWIcbmhoSH9JFtALsjX0dGRe3l5kXsXFxe5pqYmub+0tCT3kpAJpezs7MigMODx8fHMKwULB4vIBGOA3ChJ8XZfl5eXYrIoaXN+fq62t7fV0dGRmp+f13ezCWT8+PhQdXV1+s5/1NfX66t8np6exM3BtcH1+RCrFDQ0PDysent71dfXl5qamtJP0mN9fV319PToT/9Pvr+/pQ4sXmpSXV2tpqen1crKimppaZF4FIu2GCuPj49iqigwzyjocljgikoF/hltlMt9MWaxzM7O6ifJgLxo7+DgQN/JB+6O78T1GakUBDEOAMqJg5OJAiWVSrmVApBQUNbNzU19t3TYnk9bXMCuhCBSKcguihU6jYFWQinmAvJZcC4Y4H0tDhbDTC3KqqxKYUfFuCFzoLgulUpbShKKVQiJm1+rVNSkK46EgXWkMdBKKCWNtLtUhRDXHBfMIEwKL6OEc3EXae0vKqEUxkpYTCnA5eH7SZIExBS0gTARpiAl3t/flzqYlIJc3MXd3Z3U7e3tUifFN6cvltfXV/X5+SnXf/78kboYINfY2JgKFqGk8iZou7a2VvZ0cYyMjEiNecP38tDK+YFmVcxxATI1fAclHLxoQWaJskC0g9XH96ICYRLodsJymAGYxbaKucJdxSemoj++H3ZheUoxXywmgzJdHs+DTPgMxeZDzcAbVdKCk2oLsnSdKHBxtsyMz13FF7rRsAHkua/n52d9pVRra6u+iufq6krqYKCqsbFRrglNORBABYO2HtMsLCxgJM6SFicnJ1IPDg5KbXJ9fS11YCHiVtra2uSziU22cPGlq6tL6vv7e6lJKkf3bBSDMcG5z+jo6M8gs3CUwtgXnnAcfywuLqrAfcr5VnhxVZJUlHJ8fCx1f3+/1ODw8FA+wzL+9iCJGYC7u7v1lZLDwsnJSRW4bAnexSQ4ZSEwtx9Mn+oTrED4O2awTrKzLwfhTSPkReoN3+473jRB35AlnP4nthT6YYCTZMSVjY0N+Wyuxixwdnamr5T8Wgh5aeVZOqVOrJSHhwepETcCJasgg5OgDvb29qR2gRx9a2tLfh5Ajs+fV/EZLjBNbm9vpQ6yHZE1sA75jH2LT1+IkcvLyyIb5YTMcNF4lhpiL5pSUmJbWse9iS3PD8P+4FrQP0CKzXbT2qtwFx5u0ya/DbppvM+0HvLyeAn3bdsBF1F95ykF+AoJzE2juf8wN2hxguIdKDEM+seztI5bomRi/LPtW0yoFNtixeLDs2KObVwGUOC+uI9gPu+C7gAw5wbm9enpqb5S8lcqYTMPZHD+GpdW1oafnEF4L9XX1yd1oKgf2XCUgnkwj3oQcyDrzMyMvlNIQ0ODvorn5uZGXyk1MDCgrzSiGoO43bkJVzOsKwxWHp5xBWJF+po4VhHeRXH93kE50XYcXM1hq4Q8ZjvoG+/6uF5AC8L7dL8+0EJt/RQoBXBC4+JK1EBB+OgkboIBnqNPvAu3FadAth3n4lyuAjA1ZfGZYCiDixJ1MQoBGCO+azt2sioFguMLLj9rDtTmS/Gcg0U7cQphW3zfDPxR8P04pZjWj8kMA9m4ENGWq19aBgsUaJtYF4xv6NPWl1UpgFZQTPBKA0yQ6RZdyuTExFl0uYCCuPB8rAvgHVpJVGYZqRRMBr9sW13lhj43ygq42nwno5zQynwWMJXoioORSgFUDEqxJpoU002EgRIwESguS6oUjJ8uNwqZfRQCnDt6nKTiVBUpLg7ssJP1+VWt3CCdxF8dorYdr2cJnFjgwBN/iIctROBqC36xLEArJxasXGRZtkwrCRDBZvZcfWn3Vyq0XJsrpwXYYhssGRaN8fi6WW+llAsMBsV0j7im2/TZ11QCKgUTTMVgkrl4ENvS4q8rBYPCSmNSwYGXkvuXEywOyESrYIEy0s7+fv/nMXMo9S8Z44q7EQM8vwAAAABJRU5ErkJggg==;" parent="1" vertex="1">
          <mxGeometry x="485.2" y="-914.54" width="40" height="14.65" as="geometry" />
        </mxCell>
      </root>
    </mxGraphModel>
  </diagram>
</mxfile>
